<mxfile host="app.diagrams.net" modified="2023-06-29T05:33:50.707Z" agent="Mozilla/5.0 (Windows NT 10.0; Win64; x64) AppleWebKit/537.36 (KHTML, like Gecko) Chrome/114.0.0.0 Safari/537.36" etag="8ccC3f93d06GBn9WhteT" version="21.5.1" type="device">
  <diagram name="Страница 1" id="uDX0Nm1pw3qsI6UxJmw8">
    <mxGraphModel dx="2607" dy="1371" grid="1" gridSize="10" guides="1" tooltips="1" connect="1" arrows="1" fold="1" page="1" pageScale="1" pageWidth="827" pageHeight="1169" math="0" shadow="0">
      <root>
        <mxCell id="0" />
        <mxCell id="1" parent="0" />
        <mxCell id="sh9PJ3uVSIfnWu05vSia-43" value="&lt;font style=&quot;font-size: 20px;&quot;&gt;CRM API&lt;/font&gt;" style="swimlane;whiteSpace=wrap;html=1;startSize=30;" vertex="1" parent="1">
          <mxGeometry x="400" y="130" width="1080" height="730" as="geometry">
            <mxRectangle x="400" y="130" width="120" height="40" as="alternateBounds" />
          </mxGeometry>
        </mxCell>
        <mxCell id="jXLp81m_WxX2Bu4EoHyN-59" value="" style="rounded=1;whiteSpace=wrap;html=1;fillColor=none;" parent="sh9PJ3uVSIfnWu05vSia-43" vertex="1">
          <mxGeometry x="460" y="180.5" width="280" height="140" as="geometry" />
        </mxCell>
        <mxCell id="lD8TvkG2ea9-I35YIPtI-24" value="" style="rounded=1;whiteSpace=wrap;html=1;fillColor=none;" parent="sh9PJ3uVSIfnWu05vSia-43" vertex="1">
          <mxGeometry x="460" y="330" width="280" height="140" as="geometry" />
        </mxCell>
        <mxCell id="jXLp81m_WxX2Bu4EoHyN-51" value="" style="rounded=1;whiteSpace=wrap;html=1;fillColor=none;" parent="sh9PJ3uVSIfnWu05vSia-43" vertex="1">
          <mxGeometry x="460" y="70.5" width="280" height="100" as="geometry" />
        </mxCell>
        <mxCell id="jXLp81m_WxX2Bu4EoHyN-15" value="&lt;font face=&quot;Verdana&quot; style=&quot;font-size: 22px;&quot;&gt;Event Bus&lt;/font&gt;" style="strokeWidth=2;html=1;shape=mxgraph.flowchart.direct_data;whiteSpace=wrap;rotation=90;" parent="sh9PJ3uVSIfnWu05vSia-43" vertex="1">
          <mxGeometry x="720" y="350" width="355" height="60" as="geometry" />
        </mxCell>
        <mxCell id="jXLp81m_WxX2Bu4EoHyN-19" value="" style="endArrow=classic;html=1;rounded=0;entryX=0;entryY=0.5;entryDx=0;entryDy=0;" parent="sh9PJ3uVSIfnWu05vSia-43" target="jXLp81m_WxX2Bu4EoHyN-42" edge="1">
          <mxGeometry width="50" height="50" relative="1" as="geometry">
            <mxPoint x="380" y="130.5" as="sourcePoint" />
            <mxPoint x="410" y="260.5" as="targetPoint" />
          </mxGeometry>
        </mxCell>
        <mxCell id="jXLp81m_WxX2Bu4EoHyN-25" value="RabbitMQ" style="shape=image;verticalLabelPosition=bottom;labelBackgroundColor=default;verticalAlign=top;aspect=fixed;imageAspect=0;image=https://quinngil.com/content/images/2017/04/rabbitmq.svg;fontSize=16;fontFamily=Verdana;" parent="sh9PJ3uVSIfnWu05vSia-43" vertex="1">
          <mxGeometry x="950" y="335.75" width="84.58" height="89.5" as="geometry" />
        </mxCell>
        <mxCell id="jXLp81m_WxX2Bu4EoHyN-28" value="" style="endArrow=none;html=1;rounded=0;spacing=2;jumpSize=6;strokeWidth=3;strokeColor=#ADADAD;" parent="sh9PJ3uVSIfnWu05vSia-43" edge="1">
          <mxGeometry width="50" height="50" relative="1" as="geometry">
            <mxPoint x="380" y="689.5" as="sourcePoint" />
            <mxPoint x="380" y="69.5" as="targetPoint" />
          </mxGeometry>
        </mxCell>
        <mxCell id="jXLp81m_WxX2Bu4EoHyN-29" value="" style="endArrow=classic;html=1;rounded=0;exitX=1;exitY=0.5;exitDx=0;exitDy=0;" parent="sh9PJ3uVSIfnWu05vSia-43" source="sh9PJ3uVSIfnWu05vSia-8" edge="1">
          <mxGeometry width="50" height="50" relative="1" as="geometry">
            <mxPoint x="230" y="360.5" as="sourcePoint" />
            <mxPoint x="380" y="380.5" as="targetPoint" />
          </mxGeometry>
        </mxCell>
        <mxCell id="jXLp81m_WxX2Bu4EoHyN-42" value="" style="verticalLabelPosition=bottom;verticalAlign=top;html=1;shape=process;whiteSpace=wrap;rounded=1;size=0.14;arcSize=6;fillColor=#d5e8d4;strokeColor=#82b366;gradientColor=#97d077;" parent="sh9PJ3uVSIfnWu05vSia-43" vertex="1">
          <mxGeometry x="490" y="110.5" width="80" height="40" as="geometry" />
        </mxCell>
        <mxCell id="jXLp81m_WxX2Bu4EoHyN-43" value="" style="endArrow=classic;html=1;rounded=0;" parent="sh9PJ3uVSIfnWu05vSia-43" source="jXLp81m_WxX2Bu4EoHyN-42" edge="1">
          <mxGeometry width="50" height="50" relative="1" as="geometry">
            <mxPoint x="560" y="187" as="sourcePoint" />
            <mxPoint x="610" y="130.5" as="targetPoint" />
          </mxGeometry>
        </mxCell>
        <mxCell id="jXLp81m_WxX2Bu4EoHyN-44" value="&lt;font face=&quot;Verdana&quot; style=&quot;font-size: 14px;&quot;&gt;Users identity microservice (JWB)&lt;/font&gt;" style="text;html=1;strokeColor=none;fillColor=none;align=center;verticalAlign=middle;whiteSpace=wrap;rounded=0;" parent="sh9PJ3uVSIfnWu05vSia-43" vertex="1">
          <mxGeometry x="460" y="70.5" width="280" height="30" as="geometry" />
        </mxCell>
        <mxCell id="jXLp81m_WxX2Bu4EoHyN-48" value="" style="endArrow=classic;startArrow=classic;html=1;rounded=0;entryX=1;entryY=0.5;entryDx=0;entryDy=0;" parent="sh9PJ3uVSIfnWu05vSia-43" source="jXLp81m_WxX2Bu4EoHyN-15" edge="1">
          <mxGeometry width="50" height="50" relative="1" as="geometry">
            <mxPoint x="750" y="300.5" as="sourcePoint" />
            <mxPoint x="740" y="130.5" as="targetPoint" />
          </mxGeometry>
        </mxCell>
        <mxCell id="jXLp81m_WxX2Bu4EoHyN-55" value="" style="verticalLabelPosition=bottom;verticalAlign=top;html=1;shape=process;whiteSpace=wrap;rounded=1;size=0.14;arcSize=6;fillColor=#ffd764;strokeColor=#d79b00;gradientColor=#ffa500;" parent="sh9PJ3uVSIfnWu05vSia-43" vertex="1">
          <mxGeometry x="490" y="240.5" width="80" height="40" as="geometry" />
        </mxCell>
        <mxCell id="jXLp81m_WxX2Bu4EoHyN-56" value="" style="endArrow=classic;html=1;rounded=0;exitX=1;exitY=0.25;exitDx=0;exitDy=0;" parent="sh9PJ3uVSIfnWu05vSia-43" source="jXLp81m_WxX2Bu4EoHyN-55" target="lD8TvkG2ea9-I35YIPtI-18" edge="1">
          <mxGeometry width="50" height="50" relative="1" as="geometry">
            <mxPoint x="560" y="317" as="sourcePoint" />
            <mxPoint x="620" y="230.5" as="targetPoint" />
          </mxGeometry>
        </mxCell>
        <mxCell id="jXLp81m_WxX2Bu4EoHyN-57" value="&lt;font face=&quot;Verdana&quot; style=&quot;font-size: 14px;&quot;&gt;Files storage microservice&lt;/font&gt;" style="text;html=1;strokeColor=none;fillColor=none;align=center;verticalAlign=middle;whiteSpace=wrap;rounded=0;" parent="sh9PJ3uVSIfnWu05vSia-43" vertex="1">
          <mxGeometry x="460" y="180.5" width="280" height="30" as="geometry" />
        </mxCell>
        <mxCell id="jXLp81m_WxX2Bu4EoHyN-41" value="SQL Server" style="text;html=1;strokeColor=none;fillColor=none;align=center;verticalAlign=middle;whiteSpace=wrap;rounded=0;" parent="sh9PJ3uVSIfnWu05vSia-43" vertex="1">
          <mxGeometry x="660" y="122.5" width="70" height="16" as="geometry" />
        </mxCell>
        <mxCell id="lD8TvkG2ea9-I35YIPtI-18" value="" style="sketch=0;pointerEvents=1;shadow=0;dashed=0;html=1;strokeColor=none;fillColor=#389CFF;labelPosition=center;verticalLabelPosition=bottom;verticalAlign=top;align=center;outlineConnect=0;shape=mxgraph.veeam2.file;" parent="sh9PJ3uVSIfnWu05vSia-43" vertex="1">
          <mxGeometry x="618" y="210.5" width="28.000000000000004" height="39" as="geometry" />
        </mxCell>
        <mxCell id="lD8TvkG2ea9-I35YIPtI-21" value="" style="endArrow=classic;html=1;rounded=0;exitX=1;exitY=0.75;exitDx=0;exitDy=0;" parent="sh9PJ3uVSIfnWu05vSia-43" source="jXLp81m_WxX2Bu4EoHyN-55" edge="1">
          <mxGeometry width="50" height="50" relative="1" as="geometry">
            <mxPoint x="570" y="320.5" as="sourcePoint" />
            <mxPoint x="610" y="280.01612903225805" as="targetPoint" />
          </mxGeometry>
        </mxCell>
        <mxCell id="lD8TvkG2ea9-I35YIPtI-22" value="File storage" style="text;html=1;strokeColor=none;fillColor=none;align=center;verticalAlign=middle;whiteSpace=wrap;rounded=0;" parent="sh9PJ3uVSIfnWu05vSia-43" vertex="1">
          <mxGeometry x="660" y="215" width="70" height="30" as="geometry" />
        </mxCell>
        <mxCell id="lD8TvkG2ea9-I35YIPtI-23" value="PostgreSQL" style="text;html=1;strokeColor=none;fillColor=none;align=center;verticalAlign=middle;whiteSpace=wrap;rounded=0;" parent="sh9PJ3uVSIfnWu05vSia-43" vertex="1">
          <mxGeometry x="660" y="270.5" width="70" height="30" as="geometry" />
        </mxCell>
        <mxCell id="lD8TvkG2ea9-I35YIPtI-25" value="" style="verticalLabelPosition=bottom;verticalAlign=top;html=1;shape=process;whiteSpace=wrap;rounded=1;size=0.14;arcSize=6;fillColor=#dae8fc;strokeColor=#6c8ebf;gradientColor=#389cff;" parent="sh9PJ3uVSIfnWu05vSia-43" vertex="1">
          <mxGeometry x="490" y="390" width="80" height="40" as="geometry" />
        </mxCell>
        <mxCell id="lD8TvkG2ea9-I35YIPtI-26" value="" style="endArrow=classic;html=1;rounded=0;exitX=1;exitY=0.25;exitDx=0;exitDy=0;" parent="sh9PJ3uVSIfnWu05vSia-43" source="lD8TvkG2ea9-I35YIPtI-25" target="lD8TvkG2ea9-I35YIPtI-28" edge="1">
          <mxGeometry width="50" height="50" relative="1" as="geometry">
            <mxPoint x="560" y="466.5" as="sourcePoint" />
            <mxPoint x="620" y="380" as="targetPoint" />
          </mxGeometry>
        </mxCell>
        <mxCell id="lD8TvkG2ea9-I35YIPtI-27" value="&lt;font face=&quot;Verdana&quot; style=&quot;font-size: 14px;&quot;&gt;Documents storage microservice&lt;/font&gt;" style="text;html=1;strokeColor=none;fillColor=none;align=center;verticalAlign=middle;whiteSpace=wrap;rounded=0;" parent="sh9PJ3uVSIfnWu05vSia-43" vertex="1">
          <mxGeometry x="460" y="330" width="280" height="30" as="geometry" />
        </mxCell>
        <mxCell id="lD8TvkG2ea9-I35YIPtI-28" value="" style="sketch=0;pointerEvents=1;shadow=0;dashed=0;html=1;strokeColor=none;fillColor=#389CFF;labelPosition=center;verticalLabelPosition=bottom;verticalAlign=top;align=center;outlineConnect=0;shape=mxgraph.veeam2.file;" parent="sh9PJ3uVSIfnWu05vSia-43" vertex="1">
          <mxGeometry x="618" y="360" width="28.000000000000004" height="39" as="geometry" />
        </mxCell>
        <mxCell id="lD8TvkG2ea9-I35YIPtI-30" value="" style="endArrow=classic;html=1;rounded=0;exitX=1;exitY=0.75;exitDx=0;exitDy=0;" parent="sh9PJ3uVSIfnWu05vSia-43" source="lD8TvkG2ea9-I35YIPtI-25" edge="1">
          <mxGeometry width="50" height="50" relative="1" as="geometry">
            <mxPoint x="570" y="470" as="sourcePoint" />
            <mxPoint x="610" y="429.51612903225805" as="targetPoint" />
          </mxGeometry>
        </mxCell>
        <mxCell id="lD8TvkG2ea9-I35YIPtI-31" value="File storage" style="text;html=1;strokeColor=none;fillColor=none;align=center;verticalAlign=middle;whiteSpace=wrap;rounded=0;" parent="sh9PJ3uVSIfnWu05vSia-43" vertex="1">
          <mxGeometry x="660" y="364.5" width="70" height="30" as="geometry" />
        </mxCell>
        <mxCell id="lD8TvkG2ea9-I35YIPtI-32" value="SQL Server" style="text;html=1;strokeColor=none;fillColor=none;align=center;verticalAlign=middle;whiteSpace=wrap;rounded=0;" parent="sh9PJ3uVSIfnWu05vSia-43" vertex="1">
          <mxGeometry x="660" y="420" width="70" height="30" as="geometry" />
        </mxCell>
        <mxCell id="lD8TvkG2ea9-I35YIPtI-35" value="" style="rounded=1;whiteSpace=wrap;html=1;fillColor=none;" parent="sh9PJ3uVSIfnWu05vSia-43" vertex="1">
          <mxGeometry x="460" y="480.5" width="280" height="100" as="geometry" />
        </mxCell>
        <mxCell id="lD8TvkG2ea9-I35YIPtI-36" value="" style="verticalLabelPosition=bottom;verticalAlign=top;html=1;shape=process;whiteSpace=wrap;rounded=1;size=0.14;arcSize=6;fillColor=#f5f5f5;strokeColor=#666666;gradientColor=#b3b3b3;" parent="sh9PJ3uVSIfnWu05vSia-43" vertex="1">
          <mxGeometry x="490" y="520.5" width="80" height="40" as="geometry" />
        </mxCell>
        <mxCell id="lD8TvkG2ea9-I35YIPtI-37" value="" style="endArrow=classic;html=1;rounded=0;" parent="sh9PJ3uVSIfnWu05vSia-43" source="lD8TvkG2ea9-I35YIPtI-36" edge="1">
          <mxGeometry width="50" height="50" relative="1" as="geometry">
            <mxPoint x="560" y="597" as="sourcePoint" />
            <mxPoint x="609.9899999999998" y="540.5" as="targetPoint" />
          </mxGeometry>
        </mxCell>
        <mxCell id="lD8TvkG2ea9-I35YIPtI-38" value="&lt;font face=&quot;Verdana&quot; style=&quot;font-size: 14px;&quot;&gt;Tasks microservice&lt;/font&gt;" style="text;html=1;strokeColor=none;fillColor=none;align=center;verticalAlign=middle;whiteSpace=wrap;rounded=0;" parent="sh9PJ3uVSIfnWu05vSia-43" vertex="1">
          <mxGeometry x="460" y="480.5" width="280" height="30" as="geometry" />
        </mxCell>
        <mxCell id="lD8TvkG2ea9-I35YIPtI-39" value="SQLite" style="text;html=1;strokeColor=none;fillColor=none;align=center;verticalAlign=middle;whiteSpace=wrap;rounded=0;" parent="sh9PJ3uVSIfnWu05vSia-43" vertex="1">
          <mxGeometry x="660" y="532.5" width="70" height="16" as="geometry" />
        </mxCell>
        <mxCell id="lD8TvkG2ea9-I35YIPtI-41" value="" style="rounded=1;whiteSpace=wrap;html=1;fillColor=none;" parent="sh9PJ3uVSIfnWu05vSia-43" vertex="1">
          <mxGeometry x="460" y="590.5" width="280" height="100" as="geometry" />
        </mxCell>
        <mxCell id="lD8TvkG2ea9-I35YIPtI-42" value="" style="verticalLabelPosition=bottom;verticalAlign=top;html=1;shape=process;whiteSpace=wrap;rounded=1;size=0.14;arcSize=6;fillColor=#FCC7F7;strokeColor=#996185;gradientColor=#F55DD2;" parent="sh9PJ3uVSIfnWu05vSia-43" vertex="1">
          <mxGeometry x="490" y="630.5" width="80" height="40" as="geometry" />
        </mxCell>
        <mxCell id="lD8TvkG2ea9-I35YIPtI-43" value="" style="endArrow=classic;html=1;rounded=0;entryX=0;entryY=0.5;entryDx=0;entryDy=0;" parent="sh9PJ3uVSIfnWu05vSia-43" source="lD8TvkG2ea9-I35YIPtI-42" target="sh9PJ3uVSIfnWu05vSia-25" edge="1">
          <mxGeometry width="50" height="50" relative="1" as="geometry">
            <mxPoint x="560" y="707" as="sourcePoint" />
            <mxPoint x="610" y="650.5" as="targetPoint" />
          </mxGeometry>
        </mxCell>
        <mxCell id="lD8TvkG2ea9-I35YIPtI-44" value="&lt;font face=&quot;Verdana&quot; style=&quot;font-size: 14px;&quot;&gt;Ads and events microservice&lt;/font&gt;" style="text;html=1;strokeColor=none;fillColor=none;align=center;verticalAlign=middle;whiteSpace=wrap;rounded=0;" parent="sh9PJ3uVSIfnWu05vSia-43" vertex="1">
          <mxGeometry x="460" y="590.5" width="280" height="30" as="geometry" />
        </mxCell>
        <mxCell id="lD8TvkG2ea9-I35YIPtI-45" value="MySQL" style="text;html=1;strokeColor=none;fillColor=none;align=center;verticalAlign=middle;whiteSpace=wrap;rounded=0;" parent="sh9PJ3uVSIfnWu05vSia-43" vertex="1">
          <mxGeometry x="660" y="642.5" width="70" height="16" as="geometry" />
        </mxCell>
        <mxCell id="lD8TvkG2ea9-I35YIPtI-47" value="" style="endArrow=classic;html=1;rounded=0;entryX=0;entryY=0.5;entryDx=0;entryDy=0;" parent="sh9PJ3uVSIfnWu05vSia-43" target="jXLp81m_WxX2Bu4EoHyN-55" edge="1">
          <mxGeometry width="50" height="50" relative="1" as="geometry">
            <mxPoint x="380" y="260.5" as="sourcePoint" />
            <mxPoint x="420" y="250.5" as="targetPoint" />
          </mxGeometry>
        </mxCell>
        <mxCell id="sh9PJ3uVSIfnWu05vSia-1" value="" style="endArrow=classic;html=1;rounded=0;entryX=0;entryY=0.5;entryDx=0;entryDy=0;" edge="1" parent="sh9PJ3uVSIfnWu05vSia-43" target="lD8TvkG2ea9-I35YIPtI-42">
          <mxGeometry width="50" height="50" relative="1" as="geometry">
            <mxPoint x="380" y="650.5" as="sourcePoint" />
            <mxPoint x="500" y="270.5" as="targetPoint" />
          </mxGeometry>
        </mxCell>
        <mxCell id="sh9PJ3uVSIfnWu05vSia-2" value="" style="endArrow=classic;html=1;rounded=0;entryX=0;entryY=0.5;entryDx=0;entryDy=0;" edge="1" parent="sh9PJ3uVSIfnWu05vSia-43" target="lD8TvkG2ea9-I35YIPtI-36">
          <mxGeometry width="50" height="50" relative="1" as="geometry">
            <mxPoint x="380" y="540.5" as="sourcePoint" />
            <mxPoint x="510" y="280.5" as="targetPoint" />
          </mxGeometry>
        </mxCell>
        <mxCell id="sh9PJ3uVSIfnWu05vSia-3" value="" style="endArrow=classic;html=1;rounded=0;entryX=0;entryY=0.5;entryDx=0;entryDy=0;" edge="1" parent="sh9PJ3uVSIfnWu05vSia-43" target="lD8TvkG2ea9-I35YIPtI-25">
          <mxGeometry width="50" height="50" relative="1" as="geometry">
            <mxPoint x="380" y="410.5" as="sourcePoint" />
            <mxPoint x="420" y="420.5" as="targetPoint" />
          </mxGeometry>
        </mxCell>
        <mxCell id="sh9PJ3uVSIfnWu05vSia-8" value="&lt;font face=&quot;Verdana&quot;&gt;API Gateway&lt;/font&gt;" style="swimlane;whiteSpace=wrap;html=1;fillColor=none;" vertex="1" parent="sh9PJ3uVSIfnWu05vSia-43">
          <mxGeometry x="40" y="250.5" width="260" height="260" as="geometry">
            <mxRectangle x="80" y="420" width="140" height="30" as="alternateBounds" />
          </mxGeometry>
        </mxCell>
        <mxCell id="sh9PJ3uVSIfnWu05vSia-5" value="" style="shape=image;verticalLabelPosition=bottom;labelBackgroundColor=default;verticalAlign=top;aspect=fixed;imageAspect=0;image=data:image/png,iVBORw0KGgoAAAANSUhEUgAAAM4AAAD0CAYAAADT/hkPAAAACXBIWXMAAAsTAAALEwEAmpwYAAAgAElEQVR4nO29f4ylV3nnWXVvVeFYbZOWkLdJ44mNphObloODbcQIdvqPmDQKE3q0YjaxsTsSWq/SQiKDvB7SQ5aRVp7uiBHCHmOPtbSYdBzbDCQsjj3K9siiJ8GmzSKPldDBuAkqRIUi7aK2oKyprVTXrVp9Tn+fl+c995z3x/1RVU36j9Nddeve+77vOc/3+f1jYnNzc7LB6mxubnY3NzenNzc3Zy5cuHBlr9fbZWtjY+N1+ltX7y19/uC//GcTthpe7/K6vAeTY9iDTrS6bvnX6z4/NZH4svgLOqurqz+7uLj4jhMnTvzW/fff/ztHjhz55Ac+8IFP2Lr//vvv+fSnP/3+F1544V0XLlzY3+v1rgVQ9h0J0HQu4dX2kEZ54KPeu/gabe5ncgsIe2QL5r6xsXF1r9fbA41ubGzcbKvX693G/2tra3slAOrup2vAyT1I9/z58/uOHj16fGJi4tzExMTixMTEysTExNrExMS6Fj8v6W+zExMTZ9/2trf9lxMnTnzs5ZdffivSycBzmYtelqSbW7cHHZj3K6+8ct2ZM2f2w9xvv/32//ALv/ALL4iWz4lew3rjG9949t577/2cmP+VNUywDzjFz71e74qvfOUrt994441/OTEx0ZuYmNhsuQDVyl133fWHSCMewEuhltxnKzf88tqePegMKJn869O9Xm/3M88883aA8q53vetpMfRl0eOGVo5m+dsiWtS3vvWtf+ykT3ytTlLiAJpTp059eGJiYr7mQk0WoFsB0YDor//6r39tfX39DeiJIwTPqNWsy2vrgTBZc7apc+a1LirY9773vVswI974xjd+WXS7MgTtokWdPXXq1GEnfWqBM33mzJn3TkxMzEXEvyrkLl111VU/nJiYWJCKttbiBkH97JEjR5586aWXDvDAl4n0Mkg32zFEz+B3oVp95CMf+X0IXfQ5CFhyn5l99tln/ycESS1wQO7+/fvPG1huvfXWF48dO3b0zJkzb8d4mpub+zkkxoULF67BhnnkkUf+JSJx79693xcwGt3oVVddtXzkyJHPoMJFBtnldXkPJmu0ju7LL7/8lrvuuuv/HFCyBNt87969r+7bt++b2D2i31X9rTBNEBLf/OY3/0klcEDWvffee4IP8kWIKnkaZjLilNemkBzohABMRldTAPG+uQceeOBja2tr1+k6l4FzeQ8mU7YFnrFXX331RkdnbWxvwLWwb9++U9Dbn/zJn9wF4//2t7997cLCwhug3y9+8YsHH3rooXuwcTAtDJS/9mu/9n9F9nkJOF2paKhgvePHj39Wb25qf+DFuOKll166/d3vfvcfSY1r+lDLSC2uL/Xtsj3yDxs8nRg0GP0Q+6233vrcACrZeqfTeRFQ4CWGxhR77KRilfz91VdfvUl0DDgX/+zP/uyA04x+4lXjzUePHn1ab1z77ne/+88H1D07GFTcZAvJYxxhGdc3HGAHHN7ltb3AmbSfMQ+IHQ6qlr3zne98Ql6ypg6p8PPc3Nw7dM3eBz7wgVPEgPqAw5uwO7ixQ4cOnbtw4cK+ioepApC9bwbDSiK1zYOuvuc973n2O9/5zq/USLzL66dzDzq2CLyjhezfv/85OaHaGv0rSA3Z0TnPXCx1itcQAIphYvus4BG2vxeZAw899NBxM5pOnTp1NBMEasstuoDn53/+52dbcgqk3rnHH3/8Qw7ll9dP/x507H8cUB/96Ef/tQKUg8QRN1D/ZaN3G4AmBZ4ONtDrX//6l7kHvMHCxUXgYJvccsstr3BBnAIRQofhGvw8g9El26k1x8Dzhn572e75qQdMx35+9dVXr+fcZctsDgIaAvcY/5lrtLmfLs4Bvveqq676vgExpMGgQ0qX2zx8+PDzNd6tpjdQvA9gOpHXdhPWcInjdLjsdfupBs4kxjduZgz5IYKX66R8AT4naYa5p0lCLrqfVeJGOBYCcPAYmA756KOP/vsGkdwYHFUiL/zOg8hLsTIIB8Hfjntc0me7D/ry2hwJWDzdzGDPKJdsENUs2MeoZ9/61rduGYGGUtyfnATc07rMh11BVcOvrT/0XnvttV/NPNiwm9NBBSTRbkARHPzw3KsiuZeJ99Ldg46nLewGXM2yZwZOk4G2FA/sjvAeO6hne/fu/Xvu7dixY0/gtAA43aNHjz7Gi/yR9OrMl1T93pSrdNwmnRtQdVs5duzYx8lc2AEEcHltDg+axx9//H8ZUBMJqhmAI/wxhjBGuFckzJEjR74BRo4cOfI8jguAM4OPGmmDfSPjp5L4B7h4/No0EWAitBMTE+cH4DLLkjx43C4HSy8dAHf8eUGAsh/mBwTMHOo/WfxjCl3Y/U6b1xknGp62CS6I8c2Ln/3sZ/+PMd5A3+uIvD/+4z/+50rQawuepePHj3+C79gBBHF5bbaXNH/wB39wb8sME1PZl1DL8Na2yLQfBjgd+QFWCa3gwJjAo6Y4C/Gb945IP8xuWMqX/pWvfOVm1U60DXItwG3GcM+X1xhpoNfrXSFJ0/a8V3EeUG/Tws4dRVilc/r06V+Ubb6A82GCVASrX4CAR6z6NMk2CK8B4AG8bhtIS/KKLqtsOxbsnQg0u2XTnG8JmlnqbWRKbKV6Hq519uzZN5JNDXDIlp4IYmdiYn7v3r0/Vj7PyC+q1a1L1WFTZPe0Ac+6gqSX03N2OGg2NjZeR0l9y2A4qtkcVcSJbJaYxsYKHJXbLFJLVgBn3759PxoxcEo5P1ysJvXBPBi7pba1sXmW0Hcv1/XsXNBsbm5OP/74478xQChiUWc71SJtZuTPgS19yy23fE/Aud2Ac37EwCk9FGC46667/piMa8v1qVhT6JBEf1tkV/fwdvzoRz/6H3cAwVxemwUNFKD56le/+ltSddqAZvlDH/rQ/5bRJvoCqEpMnh6XS/rgwYOveInzVhX4jFri+DX17W9/++6DBw/+NwVY+2ycGDyAoK1IR1JlxPnltbV70HFnO/Wd73znnyq42QY069i8is3kbOWCvn7wgx+8+33ve9/j8rJdcsApJcfJ8xHy3rgw7m4CSM7Ay4EnuKqpo2ipsq0QXFWR0mWwbM8edPw5UjgmgmsdbpCKVpvOhaS54447njtz5sxvjyGrpA84was2BuAUuWlIGBZimmAljQqPHDnyFAVzSo3IgScAT77zxTYbTo24EkIvB0aHY3xDM88LFy5cSWejAXLPNnA7Qy8190gmyn5o7Atf+MLDmAQwzR//+Me//NJLL71/RNklaeCEf8YgcXgAV4q9dOzYsUfpBooKhj3y2GOP/TtXa9PJbbxKZdtseo80cInsy+AZkPGN4vwfv+h2HiQvcZGYYkJzKDFagEGNDBkvdOPkd5g0BE5sEhVxVMChQjoJHNzRdDwcUcDIfp8i29o65gAYHAT0bKPalIdMXK/0HS4Btc3Gr5LPdrn91NBEM8j5T7LoiqTOMW1BQz7YZypcz+ZwugLVH08XdjPSSWkxaChr0N0oJQ62lrmjTVV7i2UO8LBDROGTYp4HIhfu1ltvXTlx4sR/vv7667/F/1df/foLFBspZSYFnvCzgN26CpCiIyTeZRf1loKmw8+cqYq/2to1IWajdkxVwOygit1www3/7+nTpx/C8fSe97zneesPcOjQoRdHmARcxHG4Hh7oIuXGctUocx6C0IqHEqcvYjZkXJMNbQ+pflghW0H5cXuqOAv5bAMUN/UAKbUUUQxgqwgpfpYq+6Gre7TlO+hv9f0ORWCbm5szykEbJPN9oUGgM1SISoVfP3DgwCt4U0+ePPkYGcwIAWhshHsXvoeSGPXkmOPnkOR55513/ik38aUvfeljQ7hzC27DxqFf2nehq9LHgIdCFwUozzzzzG8cOHCAvtTLetBunUvzTW9609dbSp61X//1X/+/t7BvQZOgXHC3szdwRbLEcWawHxTq8T/5d1Qaqmn9NdrHnZyP17GfuWdpMK1VNGJ9FfRX2DU0R7fOsg888MBDOAOgIa6L+u9U9DClYEitI1yX/DgYPeYGahtlBdMqa+4dO3bs6SFEXLgArmZEJTbT7/7u7/779fX1N8OFABS92liW0UrXkLe85S3fA0CJys4+jxvicoCuOaF+Z4As6s6QkiX06NIsod3sCyABHOzBnXfe+XW45a233vpDFUn1bKHG8hrq7cGDB89j/CKZAdiFCxduwP2KVxI1mL2UN+lqm1ckQplOzH5pCu5BnnuSe4H4B2nhRCcb9qfuWuppvnrHHXecRo3X/t5GhfCDDz74H/X8UzBLGBBe3Oeff/5/HpDxFHuljk1rOAgMOF3EIzf/wQ9+cE5u4mG4zlRIgruoitEv4LlTp07dwyFz4LgnyVdikzWz5OYvfelL/2uiuXVfXIeNYIMG4GZWv9M0ny1HWCn1KUgQN3tlH55DdHC4HwSPREdtlOG6ar3rpJPz2txVV101q37dPmN4w/3fs+xc7S3vP0eGBfYEBjWey+PHjz/IfrO4PkQDgwJ0qK0AzwFu1wjq8jv6efrJJ5/831v20rO1xD3WlcWjtuOmBiC4odl3WjZjagAQPdsuvkvmxzzMyWWUDMIM+X+Gys+4kK3zxBNPhJ4DcDjd0LBcqOvaTbHOw2X5bkQqvx87dux+U6ESaTh9xMvYhiGqRlnn4Ro1qkASLBwo9w5DYNlAIg6Kg4MoYQZHjx79PBvLYcmjZPOEgiTBYQEjQSf/zd/8zQd5Juw3ItEQNeqo4h4rcf1JNK4iNqgNWH5ekS08pt9HjeG+0AaOHDnyLFW/3DNEpuFKe1q2IO74s3JOpkHOZg0JgopfpVapWtRahk0hodhLrgs4eB0XuLVz4sxhYF51GwQ4MO0777jjZZVOPw09BOCEiraLh7WeKZ1uvbgYHBBV7Kmnnvp9EItacujQoQUAyoPBiaOUiljd8QHVG0mpGAI4rFVsCB1O6loF9+SQ2BfiCRxqYpiW/92INjSuQ01VQuCaD8wCNKkRu1A7KeOgzsMXYnFd1arwXRsQu80WMsI4dOjQXzSoZVlFbSI4SIxO5xvOOCHJgpGNdMS2wmFUY1d14niKvFqD9gvgcysEMTPE7emDvZpWASSMZBm7St0+PwONvfnNb+Y5V9FkosTiQc2P6+yccXMDROurtst6RrdMlExJieJvgAfjDaMeSUMAVP2yztkhwv2Uv5bLnJ60mwc8chAMChwIeFaq4X7ZPdOmavEa94LKQWBNQ7VMYtgBr0bgncfjx3PxvUgfpJJlTtjnsGm4Hq9TOiEvYZhgBxH4VBEAYracMiHe78DF8KQ9Kr/IBhcPHDjwNewqQIc0QKqRjoSkc3ZiT/ew5CbtLXHfSE/sCehB4yl36x467oy5l2s1ZmOYOUqLSJJE2X4MnLA3vNeFKELJAYwIJve5z33uz9WD4LjLWxvUngufg26NwWCjWnso/jgjnXCDzRqV4cj4Qm6eoCdd4kWwwQbAcWBcGfWBm3PEEwNnilJZDl2euGGHXS0AQEANURLvQU3QHsw6zmxggaAWABLTHNTHOHB8vgPCguvq/o0BTOn7jJBfYS8U3/DA24Bb+/QSGBkOAfs79woYI3Dtlls/6WXkOxPzLKcBr2pieK551FcaXfBMBw4c+LIYqElR9mGW5+A5OUfuY21tbS8LJkG74iEaB4bnO3DgwN+SZ5bJXCkBVSYA97gGE8Txg9aChOTesIH4Lpc5MrQzBElsTBMPnu8d3RXXCJ61mrhHKTOAg1D391QHeFtddGk8ROjW8tzNIF7hEvjfjx079oKzr/okmYsNDGJ8VqkI5s3yo+6C2oXfnuAthEVWBVyN+5aEDg0mIBw9T+m5gzgv2yqLygvsu396dXunDIceOUHoK/ejODCIKqlodurZ5lL2nE9jwlXv1NYuf0N9xJHiVM2e3xeCgIcPH/4rSdO1EZ4D3PxoxvkS/pfTCZCuwXh5fp3HHhjavffe+6cklSZqd+LvM49jI+CgFUn6L1uDmKLpuvLKVlEpIs6f/UJKlmWILYB+uBwSS9Jjd1z1ibTB7jHVzQjOBlUlVAGvR1+JIa4it0Eb1sWrJzXlHO5QbAIOBDsItRCuKsMybgbRlU7Pd6wTV/Bqhqup9/c5JydMfO+9o0ePnnAepU4iuTXYOiIKfx/TYniewO0zq6iA3uC3uigDL0whEz/DDtsN0HFgIOnVKPC81rKbxjeKc1jBU+b2MKaBwExQn+H+2IrmxUSLgQblabsh8TzBuaN42QHUPECWGBaVXDBJaTn0jn7W5uQUk6A5FDYDTlMT8yiImS8RgVinkjBLBG5EEifgUByn+CycFWcBHBvXqXz3OW9On+QhLWiA2o4Uh1vElcv9K9j4Fu5NIr4uYNbFS+i+b9k7VVwqffF36uXV8CG+93l1ngwHDkFAIJFkAjh/yV7FY/UgbsovUAFV/Fc09QPcRoxSm9+sMZSbrt1xpfGMFgE9cI+odTCVj370o/+a51GPiGHBw3SMv3DZ8kng8NxiyHD8aepvZC/P4lSQtlJ6BgCDpkM3JDdteoEgJt/VQNrQSOZ282Zi+5qELoCjpmtPuqYduQ0tETOfg0uzgXgzVHPzrHlx7rvvvtMQpXM5hwcizsBDoGrUpPrE4JnxNsYgB0VMBW7snAPFM7qx8l0XdY4PtANjsO9EjZLuG/72xS9+0bxi4XpweV1rBoJzg5HW4IBeopnkT9z3OlPCmEYWNd7rWuDTZmIqZhSkDvaM9w554FDDEnkY7TunEnMv7fm7YnQz3MeAAc9iEexVTmF8D51cQ0vAC2BgJoyDiYaRhffAvGDMzvFhIYEfcr0mdTu8R0nKQXXXmI/JEnDYEE0VWHHR/ZKESUkdAw9oRGQCPjMieUA1OzwHmCA2lU/vh/u98MIL/0pRc+I8nzB3bR14rE/CIAclNfHaHFAtN46AGhwbsY43KkpG7aIamO6PjWbGPRxekx+CMcnzC1QFo8EzYyqht0NQV71DIZ5HqbWGU0CcN6WnWysjG348JxUvqMT++wFidH1snNuRXuyTTTCrsgfmLjbsHzh+g6rpAtNZ4NgYQ43aJBvkUVR/7lkq9c3EwWAU2G7ck7ydT8K8xYzOwdQaBMILRmPzcNEgnKp8cVqBBwDEDyojUVYJHrg0n8VbhvjkQPB+mCuT//F0UMDGQ2FQE8PByITjmJ7La4jgigcrJJaGDbU9qGWINtNxJ3Ba2RdzzmYILk+cEy6QNi2GEIgbrmQSBZ3b4jnYLlJFDaTB7Q0RuNSYcB8QtTxGq368YyY/j8HDn6xIj+qqHINDXwUAMqKv0PxMk9bz7plmTpw48VvOzVuosxr7kgoXTPK/vnMQp82sWnuVzjf+mb3C+4mLneeBZnBiQVMsmBjmAV5PHB+AC+kA3UFPqJaos5I0jUbGQNNc02J2nI0zYUoSJ7wgvXEdCRAVEtV52Ext2EOah7jueVQyLsih8TdQzEMhfeAEStU2UboOcHlYd+2+zeRvLjOh6SGtA8xMSlHhgJDN1ve9sjGut/c5jr4mVZNmEVcCHA7Oql7d/U/DzdlXy5jgcGxxSMq+DfeKCsS9ojZnOPqiU3H6Dh1AcD04sMpFppw0Mpt0WaBISTtbq+yJU4c6MSNlXxTzaqUyw1jqaqYADUFfsi4iBgLNLCERoCM0HtzjSH72F62E7BTrx9bQdi3RsrI4wojNqOSmf1w7OqN5TQBAywG6xetwWnz/cDXEHCpahPbguWHTMTx5SFQjJX1+DQ9aBWewpLs28YOg77vnCdw/steuUIwj5zLe69STQHwQuwoAbVMDgOx32Uxw+90iriW1yiqAI65t/RVWeX6l9ITMaDq9SDX1ts866krkWOkkUmdKahZ2ifLiwnfgNeO5eSYbLhYznCiYOGl2hD9LpUS16Ye3jD2WUzeN2UiCL1k2NAAi3sQ9oZqhPomuQowKCQYtoTXh0ochDdBzL0zWsBQizi1y7fcDh4vDCSSi5hQpzU2CrgwuKW3FiozmpJeG5Lz4e3g47B4yXZFIddnMqiN6roVhugrnMqMXuwPvXhSttt5fqwnu+BgHxOdFJEHdIcVDNlNyH8QxsWX2ifiXraTXAWdGXrh1rgNoIAg4HnYQ10V6SL8v0mWwGz3H5mfsE/VcmPYSzb3ndVJ5wnegNrOX3KfS9XuJfTNbrFCVH7+4l7sydlWttFHQN5XUWewjNMAe4MRAHbNMBqSKtzm5N/ZUzoA5tBYkELRUE9PJSbnd+q7AQHF4RYDuB45cvvslGjfgTui+UnFyza2zoOKgAIvE3iIHqxFzVWKzqoir8K4pfaSpd82GAoXOOxwEfb6QsBEnvcYNN7LA33m9rwsnEuEFAobgve7r7xVClv5/Vmkbc7w/MZh4CtsPlUMJpKaKhug4agffLWP1b+yZcEp4J47aGa8o3rAnBRzep/qrQuUzd3hoe1S2cUK6fxSFn1QgclYjzDsmyZw3r26tsS8NHEFMtbjewgSRlCv2GBBLms/CXDirWEJkbPT42qEcgXuT9xH6X3Z2WPGZGDgFUWpzjbtBnPN4lyq6wxceJw4alHL4ZAZAbHxOxmeookNvjmyARtzAv98l+qUOx1L3LVg3rwTPUESmeSdrygMrXZ/DwhZB8rIEmvDMcoUWKgnZ0Cl7zBni65aICGHK+2aB3uL9sgN3GXhxsBh3xotmnkCVgIRnJhPDScyuNQY3F2/GpTwpbuqJ+OPGrAARdi42FmeUyh/7piL4eAaNAarT5StREmwuUL1cE0cpOR9yzBVGoRZiSzgxsENUIHil9nN3Q01pCuDjRJFWYKr6Csw2db454HSUSBc/+IJ15LTU7vizHJbUnXNGNHJTf1LxHlODVuGyqCQZR0AdcELmQtS0MBhyVqdCgR52GgSrXC9TLWZQidCB3QGWrs3mw80iRjGjIGOhHmKbxNJTqgz7Z+kwy8rDivcrqT4oG9e721dQSwEf+ytJu4RjxRwWLss92F54mQBuahCyus94Ffesl5rsE7/nSjBefvnlt+Lq5XvMRuG95BMCcjx6XFtEfTa2GZUpXle+EjsiSnEmmJnOYlVdce5BXYO5w7BV4pFr+tE3akbB3BIT5vsjbaISOB2zATJqUHDPog9HUwIKicPFAJdctpY0aIVbljQZirJ4yEybqFrg6B4tNWWDw8SDgmPB6cF93F1cHaPytgqvTt+BSRUqba6iyYW3D+KVpCkGZpHEWNPGtXQtXSfOQevBaGAA2IJIA5UaXxNVyJ73WRwwD8CFHWMMSjMtPTEvq7yhUf5Wr9e7QjU8nqMHSanXZsxYRwpofKV3HCy5gHGT8y5JB2xgpXqt+6lsYtahBgo1nJhNRd5lF2mq6ue5VJ1T1IWpEXCMm1e5ezfQ12WvzGRubgY0S+1btAgsxjWHjEqnoFIqel0JHA7FMhZYeFpS7a04SFRE9HFThSKdPwfM+MBmiAdEUnjDbCQB5uPKayrtG8mHiRLmLHAAfYWhvSo3tI/uF9JeGc4le4LMBlKpiEVJldkX3SPetd/J9PVuysimORPONQ5jcF/K5DZGHOIiLdzD/hn3EP+zWpyIuYeMbhgKtBVpMv55ujBXp1ombWKfDVIHnMkIOHVFY9zovJCZzTdjQxGjoBvDG8mgxiBWE9PUvrH7m5I6uKTM4VOpuSkqsHpWz7GAetayNLz4PlSeRKxijWfggEQYvkisWM4rU8dRjTh2VzRitLhRH1GxFLtIMjqi6FYQF7WlZc7Qc0ilHKFUrdXV1Z9V2TRcf55zjlUkVF5x96B1kEzcou9diYFB0CrluOHhhx9+0jzAOJ5k28W2s18z2N2SWFmPLMwmopU+4CSJhYuLe9Z5SDbwd7tExRzHCgBC1WCTMX4hagKh2Bkt+j13LE4k7rokA79PFLu8r+AhwgU6gIrAz1MqayiVNKOKAk7uHZ06tz+SEElAZvbLWizFqvIGca7Iy1P6rBhKiiA2VJoc4kwCmP/+eXnJ4gyB2r169dVXb7IWY0YPCfU7qHKye3qUItf0GMjZOB2TmjLmz2KL4LTJeH5jNfiWOtDwNxJgEw3ca4ETxCuepYbR+Q3UEZ8aXyPyKU2+5uTJk4+QGEqpseIVTQJVxQaiHrF5GXfwjAx0Zm3/PS5agTulHuTKGQq1MBEctNGPoQ+aOG6SYF3mdBUhlq7p+t2F72SfyCKOvGV9e4wKkvFm9RTf8R44X7oQalyipil9RJu49iSSQ8FuY1Jr3mnhnxvVnh4I991330stgFOcE6o9DhkkAjE0AqQ6/1r7jHtX+X1d7C8El6scC1ngsGLXa806X9HeJwkgbgxDVTX9y0TtG6pupc3MvQ8XI0Ez10HFi+/wHhmIJ0jziWy14n55rlhthfP7IK1U275BsDgGXGlFk+cq7hHpzAHCYHgGcVQDfgrolgEdu+hDww+XpBhausapPHgZo5qYEjggUlS6tUTdjCWvopZilGcAGEBLMFdaQlVzkE4U4PwVEm+1x3PkB0pla9oHcFrexCY9K6xfwfRAwFHtS9NZjSuDDrJlA2SLzKNO1LUJarOkAubuaUopHStKq7ghAa6uNrzkFMCr6EHrDODlKOMg1avORqCknCIlFdH6ptXsa0k6qqzDGokskyiKpy8qvb4ikZu24vR6f0/TgMLSfi6UK3VLxKneDVXDw8L7UsHMxDMF0HBtBVdXkbp4bNvOAnWB7Sa0vFxHy1XACRdraOeY6hIaGTR4kD5isclwaumzJWM6OBQcBpYFbcZzfHCqU/Lifc1lHBTPYq5o7Vlwv7MnEVecRmW0jp08t+IzqdT6eM9Ch5fEe0pg4/ux5/BckQ+mEStxVW83CnKH50pUmcZJnOuOqBrbQRVqexY0LtiKh3EV00HSuy1zNiHQaGQMHsjUPjQFTtBncbE2TGsJwGnZm6vYJDiVDie4KscwIKhvwcnVFMOIZ4ln8LYWP0uV3PCZyz5+Ekmp0EsBMMge8XZbB1J7h70AACAASURBVBtEaTNBImB/EchUt8nwHvVxu0Frv6oYP4szAmkSpeJP5qZ4J86ixP2j3LdwhkrvKT4jCfaUb17y2Yvly16qNAFGlc2bBI2qYcO11XBwoC6zct6EFKYm9jrXqtN6KoHDwnuh2pc6g2rRF2y1AE14PwSmfmGhvmUrgOMzYM2AVm5WYZNweCQZenUG9a7KQHcrrqKdksOipGeTImOGOwem+NRZLQvqBY8VQHNGfg44dfsd3ifnT6lPQayGIa3i8z9yMRduEHW6ar/67E81NwkZEqhng3YdhbZaDLha8ilWKUDngFMiaG5WOWFLVSiFGw4wf7FkfCqLepX0iTE3GQ/XVK2LF9/zTrXqZIBDc44TzonRhJPa6zOuWK0gRAjDPG9honHaIRMSTnlvIs+r6X2UCMC1iSqIJpqUx/umUfdUimCZEK+4mM/Q55ABTkfhBNqHLTjHU2sV3jVPqStDCWdbkeVRAk7qRkoHACGpojB5Ybi2MgimBgVO6Mer5nhKBx8XaOy603qm0HIKwlBNecmzpl4Mz/pgIcFDJWvmVJU+1Un/d81TpnLenkvWDDEIJWDatVbYW2wR6wuNxypRclF17eyeyzFiXHgd5pcIKYSfuW8FZXuckfpSjNK+if827ToFmV3VxqYqXRv6Ukl1TnPqERds0Pi9Ejh9D8uGqklGbGCtqEJwkIG1xcFILC8SL4k644wLOFPYFW984xu/jM0il3WfeghwHnjggZIRjbokD1wV8eaIJqSmkIxoKhsc1VzNCkxiDJ8F2OrIf40146ixLVoBh2d2wFnDLZ9pfh/+516UWHnOSh3GeEZdMlJMRSVOVtG3rwlou8TdKnpVnCUZuCkdVwGn71BArRIYLSN5g42MXJjx95knqA8sDpQEW0NtDYG0AUZyDAKcoIYp2TO0HEqBmvdIOnhOtZ5wyTa1L8LvUn8DcDQlIrhXkWSaLbS/gcs2Bxy/97lIunmszOjvKYgde/di9/ibVZ0aA2zk5wNQCY5zf7jOawrfahmFPKShNUAEmoW4cUoT4DRFrK0ZF31d1EjtmdwDaCbM0UTXHA+cPZQmAxzXKG6c3KzT9D0EChMu+V6UFh+PI7kZF25FS99JSZw1ywqQxPNu40rg1REPUgpHBDGoBEF03JjIgoiQ9hXT8XIq/eQYzqITtSwLmd7K/OiThF4VdtMAqzIrfClKKMhr64xqApw+Yld6RXAI5OoVbFHqar2BU1MCyFQ2IxCjcwukTZtlI+P9RscSp3TQ8lQtkFmQmMtS7I+e2ZwAVBp+nwCd3NIpKdZUMwi/O+/dkghuKgMc72laFuNKdQFqow5OjgBMYSn3LjRzkeGeSusKZ4VtjC2YyX4oNAh52MK0Ce13E9u8MyxwpsxIVLO7yk6QSBrKlOFm1t8rfr88TT0VhbV1MIxtieOlRHsvincU0kYtejfovpLphd0xSaxI9krUDvfpTAviNsAx+yU0uVBzkD4vZQI4PbIfElnLWwWYyeh6kyqBCCUW5Kbl2kkBFhg5NJSoWi3Rr/oHLiDpEzGxsQFn2spLld9VetAopSQkT6q97rwLLJX0cKV+rMkNve2AccR9U8Y1vJ4Cjur2KW1eUC6WzyuLV1Ar4nZU5JmpWrQNcaaIehq9HVUnMe7C2zhxbON8PHZkO8+g9xPmFTpxKoestDfso5jvUqoVbrxHruCvp06qrRlBU+D4TTfgrDm3sbdXdklNOIvBb+PzlF28iG7vDqWrVIglsl1HNA1uFAcWnkWOkI0GwPH7E8brRUZ2lmNLFfEjRc7ngGN1TWqdFTtcUt/vW2DF7zN1MX6+YLtCiNbcfDuBs/mTJiJ4czc0YWEmSi6lvOA8JgT3yz4R61I5Rx/z4u/K3thA6jcdMhADp+mbvcQJhry1OfIXRaKovVSo9rT5jLhcQThpNUYYGrQbsgWoZxnhbPpRHNhMopqyCXCqDiAHnBVsHPoEkM2dcoli4KMaq+/cl6O9aqJC9QFLDopcXGOZYjMKDlv2hJgc4TkUzFgxmM2IsYTxMcr+WKelMswX17UY9dlUK2cPHDLCtwo4HQEjN157JjJ8rduMVUeS+Bg6UOp9vL7iO/bvgNXVeO7zFcB5awYwbQg4HCL7oQ6UYWJy/BkIV8HKEICmnj6K3PtrBoKqAa+B9kNNUqlc37hxgmSy4nWbj7RmTgJrF6VGjqZuhtbDeh/PtRA3UnTACaqaqnM7gwCnNQfAsBUHWMOLFKV4h/gIgUVuDG7w8Y9//F/QjZLuLHBYIxDlZPVItWnjQx/3ASqxMeUUKIxoAb0SFEhfKlyjHL4UuCoZBnEy18g9bkk1GXci1ZS4nPQurisPYGXuFpx5iOGzkyM4j3BN1FObtEDaEXsKHWnCnc3tmXVNUoLXN5beVqYAE4KGo1Se8QJHvdPeKm/HiiZIB51eDcVD/2hsF1Q1iEydOt9gMR83caDnO8XsBODIaK7MzYuno6UAwWFju5EyUxXTSRG1X+rmY+lOPTqQJt7bMVsAtdePRsycITbco3XAQc3eRk2g45mQS9Rctw42BGNJAMURQnImjAoHCylUiZL6GdHlOTeXqG02/8DAKcBjbmTXBzh0XmSzQbXqPegJ9qIM2inj6EppD2n1OBB2Cmj4X6lFlcmAep54X0rEDLhweWaGdeWcBn22koATVF++LzXgGMYkIKxiu2QkeAyc++tq7wf1Om2OHjzmSAoxNeXVWYZ6yE7Be2sDj5UGdrN1NuI9JNCqQy1DBR4cME2sNXD6wIM64Go1wsiGMBP+ImBsXmfRStU644ujh1R5uajjaPV2rWnuzQ9fSqxV1IOoGUVS9UICaIzJcsJOqAOO57bXop7RehfnQSp7V00MIaolgZqmHNck6vGL7wWANRW+Owk4k1H7qznnJAghD9e6mO6kTwAS8v1QNXWuwYlAfVWiDfFIgZNTJ4rDFRdAZVuDU3OoCqydNWcAQUHXt8tmt2DALSo4tyOCnthqKm3IcmHrqJlqdMfzoTMz65PD0t6sqRdaaUxEG+BIkt/EytmCeJNs5B7AxttEeTd2JN7PyE4Jy401Wa1R1aZ3AnA2Nzc7PmOaoVR6LmuWf84XHEKXMBHOVcx83aZwDCNtmgCn6kEKLiAjPzSEwBulOv3Q94xR7OielipB7pdxBjjoDnEKhAXXkmszm3pORWwqtgFnx/Olns+zOEJU7xM8QVIN/OeacPG+98QN1O1nRcNDnc/dd9/9GoOXrIOqGuf7RijF+aEFVE0ZYD92wBl17GeAoCl+4d4sG4Vnw84hu8CAI2nzOjexvDeqsMcgwMl1gQneDAw4bXSIXMMFUH14CNyuCiqir6/7+ZQ7YAUOTNzCGuuROycHRjGfhXZUiaj6tA6n8MKR1euDm65fchtDu4mnZxqOKu9SmDJAfQ8Z11FQ81yUXhLuAw1BjVLCzFZrTWyeKnUh3REawaZSuFxdDU3RQ1Yzr2MrK1l4CRta84Wukd0T8gFr5i4NBJzOECrbtOtNMOeKnKZcD+kwG0arh7fJuXR3AnjC8wAKjHGlztMQ/mbUHpu07OInM65xRFfBRO+JC4354l4FqE0t01kqzwVioZOpV7ewq9yISNYCTMokHv+7gUtTOHbE2I5SA4PtQ+TdZtHsoDOa5H41VCx0cVXQ+Khs7XM0G+RZuG9XgBniO+qgNJJUolEAJ/wN9zKN5kzHdlmsMxiueNnE2daNiEbZBmpUwMn8LeTe+UlrPK9v/cSziHnMV6h6a+qk09flsuU9dtzUBT83tM/7h/R0I1XCdwAOPH3OMzilQjnLL2yzN5NbfT6cg++6IxAhZT6HWWBBTySszXkiDta0urMJJoYBTt/DuJmJFlkvPoeu6Qa3LmVGdG/3SnnIkoaxso83olZWZE28HcahpoBxAuUG3p5E0mXbe/POmfcmYk64+b+P7RkP8bKRhceOHXsh7qNtYxUzDoq29zs5LuCwFAoJDArJDkhig1/qc/CySdq0HWk4OW7ghGUDh3ggRKT/nArCQjaB8oN2igs6u6x7ZaoJCdyamAr6dlzSi/SBoNUn2bckWuf7MsZ205qQEgGhkqCu+GuQ9eC6XHYSWcSrmbHlIdbhZursVMY2yX1adajGqMQB32lpOJR4/I3cz52dApzSw3AQNkYdu8a7bB2o1lxfru0+iMrnkdNjHodB3ICPQC8HxjOpWXncmrbLe1SfY9PJznu3tHF4mIgqaacb7H0MnF0qO7eRF2ejbv3FrFEFUnEaLEtt6XhPHR4q3O0KZu9o4KyXnQTzkRpmmSmL1m5s1C71kQKHJT97cBI4cFi3/3WcAq7KcCcdSt/zyG55VCXFvvIwqKbWlJ7SapevV1J1kLQUh5EYq/EcxVBbO2AbLsx7q/Y2eq0EHoDHmEMFBUvnpmt1iXtwNjyPV2v4uzIPjpKtHhWC7bQz6tj/rrd58K6lSq7Ja4uy+Jt+/0iA0/hicCtxv1Vx0WB4ijuEFkQ7pHygFjjKXD4ajRbvRBnUcLXlyGbrI2yf+SxCnkbdUNwnZIhDCJkU/uChTN2j+74YKKVnAqCoyOpn/fkY4JrSNktjkmhS3U4DzqQtAK6gZ8+PLaSOSF7FDcaJDDoTaRxxnByxhS4tNrRIyY0huVMPaM0Gq8Tmdh9UQUy4mNXsO9gN8TgRDsoODpXMFY0l1Rw/BRp1Sq11zYGwkeD2rCnUkKidbun7/fdGICo4sJtet66umMVzuE6XNm7yrBjFTjiPydxyZQW+AHBSbaBCdgEpSuMwC0YpcQw49F8LRhnGG78rgk5QbSEa7DSNeiIVZafU4tizdKMGdl6PLvbK5U6tunk5MXGH5YkbYxWXsPeGsV9xExC8YhoPv6z0pCxwEs8Rfpa+X9TtK29uMrLlfLPJdZd4u5OA04mazneV7RxsSBgdf1PsJhTjpaZmbzVwmvy9E80hCcQk4iIj9bPOVpjSTM15RhsqsLjdh+QJsiuvTEFMtMWKPVWy3QK4eH8m+bNPrUJdVWB4LTHf0zdDtIFNPTfCsPE+KUxgYxY5g09EHLjLjNR4JmhFE4vOdpwNWgtOENK10FpMlXRJxaHvN/tKjJDnIN1rXL0TRqWqlQhF+U+hRtxNBzaOOeXmszynoOBTo/SxVxyw2QqdAYDDOh93sFSfLuPWPj7lv8+A4AOM0wTrlCoTysqdB6hrxOJm3WyIo5aeDUJBYiRso/A/2RkKAgYOLLvT39Nu3UNpakEme3jbPG3nLzZ8QWr2KB93mosBHxVzkWxuSfINanPGpcmMSlUrEYl0f5+u3kOfj2pSZsimxhhNtFEa5UPinNjNxkNEuI4hfsVmOi2BE9oneY4ddcLfQLpmes3RcP0eVwEb7g3Cp6uMpDJM5FkrruJ7lKwZvpvMhNh2wXtEHMdPW/PXdAm4lrBZOGb0+U/Gs00xrBPAyXn4ulKfjCHlGFZbWir9zL1qXCT1XSte5Sf1SaDiOS3wvOFGp+xo4PjvmImmfa1qPHcpyAdhZHp4DX0fgIXNJUdL7t4FqTzBANZ49/dGaT8l4EiVitNY5pif6fVs3MBO6nhbpyAknlOlFucleUvPqW4t73XNxQMDQgKZmoXXzd+na+T4t9FA3bjkI9w7zMvvtyYj9M2MgWNHOWolD1yv19tDSAHuzrmSUMlCbUUq8hzczyBNMKreyx4RA6S5pX8O9kmu9kLdJDidqNLd8cCZJqvWHcZSYjRFnOZREqmoHgOMci8+SzxJaqJlNlsDh4KzosLgbs54q7rYZAngLH/605/+Ve8E0CBaa+YdvIlRCn+4J/UxWODeYpUq0+t52pp0ECuKpoTZ+JVzEFPc89mpYEVvaJUbF8Z1pgIU796LmcFZXbSDu+666w+VwGpB19DzzGqPeB1prQG6o9Bk/NnaqMTSe3x1KIsM8QFy08YOnDoboStOaYexyIZnkgineGiN3AuHz8bAedXba5CYzwxEBQdE4sCNUGnwTknfDy1VzY3p0v1LBj2EliCsFQGniOkAEsVIimzkaIZk+D7UH7i065ATE2bf/uJxxIminLhSfTzXRf1MtUCKOg2F+47HvEcjRQrHgPY9nuMZqkydQ2PDRkBaKzAAg9oIkGGUNYZ5Fb21Bhv3a1krLMoqMn0XdjRwOvjP/WHAxZBC6Kkuyj7thjstQ1QEr+SpWkbctoz6+vsIY9S1Qk06wNSYwbfgXVIp7TIHnSry4vATnW6WXdlEWBqc+8eeayMhEin5oeYHAhRDSHX6TIGp5NBAmmCryV6y9Br/melobmmYbxqrxZJmGzWDYwv1W27e80gbng8QYUNhnMP8cAo1GPSbo6FCquHAgCGwT2qbdS3SFuYaZVd0NVx4D9LNOzkEnFLq0U4AzmQD4ByOVQAbSiTPUyBseeBMxC4roBgSRZUu8SvD3EfOEwQBYwORZoLRngheWpOMvhaxLq2lkLBywZdcumrXWkotOnPmzH7c74xHcV7GFGiS5wFhalpE6C/gOwzZUotXX8i2pqLBUrm3PIIlxqD0++sTAJ5CihM83bjYBONa6202ojww71gKVbRWXyOamDOvmX0GJghYKDGQc8XKKzbuu+++l7YKOKNYxUYrjyjmZgtIHJ8ZDbdWdL6vnmQIiVMHoIJIkTRSdabiv6tgqvQMcNsogNhx7tLlqMz6/jg51Fr+KhvhyURNUhbwZru562xY21fPsWVzea/msjWBjFWvhHNgwToWeYKWZA1pQwfTAdc+GsiBo+ZvMyqtT7Yedg4SK/sOmRvx/KIIOJ1LxTnQpwbQfVJ2TJ8olz1UMtxNhRowvlMFmKwUiv/mXbm2KKd26kLxHa4EecNlAdjUtuI6EKsVVymPqqqzfkzoe11NffDgyelSeha4tmJkhZcs5a5GXSTpNiZOCvSiYWFt93pyCOBMSlvpa3Yv76E3+Ls8l1zqvpivp5y7HQecOo7S55FCehw9evQxDNJo1qavrYBzrCg6fHiIWTk5m6EOPKXX5QUrqZvqDhl3jOHnaVeNuUrMJTW1DOkmV/2GxlbkPD999wghqPIxNOFgPyNpU3xWjGvVwJ7K3oaJYXtGzCEQ3QCJkZ0hCbT4PM/0gQ984BNRgV7oauP6pE26WFgxCsTZdM9Hc3J2PnCi0lYvRUI8gniCV1HUn+2TtM1FvcHLNWz7noaHnANY+Nmn09gzUGYQAaJYroH6bCKvraMpbbtVTEYg74c1sYb4/mZgMuTQibm8Fz0fWymWzIDMCgcPHz78V3JGlL4PxqRE01LWABrANgz46kRq4R6Bx0rRLVeweAb2E/tUqVvLkUv9nJsle8kA55qK0dgbJ0+efMRxjrAgRqlAqZaknrC37DATXrWey/XqA5/1KANccVwFLgqx4+KG2PFE4ZZuwCD6wM13Y2fxP1KHSH/UWdQ6rTL+Yvnw4cPPNwUOamTUA26rQDOZkFoz2JkwgGiMeqAXq2ZNOHBIZrVG/jseOPbQU3IMJBuW0xNLqlrJaG4JlpJ6ZcFSiAMugzcsXmrmdwPeIL33ypq8tSA51aq38NaooXkfcHgNG4c2UNEc00ItQp0gDV66d3Ft1Ddx0xyx5vbJvHmzqekJABQPHkCOgskFmBnl4YCzlvLSZe5nhmdWrdEe1CJzHbP0+27XBKTbUqUutb9KhAu6uM0renz3xjmobOTASYxeCAme8vLMZdrHDnLzdJ7ZjVQgJwlHAnYV3JUYA3q9/i8Wf8PwRRXBrSkVJwAp190F1/Ob3vSmrxtwNGowzjQo5tdELWpLf8eNrLHjRTzFVDe4qrx1ud4Dyb1CSqO+pa4JQ4G4lJja5zXk2q60YZWaoly0X830AcK1MAaYowWYqW4lUTde2LP8nb3GMeQAUCfNcnRRun8Yg9zWASixh5A8v3H1hBs5cFSP8w0ehE4vpGeQy0W1JCpAJmAXgFBxrWmtENCEg/FdGO9qSbUS9apOcaDNONKNdCDizz0SUJSqOB3fl1JbAmfDmI70/5LUqQpqOklXvI6KRbyKQ1cFaG4CWs4u8+eR+1vys4DAUmYAdULqBQ0CSU4OGvtEnOeqi721V6J9t7SbXrTPRRoOrnwCxcSyGo6ir6Q/mIU19ud7sZN932+uNy5bbdTACUYpUVs4GWARJ8yKaUAAV8T1iz7LIfEaAES9wjtEvyzUDewDlrKRLRV/cwRrQ4c7h2rGfaDymROA+1HUnAyHBaliZovliDm3V6X3oj4qjjUnbl/FjVMAaaLuJN+veaVMzXtOoAlSib3nvgCLXPLz1l53RPu9jOYBo9A+70P6I5VQOb1aiaTjPfxNdlo3UtduVjfPQDdicuZhW9oJhWxNgXMtYwtxB9aJZB5UZa5hNCIPjBRhQ7El5JkLWQQCiU3cGhVgkroxhAIxYT8obWaGw0Tt4B6lrqWyh5uAJ37fDEOIo2G7Tfa/DXDiz4Xf8UYRhNXYkCDJUX3Ze8WBllLZ0xOj2+cFVFRyCJEOeCNRi60Tp81ZkndwFkdI5OSwZ/JawrQypUMsMGpesnOBo7meC7hAE8ApHaqbDuCBEBoWjpjDDSqFlvGEwcUgcKQnKUBf+MIXHk5kD1eBp8l7KsfeN/y+KtD0nR0agZ5jCsYgL9xc072/+mJDjGGZWOo6yyRsCjCFZsH1XIVsTqpadkawrVvGo0YOnJxOnQUOUfFE2kbpZ8SvOl423WTLws2NGCyt/+Gf3rl+4++c7P3S7z29/o5HzoX1y//2z3tRX+UmawmVRT2lX2dT5RKE2nV2ToppNAFBU8ZVBRbskittArMbwBTfR5Ay2HfKLM6O+8jt7zseOffoL//b/7rEPvs1Lmamuq4qdTSYC8aAx9VRaeQSB32U1AgcBJEd0PdZ6aNNN3kRvRjvGQmSdYf8jw7d2/uVZzY3Dvyn/74Zr+t+89+kuJ53LJhR69+zRisnpbjEDTnC8+AVs8blqBiRsd2GMQ0CnvA69glqH9477EJW1AbX21dXJubKFAyHPYz2oIczZt/FEoq119/8q713/cHf/T8H/tN/vxDv8c+//2iTc13RtRebggeXfyaU4YGzW6lES6kurDsNOJOuG+QPkTgVPcLCz4pB1HnBIOLzDN/F/Yi6pB5hpyxDOBVs5dBToEkBB/2a+IX1R/hHh+49+0u/9/SzpAnF95PoC1c8j+r7Z0UI51FD3QjHuv0dBjj22rTKixfc9GWb0NZHbCTQxk3i2Zt3/cHfXYDpxJKDSc0whJdeeul2vGsCjoHmQg1zCsAzDxs2C2lJOFqkIp5rqEnMZipLO1F9VADOiBr79zG2sQGHTc6lpthrNTMoF3A1Yuihs0YgDK5fsoAx/lQCvNIUOKhr7r3rAFjT1G6C6FE9Dnzh//s7VkLtCLUtUWfP4sDwAHopSmOJVLLnCA+zUBPVDNIHBEO74RyhyTtZPBvE7vcpfnbSWGwEyp133PEyf09Jm4zEWeEsKQLEExYl+3aR1gzjUgJsaGiZk1JMvHMOgU5GVVsfocQZK3DCa2yAgmor1IXkdHEOU32VU5szjwpBXMWP1kiBzwg2TkVH3cgBBy4JtzQpQmfL11577VcthyziohcS4FlTnVDf/fC6L+EFRMqUGBVgkoxI6Tef93sA84rGyhcgc1O/w3sj6REWtmH03KsKbj4PMFKSxpbbX7uX59xZJmlN2sRbkWqJJiLFfgL4uCWx3wsxwOC1u1SAE4J8SuNYUzPyZPcTQOGivn6t2yzRBgRjK3SQ8VzqZ35u3wbOgCqpw3sMCLqXlet+898kCSHW95E6iXLrYDcoKFcQMPltY5Q2Zlu+ASngCYzrpsYnckaqWC2eif3IqbW2TzhVAMQvZ97rGVN8rjhXqugm+rmr4GyKPsKsm4pyDLOdw5SCEbUd62xF5sAuUlu4cSXmlbrIKKD1BiVEpjiK9f6qA0tpqeqxZGTWHTDAQppAHCw4bMx1/Xsd0DaJMSVU0fAzKSYexMR9Rpw02Qcc7K5ofOFS3LEzqmxdbyKdjcnYyu3PgWpJtRF16Kk7W8vtO5vRSNbcRIU+4ChYvaFY4vS4gTPUF3nbQ3p+3J8r9EBGmij3KwUa1mLURTJlBMf3YcDxKlItQbRdkcG7rDZRfVIH9Qg1aYzAmUzp9cTOomnRfXlaVG6KaW00kcyDrNdHahoqoaODKgZd7COqvOqhkjYwAVpUYBXoeXBMa6yhNSTsXBISB7XJjfpYs86XeHbUTCEHmNQmN+a8Uv0Knb2p1GmzIhWECcbH4/III2JXIBamsI0bOKhkJ0+efMw1G78nc1bTUiWTDoFh14399mBu4HDl82gaRDbLXs85B4BI2TLnEXSg1lW9ETYkHBlwKonY19WT4IkaYUVVNaDBiPybxHyWTt01kXQui3mzyugdYl3wtg7ew6jKsLAhkDIGHFzEI7Zx/HnZ/9PWoJCk0VwtCpJZhBVUqBEylgtIrji4rH7aA5W/4yhoEpQlBGAMGo8bzJlQwgjrcUbmHKj8cgjHxrdzSApY1kmaIk5inhC4CK5mEjvx94tI46BqrXt7hCqb98YFR0bkarZ7mdHY91Dx6poxjgo8SYNahLZy9913vxb1DCh1qvHEOCKJcyG2AbXOR720k8BHWnK/yk7veJAro6Eu/YdhzH8IrVgsDkfJCCdmjxQ4nZoWP2aoWoJmHWiC0acJyUH9IeApSbVEtBrdVa7d1CgNrrtfBmUSPENInuCWxuMWA109yPqIWQY4rXa/NobGeCngBDsPaYOTINVjAAKNXdYsjPlh9uUdj5xbT9g1C4y3jythI5XWkko/Rjm4VN8iPchNWmiUheCGdK2TkDvCRv5bAxwkhWa6bLZcqxK5weAmuBkZ/Os0ukg0NS84qqaknUt9PxxRRBIOvClxADipaH2AdK7mlFdoScAa6fzJnCcKSYeDIAccAOzUtNJy+7LZZl9uvGjT9MW5CHYmmpqUCFDxlnMu433JEmrtPNVPoG2GAFMN+AAAIABJREFU9qqaRo7KrhyrqlZcAOAwXazFg4YoL2k0HhQCzlLU7/mH0cTq+L47aoJu3ev7roX0KbIDfgKi8lLmAO8TN02qCxjamdy1KVJKKgrTRnmQBTcnUwA1MdVgUYS6VJO06RlLDKTi9V/6vadNysRtvRZospFoy9unWhPni+9HExUK9ZdMAzl92iSOnk9Iuh0BnDpjfUrl03UPuIx4xe2oMeb7/cYquu0b67GWor5m04kGHzMCTyl50a2iWhFJAjh+Eqv4r0sQxc+//6jVolRWlSIBU32WWa52ZNTAyZ4Hki7Vzpcl+6bO1gyBYdTS8r78ech6BlwTP+kbXVJbUZPvv//+ezIN2/vumXhdAshrTv0NewgDkp083ySfDW1nxCXTWwYc+np9LLO5EOMyBEeOGOAQd4yJP7iYfWM9rUUHnGm6OUIQickGMzoY03vrkkn9SqkfubWg1KK+eE7Vxo8BOLlr2us2dbpJIqUvf473ZjOxd6EXHkHJOKfQ3U9X5zxVAxzfvdU0mKuxd5FQ73znO58QM13L3U+kPo+cOQ0DnNoLkNruXJM9SZZPQuSUHtQ0bSikjjKoCx0Xr4kTw+aCDaW4CoaVVBjKkdGTlcu20LSWp8ViWvTbE0mHW7maAGcmMXmt6bJGGDZcdwnuz55ypgAgaoxYOgOkIMa6El6LGacJ4KzIQdCXQOt+nwFESDY9z3xkA61rssNY93hswEGfpi7HKikh8IjjNLpJDNqf+Zmf+XOTAmQl+NoSGj+oQcP67bff/h9k//TN2iH9BPUNjkXLJOVBzWnjF115QltDdB03+KCzfEZ8qH2etlxb3BZrEdsTdy8NPchgfuihh+6B+2ODVvSUYE1Rlq2+BUvKmC+A48bdh2uhjrlZsFUrfDd7Tuk992QAJLYWNcW/tIADASv1IRj+anKXfX8FIUwpXT6U9GoCgNfpr1D3foC1DHhQ3zLfOYXRSswArwuG58c//vF/4RefbwseWlGNcxZLC9DkiCzERNws0KYLlzJR/2vVDGMP0mDjojpWSS8AVeUe5jWjJ/XnvWOHcyBh04Z81cR8cmowCaF7JH0o+Xgq8rqOcp/HNq2geEhNTP6YtRHiAKo4YsVGhdeICRDTSYzsm1RjumIALUCC61S1IPKj0333fYBIK96WKt2S8wRtB3Dq9q8j7r7SQjU761TQNvfThTkxPkVSINhGaAXRWBMrhaCUY1aZ9KlS+0rwcG5uDus6NJcpoLw0gOPcycGVGKVeVBnRycMHBBBnqmUsf6OVkVSw0OsL9Q5vzNzc3DvEgWICyKo2RODf/e53/1GLkt5l14J2J6yYyKY1mbmJJF2iTsp1I606r8m44yb5YaqzWnHOoFk3RrF0n6jviULFKqIt3QvA4bqqvF2J5quOUosaGjh1N1UySF1q+KI4WFXnmzqVo+M33Fyv1kCD3CQRvPn9g7sb5wAcTWn2ud7UpYVqgpR0XrkqYlvVKPU2nWq2Cjy+/qbOMbBEibpU3VTxYEGsByWh2Xv2CjVLU+DmXIPC85wHdkikPk01oKmcetb3GucujWN+TF1tRgKcNuCaVO/lIK4Rpw07K1YCCMBACLS1JdCKZwcngQ1WRXVjFqVGh6zaIm0Hlc917Exdr+RWhogExirw4LQ4UaNqbBtw8Cw2sG+WohSZ5Dl4lfaVV165DtVIWSLmdVtlFpIaDoaGlFq7zaWMZzXKS6sDSO5v/DwldW+NMx9Rj4FKmt4S4GhIkKkIc+q40lGfsj1meGa69ueAs8dN4jJX6ZwajB+VNNoDJ6IEm/iF3NHmSZul73GF+laScujsKuXNRt1pzDHiaPXIzkDJn6VaJbdgarOocg3a74bfv/nNb/4TZaLPSSWbJ0wA82C/LTbHviHtlXg5p3sITSUJememPlQ9T5/3jmfDze1KKeIWxpcmcHgw85ywabgOe73ebbSZZfPIhkbEAzDqcCrcuh44u5QJHfRaF+AMc1SQPu5zDM3djQ1CPwC8clwTPbyiRqTvMAG3Eg6TkseNONwpoLH76CJJKtLzlxTtv7Lh902JicxRBUt4gHZY2JLYGuZxU/P9owk7kf1b0EzSuD9dfN1wdriwYYJ4QrGbLUuea6jYje9cSU1sGNcaJ3AKIlfEejWaXrAaRahDKyM2AsJPTN4qfT+bhtiHKPgMahsqAhkJGXd0cRh8NkpLqQOPTwHKSR3rsTCzk4DDPirDPJm3R15ZjXrTtw9nzpzZz15oekFyhAfELYZpZ7xmTfg1LTsX5AzgxH2OSifbbNE1eQ+TL4glqfYmpOEw5yeaSD3q/dwS4PSN307knFW5QufxwqFOqR3R1RWN2wMQkAjo8mweBAyYNE365ppEy86IiJBuOSfG1QBvANCEe8Zj5Tv4R2uxQRZxEzVqUvuzh/NC7SNzBKmCdMIOQmIgLaKRKqXvBWxyMnxGoKtqxWtACr33aLw4xil+k6METhuCM5ukaVzEALQiu+V+VK0aKRSWeg+YJ2yJzytVPdVtpwlBeMKZVguplLoWgniJEYbbBRx+nsYlX5F3d66hXZbbp45nKlJlrTNncEHDSJoQtKu9aZTIGYNIzUC8s+GSBU7xHm3KHw7RRH1V3TaPKiUjl7bTlfgONefGjZwhGt93py0hKqibO9ilKPq91eApSQe4e1WaDSkuLbqMphhO135WgLUIeKKaIZ2beFHVipecxDZ9xOM+FeNo+pil960ATlhqt5r1SjVcEOwsnhoNou1rJg53w9Eg3RgAreOyjlLdByXGKokTpCSVjFEB13YAJ/wsFTkbxGWPWhR7lb570/3OnrsGLSF+Q4ay0pCSqp61CcOgVy7byqA0AWMcckJ568+N08YpbTbEFDfBG2KF6LaMzNT4v2kOBe4vt6kFKAep0SgOXl6c0Hood284KKxxxDaAx6tOu+sapOCibxF7yqq5a2tre8nXY5/ZbxiXbL34O0PgGu8prmNsQjVwbzUlIdHX4O3jGlm4XcDxB9KFeIcQxynpcx4AaeNS3qyuyg4WcXnXuFxrCQZiaODkCPlSmWaFWwGacC0lxq42aGDeJvaUfM/58+f3ySP6FLmECZsmMB0YCsFKDQwLXZCGpIENAq018adR0/GWAqfgTAqGjQI4xeZpmvNRDPNE5u40nqMoXX0ggiTwFxGjzbks3ROjCaMhtOMGTp/LWE6BVCGhZVLw+2qigXmbe+3o/xmAmnBrdzlzVEbZuKOeprcsTWKrGFNr4Ax7Y3YgM2oPO6ytk1prqAkEOF2jilHcf6FqKn3InA6z1PaQiZ1IZ1mJ+g2M6l4aAQcpokyJPgkDx3cNzUM7rlRvuAHoYsr/jWenrEDjWBbHUEDYQ9pUzPgcK5iaAGcUqkZxsMRZhqhEDFwy4vqWgWveHNSyz6iYqSolvpVHDTWDZomapj2Li9tqVFKdWABTwtMzyr3MvTad8VCtKK4V0pHk+g0VnapxGiRBtZOSVBjqkng282YcIylnlSnQ1rYZRLIODJxhEVq6WdXP5Lw9G0z90ohDP00gHDLBNaWQhDwpDGAlGmIIL1tmLno0YlxG6qBtggpi1OBcuPSsbKqC0OSKjXPBwtydaKzFsIeW+7yXNtcmxkOuKkOgSDHC5rBgLgZ6YmzGQPezsbHxOrnsLXgZ0mE4U7WmCn3PYCxiRCF3LTrvOnUuMIEhz3XswBnVKqkS4tLLudwpje0IKRa8F/cmwUx0cg7dJnlJsoSp0BZ1VgAUI36ZScUJ1a0VcPi8JSiiasbGL/aTmuGVGIBGW/jA6zA2T58LOJrAHF6nHiUmPICRmr6s90LMa+QODhB57/hnwsakYSReNdRm7FnOAwbC31jUSSHtOD+cCpQx8Hc5MxbMySD1NzXvdQF7dgj380iAtB3ACTeIyuZKnksimJJmGnqoMO0cUoONIm0jGlblkwQnrTSahEMKqnB3kooRGeqtgaNZLUvRGMPiugBZz1LqMaaYTlygNaWmIm25Zek5bc6nc4aEv4nblyQfxJnx8mFz0th8/siRI89G/epKe9DgnqaRagRcScok04Ol/SraFnMWTgsIUwn092lABbNBxbX+ELLVjEYCE5V03AqHwI4ATrzRoU5EkW0juFXq/i1xEC6kBhxNOt2nVjeaAD3QZkOcGneYG9HeJS4Rc0fXc20yqiVqWpeU3DuATKvbP/qjP3rGBYHDUjFZSYK7pNeUTdLl2Yg/qeqz6bTsyZSaFgWlq76n7z1iikVcCUmuRhyhpRgq+oglTZu931bgxJsdRuqpi00Qy3AZDtDG3kVN/epshKSx2nZTcuCJ3lu6DmqI65cdlvpGl+IkskFmAVoLhlBS0ayXw6lTpz4cS76o9fAGdkziOvEeTbPnAxJlp+G9163iM9a9xoLXSMQxqGeXLHAKMCDS1V1mSRt1Fi6Y6NVVB4hGB9MSNLFtkgJPqIhU+YR515gI9lRsN7j6ePMKNX2ecA1sET7rWi0VEgL1V1nFhZpGilBFZvmwdtfkAGdedTaobnvkkQsl2Dh5sJnGWNk5EHi2AzhJgoSbKL5g3pgFGeJtey+PCjDxe3PfV1wryg0LoxwtuIg0gPBN4lheW8auSBK2siBC/IWycDyM2IMm1ZTU+aL3PsG5G+7Vdp1/x17D9pOqGUbNY1Oay9n3OdgJa2Ibjay+jYMAcCHLIAz1FhCfGjA0LRDbakIongNbQi7WABxqigCM8vRCyr2rzw/vcR1IU2Xc4Wc+b5Imsl/4nkXsAN6jlsEFcGjO56oiG5/DFp15x6mfV4spBA8fXkCNewlMJW7htZOAs90cp6TDo2/LrRwq//D4fPe737Wamm3ftMyzBMMfLukIO1QqUrJNIwmXdVCKsQAwPIEwDqQG6pxb18nxMFsRSFxCvSErwMdwDh06dK5h15dxn38ncebhd8ChGJnF5b7GWZumkep99w9d4vhNTW3obuwcJQSGgJm8PoOWJo9dhwf0jNlw3jUIfYngX01Ps55iHp+kBBipRb4bnJf/XZ1Lm4yK3rFjx57OZClv5/l27G9IWjGaELhm75TtPp1qGPnTCJxhxX3OLuniOJDeuwQ3JT1kyGyAsRIH9ztEBvgoU1PWUHuHcOWPfG82fyKZd6Ga0ScCsOPQIO7G6znA7ETg5BoENtmMOsIfFjjhb7ikGRui6Pw8gU1q28cw6WxY4gieLRHE5javRalp26WKT6Y0CdRPnD5ykCzjeaQxu9cktgE8rffIAycHhEG/fFgwlRbcCFWN/mVwKWyGaB7LjgAOzgDSfMaU2Nh44SRw0mY7bdhJrSkC3tIesF2XiUcJ3AXzrgBKCGbLO7kbrQOGGi9sJv7HVpS3sUlpeOuVA07dhoSeVtygGbCkyLBIi0EMsxC/9Nzif14nlYLqPxbvRZ/lQfWQ1mao8j64ntL7F+negvGtXLRhqjtHSSRTKp1oOy5klMsPV9ou4ExqzUDkqI2KMbEv50n1UZB7Sm763Zyj0QeLZFoSgul29MADDzz04IMP/scjR458g8WcU5b9zrrvvvteYj3wwAN/+vDDDz/J/2fOnPlt6A8ahd6MTqE7ZYpfMQC4OilVrW/ZOG1aLeHxOHXq1FFUp3vvvfdPkQCoUBjxpM9g7LEwcu+4447n7rzzzq/zP3X/vA+Dl4U6g7eMzeC7DFxwJQekGUmUEqD4OwdBmoj6Q38ZoMp9OTWs0TokcKzqdDnViE9dXM5rLbgWR03sn5B6olVVFLbOfo6ox1vV3nRy++dLpJmTKilD/OnvIWroiHw7gpt41WhsKGAtaW9CkBhvG86SQ4cOvXj48OHncXhAM3zHyZMnH4MWbfGdeDDpb6Fk00Cnjz766L+nUxIMF02F77rvvvtOP/bYY/+O93z729++G3WRgDLgigLvrYATxnRI7N3w1FNP/f7Ro0efBgRqN7rEHPkvfOELD3OD3CwXZvS2kyr8v98v/s779HDhASl2YgN5CJIWEd8W2GORDU2HTGIkZPjyPzlNp0+f/kUdSEhTZ5NJtCQIKZAPosIN49wwdeQmNZ/wEmeJ/tMQM89sC25K/pXG81lbJWvWGPow6/d5GBPuZjg1iwxyZVucS0i3UKDmav8Hfba2TKUjTWQ/ZwmhuyI2a1cc1Gz1GgiDvQAGzJX5OYAo3ifoBpsWmjItxZaa7l8tYveVrNPWhlefodXyPtz+0CyAUhY24JwHtNA3dM69OyDtSY3ZDLNFrLMlqhdlxkSbkQZ4sUgmRCQeO3bsBbiH1LI3tJiu1mRNuTXtF/eHJMKbxqaS7YykM8nGAysF3VrhshYBIHlweq4ro1wzYwxhRRszMHhQNUQQPtlzA3Wyot8B15vi7zADGAXvZ5EhTK0PyY6ZXDmGKu0GRHJbl7KzOT+Y0pCgsd9ncHzAtFa1p7I3QuyJe4R2FH8zaUgY4YdHjhx5HlWL80NTQAXj/Z7oTW1req91DoQaJ0LYO9NouA8CzMePH38QlU/N+kMAHjABJEowcJ+b/TTBxiL2QB9lrvv3738OAw7bBGRaargIbLqF2jNqVWhaNSjBODSOwwEAELiwynSDt0bcegEVES8ch/aDH/zg3XAtJBjPCHdBRUBKDemhC8+GmimJ7NUrcsr2NdizEpC0qkai+NdDkmacZErmgBtEWweM3D11SWAlwGqN62+99VZo5DPHjx//LLEnJKaK1KwBB6CZJVsCDq+m+gEcYgCDMtzSPafAUQOaSu+tjUeE5qF94koEp628BaaIFIUJTFCrQXoDKpPaxd4s46mJ/78pYOr05EEJ1m8gjSGuAwSoMHrYdcf1nrRZlnAPje6YxT4iLUUtnQaxCXx8Yo/aJBW2Btdzzcib7F/T/favQ9zXK5hY2D2o0w1Bm70+RK9BUb5Cc8NaQSERsen27dv3I9cH/BydNcddNzOAa7oVbSIswAKYQHVDWqpnw5MTrpdvEwMwJvZReaUG3YjUvaK+XKGOniHhEuBYI3e4IMYhv6N2ILFUjTqHShjNx2l1GOwlThFPYDgwsMXwcmGj1ZQnVBqkifd0kZ7cv3LkSioiEtXVEDUhoOJ72UMkhCa5pRptrCrB9ApqqBxg6Ud9O3vNs/olxmTL6qQG1khSallDNW1QzahQq6sCoAPr+gMQ3YzTdYM/XkZd8Ndb3hYGnpXgWoUhqgAcD5clKhkqhKsctANfp+YH7mi1LPyOtKUNrKW0IIrxvKB+QDAVJde5zbZGGd5YtyYi66q0fBLu1dB5kWJWgRPy3EocncsQ9pL6WMcu/qrzDR5BFRee03fnsiA2cFhIPfZdi9ZJH2Ivb7nllu+hurKQftg6rMOHD/8VoMYhxMJLhocM7xamgzmczDnAs3LWOAhwvqTCGaYtxGBKgGgQuu77TCN39BBryrqq8JAW7zGPGxvCBuFrl0vxwydPnnyEGhKMY4xeFgRuCzWMhYoF8asI7qwfGqVDP+teD14qqW/zjpDjpnj2eog1aJaPr7CslQKATddJTjTguwlO4jqtCVAmuaD6LH9I/elsVErfddTetrZLJ+djhAdRuoFdjeJFE2XGsIitQ9gB25KyCYLBOHQwvDGy8WbFC68tHlqei8V7+RwL9ZPvYpEAis3BawCPOA2AO3369EOAjrlLzhOWy6oeFDidUQEna2BBEKhA6Lk8HEEpOM6hQ4cWbIkDhaAVHrtPfepTL1IKzCYAJPWGDjM+8ebIIcCQoWv4HUlk0WPvnuR3XNZ4qFBjUCeQIInOL03WEp4tvEXm3WrgROjQOirBqdeIeSnhMyR1SjX0am8lcNhXSbQFNTUnFvaZq69+/QV/LYrc9N1ZqSUQXmPECcEqVah1xsPVV7/+AuooUppnVzzuJrxQnIl5Yc05YCXW3jMnBluMPfTnG53xtUghJiEQ08HjCz3hCGEdPHjwPDEa7FY3sjK1t0PR+7DAscjwm1E/LN5jPnoMZX7HO8GD4p/HCYEKYaBQsNOG4Hq3ZB8gzX2ojQ8gct9RbCwLY585OXiDFCgdNAXGhhmF1lDERpwTYUYDlkrjR3gO1cr7RuLLeL5YUoWW4Z5RM8AcaMLf1Lie71xAIrMH6lTjVaXz8hKWXOzYVwQB/fAlNeqwRumD9D9blZSPJfy87MsFaIAYDVIHdVru6PeibWB0o3aJ4dlYwzb0R7jiCvYbRgttIcHwEmPHQofQH9qMJJE5K7LMpAG9Dw0c1hSHyabgzoYDWAT3tddew3C8DfXM/P4GiArjLeQjWU0KOi2A5LsAHUSLFCPOhK0CIVjMAzWO0mUIFlUO2wU1zvRtPEBKEm2jiniVBCI5p1k7wbDFucA1INR4cgL3r8CmgWcNIx7Qw40t3oEhHR1m1mC1ESOosuLY1+gapm4u4CH1XWUM4BAtf9cgqfA6EoFCOtmD50Tw5sqv67y5QcAZ5sQ52VkpYn8P7n9ULt4DoyDOJKnPfiyh0lnQ8dixY09AN5wz36FgZQGk2GapiNtYpW0YcMX3ocKROYD9q2yK6QGAM1JVLRip3BiRXeUC7Ym4b+nBKx64a/PuCUTxkErmDJFlDhzP2IEDB/6WwCx+dDYDnRkQseD8cB0WBMEyRwKvob6hukE4GbXNuK6P2MPJl7BJAKX6IxfPF7wrF7O1H3N1L8Wzcz1aJpnaRpRa/c06asoYyiQqvEv+5ylLcGWfEj0OzgPqxNToYgwHdkLUMjY0Q+HsAABqLR4ymBDuekXVl0TsMZjW2I9MTMbyz3ZJzQo5YjAMnpszBsgwAM6Tc9UeoYIGVYuz5b0++Nsk6Jmwa0LLMOXBXTNqiTOMBy21cSUiyAEFMc3mAxRVSC5LxM8hJXDhsnkGBBeInXFBwqZePNyI18j+WI9HhmAH4Yjg7xCRpfgAOjcVu88ewa8PIcRtmux9fE7u7vMW14HBSE0KrtvEM6QSb6fVu22FPYNZmK3DfmkiWewMKDkVormnORs1LIuoo9qxF9h4YgKrBhypQsfNIPdSt0EEv2Nub1O1UN+UCvM87nUyQoxZAiTTYEwaDQikSkBsFXBSQOk7GHfjZFXvw+WI1LA8IRZ6MFIEMS937c3SSQv1rmmcx96n5NS9SB3EtFLaZwVOCG6dzAEZoD6qXbcf3jW820mhJFFazwB5wpaJuKN7JxqeB4Bgt0TfGb4Hwjp48OAreKsUqV9B1cIzWTFxronHLgckv7oC+xIEjTNA/Q3m8CLCEFClUdVQk6SBFNKvaT2NskNusKAjnlbc1YqPzeJZw4WNOSDAVha/tQVE0zUu4MRETG7YtRCvNiC0p8VwhJNw8Nro3YkAYS1IvFg2bw1qEh4obAmIS67Rp3FSYJwqGr7O/yPIIq71iAkQt+MQsDwo7IC4i4+yD76GWpPwgu2nj4C50rHx1KU0OYy2ge0Uv559RvZUTo11epxxnmgBxFd4LjxqSEQAjfZAPiHqmHlHa1K2cuCypFEY2z7saWwhmIfA+3XNGS0yXQYAz8DAaarqDILcoEMDGEmWJQ5eBUx723hSUv5406H5LqkvH8ZBAUDgUio1KCLYvmWuYhYh89jNzkkR30iZCUDh+S0xFdtD9lEgftyo2GB+GCxEwfMpkXMdTo+dEyWO9qlnDaVPMifQGJBUqdfhYjbb7/zFrjyxkye0s5U7+Vo7C7xbeDW5Z5wFgIxnlFe0zwHQRN2Sg+V6YjhiJEucN98tO6avZ8FOBE7q8wQ+byZRVLZL6E2s+MyNduCZ4FTfvbj3zMjdfBsOCdVxnOBAOCiAAiBMelVxONfveUX9iG9zJQ8hWg2Hj/PMjJga7lkSPHwH6qqCt4uoPQqI7gYQEChudLlb98BVZc8EF7YSN5uoYMn7kvs+BAulcUyxZzwz7mJKHVjsC9IFoCOxuS/2+0KDyXbskXlGUd9gntY4H5ULLyxhCj33bTFNNFkKYdz88ssvf0gjJmcVw/mQVP0rWqptWwacvs/CUSE+xDpcFVcjm4M4TaVFNHkgNpVD4ADwxOAdQhVAbFsswDJwGxCUTy95u0lCuWOteKrIPkCVwxC3eBPqn6oX4xywwKmbErPp8m5w7JzqbQhwrmIzuEYlwU0MAWsfc9nF8XW68i7e5NTRroB4DiLGG0lsSalH56RGB2+iK5oLXWg4T+5pczBaCUzAiiFhdkgjZVu/iH3kJuq1AhDPBvBxP6NthBSfO+/8Oh7fuM3UTgGOX11UDgxfNhrRmYq0tzDkCp+8PC3fIMMAKYaXx3pLNwB1VpcnDiNiqQ2CQuBu7su6T2nhsNHneeaaCWFJ6aOJzaFC0gKRROOJhMuJMY+nLwJmLYOwlrikwruOoVOyM4MLXmUQjYbXonIRs9q4mFdolbmNaSQ6Z9T4K2FeqFxW+8UeAnRzjgzgMSNT/CbURM6NzBVJ1pH25BsFcLqqD/9tjFpEJnUvUa/fPg9b7uEBH2qYSRc4LhkJCoztSQ1mbengCC5QVD7czy3GKlrZ8qolODqVJYxo5PnV+y22N+o8WFPYNPIy+p5sYXAWXrbI1ZxzApT+BoHDyNRFxj4/hdqsQrfvK8ujTW7aMp/hXDhzzlqp96Gwsalx7v8me2c/EgLgsI9IDFO5rNl6GxDxGSQbzwrzeOGFF/5V3Gt7O4FDhPw6FTQ9m7i5vsOsErcAEOmCm9ZUPDZOnVCq4kWpe5uywjdLyeGAIWzUIQ1znW9BNOsU+alRSKgM9CBWNvdtFR31c+ApHACKzZwzAuUeozZYTQBTUtW8imyvqXPmLGDXAK9B8vg2TMXk7LFXsDEtUySWFjngJFSuvahcJPtyjwR9oQnoiv1uqcIRu7sBusQThxTijEYBnqGAA6cgLwhbw8dcIilQ+u7Ew4U6ltDU4Y47Xka0KnU8pYrV3afVkVyDagNR4I5WZu0rJD+qLDbEcFxmbxNCWeA7+W6+UzlrbfYtRdh9hK5YyTLBxgiEuXOqkmTJZVW0nJdTV32Wcw4oVWsddYtSAmJjym4oxeFeyveMAAAgAElEQVSqQJMAGa2griFmgwr35je/eQWgW6lHSwCFIkdUQpKKxUw629nJs+trISrUiNKG8RoSABUCToVXieAnKlqGWPruUS7T0EzE6nGQBspH8+XTlkazZEY/RjFGPzltpJbI03M+qqNZ52/KBaM7zyliQ9yLaysUWvV6gIsor20oIft+x+1LLIS4SCbZtQ6U4Xcr4XDf0bUE2CgtapoMcDxoXNOCnD6zAsmHKklWBeuZZ575DRaETCxJw5DNsWBJo8uonjTg4Gykvt+mvek2JXpzolB2YMnDgEm5kHuagkg0czUmAJLHOw62Azh1HLXvPeZZYTNxB1tHkbgxXYbIZgxwuJ/Rs9X9f8FmdCrF3lopLQIkQIJbFT8/Lle5rEPuEovfXc8CA88qXh5UMLinuv5bHAgP0W48TBCcJp6FYjxyzwCc0vqnm+4TQMQDppJuGs1/xhnJTVSLksMB5wWeK57T7EbsT5Y1MlH6yjViAiH5UfNO5415qCZpj6vYnHL9EKa92xkwcaZiXqFWSOexosDoK2goItqbRbiNQMR7eQbsXbxw2C2ocwJjyFBo4jxgbzAB8L7JtNg3CAaGBU6d0etXaJ2E8UcFIHqrqjpLKfkZnXiag+ZgyGNyiYcr6MAQCITPd996660h+xYvGK9Zn7ZoVmZKVZriGnLLhjZGbgRgFw8VNT4kicKhIUxr50SuHaDEDW9N9ziYitk38aJyFOeAb86+CrHBYAh+qhygUYYD6heeM9zOLO7FTXwOz6Z7pzXTcyR2Gjh5NutSQ8zIgp0NVxcCZ9+QRKjH2Kqcmyp0n7aETv5HdVLP6D12/QZSI2ga0A91OKiGzlRomjkA4G/DS3vixIn/PEijlnEAJylhKD3A1sCdLD01Z/AGkKn4iVZV9+BOxT6RKnAO5wEbrrqe8P3kvikx9EE3CrHvfuqMafUqmHVDZ/dh20idmxNoTR3ZtCZ7vE6AjwAi/yt2klPXzLO3h2CmG2li9lYYce6us0IgmSxsbCtzmCiVJdUBNYQG5HA47Hq2pdzOXHOWZ1UyaqiQZS+lmta1SO5kzjBUlKrk5HlUK1RHgIjUR+oAKp6Lhfqk/LMbXFZJlTNpWiNQjlpzS31+X8PAZ8hqwTM4iKt6VMDp+xuHij4JEWHDiCvcltAri88rY/oGwKV4UCiHxoOFNLHyWOvYyfttwC6uaw5HgcmUbdBkBW6kIjQIdtFaA+VKlAEz9SwAVxncoaIx2peiZTAqHFkD2AeyDWJJQFT9STi2pFpI5nSG+7IGVH0ZokRlZZ9RJa2wz3NQODRqFI4SZUqEaXAZd7tJux73V+HEmGywjwXj5P64NnsE6K1Zh2zUfZwbNgxBbUv2hQbUyDKUAuSkiOzN21C7oDMyB0QnhfpWRcNNsiASjGMo4ORAE5rkISkQ1aq+21cz+JTP7MHeASTijos4DpAeSuLzKTRTmhV5FAmj7OBrahqPVD1n6W+oXZHXLeV5W9EQ3MOmDpo0kS1Ga6E38DcMau4V+0Kq3IKTXGs2UIlAKMBSqXjIw+N33MfqYuOlXc/Flhb4O5IYFRUjny4+rnFk6CzD9yJRlepTGbOqSOuZzNBApfQBvKhmSBcYR8RAA80gQbAbkQJ4V1Xk9jT3ony+cP4pSSLGRMvdo3wOW8j3HhhCOIwFOJOes0HgED+AwfPhkxcTDxCIH8KA+AGKfO1PaDqZGaQlgCHG0ZnhxhB4onCu6fP02TsQqmIpYZyIKwGOW8z2CJ4CFp4RlYbaHZwIED8ErN4CZouZZy/UGilQ/BmkAJ9RPlxVulCwHXgf90dqjrKs55wKZtPeTDIFW4/EUPaKPUMqAWSpZH1xKp4XtQeVmu/nDKN0nVo62My/FmgEdQrVG/UNkGQYasgqAEiASMVuIQ6D9HK5iAVdOdoKsSscB0gv3m+evO0GTkycIaGTB2SzcT8iKlO19Dyc6l5CAij+fmpU+B9Rq369KckRAoy4NHE5u96+vgZlENCE3wEf9hIEBcfmWQAlRWYYznTUiYkMFy2Ez/+undK8A8qqgANxn0Utw/5BtUSlUyOKqrSh3POELGTSmfguAIFqqXv0uWbBeeKlGn+jhDzqNhoWmRCk02DYQ5jmuVQDx/fL+9SG+DqZ1wHFDYASR4wVqFWAM6h0AA4pgorKQp2zMmvzzEUgvRo6hLZY6uKapK0BmOxwNg4Eh5qk6QTPcaOKHeTSQ2ZUkxOmGLB5cVVf6qYBIRsM5yENIxrr0QQwWTUCAqbIDBspKsDqmjdN07CNo5uaFDh61FA8xIsAEj3PABbpMhXNu6vusYk9VrjGtYf7ATuqGkxAXSc/w0LqyGvnpZIBbA37QH3Yin1FGkCcEB5qphqfXzkAc+37HSLGtpE0+RqSoSauEtQ5QAfNWcmCciLJZL8yoZKFbBQYIV5GpNCAeWujAY7leskrEuyYRLvT+OfQg1gNrN/fZByhgInX6RvovN5tmXughgdpNR034qkSR40JYgaODnezji04ATByXbzH0k7m4Z4ABXe1a0s0CEDagil3jQB83Qc21xWASjEWRqF/InKtB7tL6S2BM/vAIRoB6hLEt1b2ilbteSXxsQAnkoQEUsCgUvX4LPqe01Q5Pkt4Q8mhN0r1K1zbBjplDjyC8wCQ1tjctTTUCjgqUroNEY6UiQNQuYd0r8WZBsnPsClwI8Qx6p/ptXWb2fAQyV/aT6AS75VEeKkgDKaArYIaib5PDELSaK914DFvGARohngLsCTB3ODQBpFKfk2r58IK9Tbmyrb6HMCBaoaEilThwCwJQKKK33HHHcFzVdHptMlzlOiK6yF9sA0BgzxqtdJNHZT2Q4vQCgFWztSn5vj38gx492AQEfPujAM4wevFZhHEcvrlnoaEkNXXE5u4mwMksAkHAkAumbItsSXbWaGWIGlUy3NlFKS9EdUMwCDiNZNlV0yAsifWURNaEnyTfWmz/HfH3XL6+kxL7Vzn+VT2UXyX0lv2YX8CHtTqqO4o2CdPPfXU7+PFg1hhKC0H9GaBzXfDlGFKOBCsuK/Jd8LsoBWAA+04tSy+Tkj8tFa7Tj0cPXBAJq5EIq0QXrRRg6hKnZzey4NThyL1b9eA10mKdoxzucjvSejTXRwCqJ5E2yObyxOltYVasN5izhXtD6BKCsQ/t2UAbUAUAIETgSi7c7Ovu26ffd8Dx4b4iKdZakxssB85cuR5zkpZ7E17RdRJxzC5m+8maRQmXWPUp4Cxj4wAVPwoEB3ToG/MMnrgQBjWUGMEqkbf3y2CSw4SaoASAmNwDnQN7p3vQy1DlHPIsUoFEQAmyoN5zghUfYdM6o0be7EGeOQUaf3sDZ+r7ftL11RcKjRIkYoZmszDIKruUZkH9+AcEDj6Got89atf/S3lAj6hAHQb50F2byytBpsMZodTqIVdEhJxUcuIsyU0hkHPob2qNoKpZbkN2o13DY+P2UyRataaUDzXhDhIH8F4lHpZUit4jzXG4+Azmd4lCUGPMVzMLplxBQ9Wg9LpYQ+vLXCCtIHwkTCmYkPskrwfzkjC4l6V5Prb2LSo0G404qTWFIwJ4KD+ybP6hgHBU9ojiJ8zwQsLfUgLaZr/F+jWzYXtbAdwJscBGuIZ2DEcogJVxhmaElqOKDsE+9CT6YLidNmYo+6x1r1RnKJKtQrEiEcKAlFSKJJnHkmUue9BgTPMXofPco/UswAcN50tuHaj/U4Rs33nNNybhuayHa6Mr2meN1Q31PoWXL5WdVO91od5Dq6xhXs5UuAMfVFUM4wzotSuKm8QFTDekBA1Rr0wKRNVUBbv45rED/ASRYVNVdcu/mbeGvNSQZgY1A2N2S2TNngPuTcM5op7i3X/JAFjLyBVTp48+YhyzuJ4yIw8b0+bBG9Y81J73oAVR4zL1h4n3XZ2EnDCz3g/UM2c2zHm9INeo8uhEZPAVpG71NtkJdUCSQGwRABNQJPcQLihkjUxus+TEjPqxhAt9rgkJQm+qpxg1fWornvOKu4/hap36NChFzHe8U4lPh8yScwzim3i+mqP6hm3jF63GzhhKTHzaRIdMTadsTfshszgISJirxw5n71QWhw8oHVj/gaxQfxnupQdKLUmpOOru+Z22DQlBqUm7et4Cl0crOl95cDTBRgEElm5WA6qGtKe85bqlrNNmuz/oBrIqPd4csslDj511CI2W6qZ58p195D9O+qIWt0+pW4uye9VE8DbydVC0jgv2DD2R6ESKXEyeNrINnAVo2Pf2wgwu5A06usc2j+pF9qwOVqlPVpdXf1ZygCwe+RUqfSYkuleUZ807j1q87yNXt8S4EC0BN4g2MieGeZhiu8mlUQqV644bgZPElKBuIQL6g0j6UqfJc2GYjCruwc8TqqOco9zHHoaZoAXUTlp66hpqKwJ6TuodC197sc//vEvwwhJeUFNtgKy+PO8XhFPuSTXVkmcME48kWvWijhz3x0PdYr+PkMSJ/ELNQyMVZZhnr9kUwASUnVcfzSA+mCD1PyBCNeeH+ah7qkvWuIpRnycNjOC5+xT29bW1q4DPHgvsR2rzmkrCHpENFW7ttTGaXnjgzxgn6RRw/fz6NqRTRV/blTPE1rrup4Ea3B+8qNQFW0Al7xNqfmUVdcJINGgpOv4PvLo1Dd5VWueDIkB8siaPmcnfmacBICH9l4ZL+ZOWm3oqrNTgNPkpgcx1vseFAJDPYP7E5xT3tJWPVdoGwVoSZq0uTik6eA8IL5EMBKXvI3vs5IGG02vFUoFbCwfqp/KK6ySdNlKGfB04RhJZF2M4zk78fngHcXhAngkeYYmzm1Yfee4kyROk0MZ9PP28xREaeqZi9OMREy3WGEKHMY6koHouyt/DtIBdQ4DniAwLl6IzxZcnFiXQBJGOvpCOSQZyaqqz7/Bp9Rv0Tl1eM165WFnapL4aRWYtT23S2btNOCM4rNdON6+fft+pODqVgYkq+yRjtX9o8rZ6AwSL+ku6gbL+rXK69aQHHBRAYsqRqVmkxKNLXjOSZY5BZCQSB0Sgs2erKn53yn0d8kCZ5hDtJ+7qDOoQ65LfRMC2I77Di2wkIaoYkTFkZKodyykCGkmPA+MwFpCWXPzimfZtvM8qHazFiQl0z0xDuWnYv1UAQdXN6BBVRhlZ/oR3WOddyyu3LTqzU7L790O8HT43/dqBvDEeMggyCS/XtLrpwE4YaGSkXuWmFFTRaRbdX8xIKoIPib+qr9XfddW7n8nBR7ltp3D+7fDPW3/IIETjFI8VWo726hicKvvccwrvs62ncfBaBIFAVgcBsoumPxpWZc6cELJLJ4l8qGUPbDj7rGhRBgGMDtqHXTgwYGhkvsTTRq0XCrrkgYOB0HrVEDjMnB3IlENel9NQBOaFbYs/hv7OhjNpyFf7fTp0w+1LETbseuSBg7NJziQhgmbWwmopteqe0/W7lETxZtI6SEOVJPuMupnm2y6HHjCGJSWYyeHuvY4n/uSBo7a6Pp+bk08UNt9z20PK77v0IyCZE7NBlphtMkWAOdS27vJca5LFTiX4j0PvVQacUB9o8MIddrXAhyyk8e83/8g93wzs1o3JCSgpb7H16SWgnphxb+n1oA9uSZdI73dtjRA6up48Xrb5b+3ycpdu2rF14z/rpavYfgvNTWM9bDmIKQTUQ/DbJ4xAqdPRbT76rV8/qrntICunveaqj1uel6eBqvoNPU5uw9X6NgaOMWGWbtREiZzi1qX1OLAE6+Fz2CjJEa714Fmmkg7Gcf+GrrOg7lV9Xf7vL9X9/6+54mX3veJFit1H59gLo69h581BPi4SqBD43RaXRGdp+qVobIAp6Yx4khAAw1QkHY8f8alZ4mfN7P/nyDOg3ODFsKelmK6Sex39uxiOmtDr/Y58gujrke1wCltGigk89apB7m1llirmWWfWSK9pMZNWVIVqO2h3iQajtvkmlUrde/L5F1Ff899fiWVa9byPaW/8YwU6Sm5c53cNgYFW10To0VM4qjKc1ygCWXvGlW/XHHW8R7V7Ud4D5MSYAIqNlxucY4rQ55vdpE/qGltSbpMAae0YYhBuIxucpnuJcre/XxiPVbx+gm/GKcBISiR8fsQSNzDOXE/dFq5XlnGa+odYNcosooz92D3Yat0L/RFgzDg4DaNjQI4dbEJMysTz2G/+++Nv7/veu6apetrPmaYhEA9D14zPIdcn3mXUe5dmFAt4PxQxXI5jWEoSQPjRDLYRLh77733T92zxWdfel6ezT9rvEdkf3OWZIAzRIySc5uAR3IrnYNs8oJ9V+Y743NJ7XvunI7TFtmYOUBGCkZjZJoDx0mawDGoBdGMxT05myXWJTWurtBbTce1acXctFLt5+E4id5qxaKvszrKrDEwSb3YinuJ9VcN5w0jyqM6l73+vjR+cLcGXMFx5mkxxetqPrispNEb7Hr8b99hz+lfS+nksc7Pe2wvSPBU/zNA84cqCOuQBQ1z+eAHPzgXdQvtQGgGnMyQ22GAE37nmiZpYHCaZrCPPbDBWvaske2atEvMfrDPE7QWI1xnGgTAYS84X17j2jYihX2qslu1l7ucfViiu9iO0ejMK5HWcrisMUwYB0xdfl0OOAE0AEWicyWRAzaSxQN95CMf+X1Jnlm4fKJRXjhA2uPaxGQyh0dUFhzugTR/G/kOcdg9CDgrAKdhh8q2i2nXb4VoIBQ4n0AQDGbUMQOOa3cVFgfsJM71I7qfYs8hLDkkgtrqRoBMjnB1cGxYRx72AUJW294wcQ6JM67yECQ1YOGMaeTCnjbJq0vaOCBbkiYUTGEkWdkxSKTLPQs1Ao7I4oBZ/MzrLP8+/xrjxP0MGYhUqgCSbRE93jd24L3iCD3UM+pZrMk3n42vYfdj9xb/zf8OkSKueVZUA4DrAcmUMvZAEicmmimexZ4zvo+qZe/neqrFWceeUp+54hoGnLvvvvu1uCDPS5wRAaeQNs6mWbvqqqtogn/YDOULF5sD/pzfX/vZr7pnZ++sPS3AkN3aI8NdkgfGQOORnoaKvSX+Xr6DlWt8b3/3528LOlKRYA8Jx143TQlKAWdafcLCtC48V47TzrCBeHi4IBFrxqjHy78e/6zf/wbdVug2sO7W2PJVSo01Kjy0F5ItBNc7pwMMgGOzKCO2783dT9WC6MxJ4SWNbbxsnNVPfepTL0bpIl3a4MIheZ4292B7wIIo1VzjRalnUzngqAFgAZzIxhkVcMLPksDsyyLNDF2/hilsXmhgkP32NEAfPD/3iOcXg1yH+6Niw0RtFlG8z35hd7nzKbQm6CxxPmHvBcp1eoBTA9Umj64POEgbphxDqK6n8qRxGojLxvqhk/vFxsSvpf7O56+++vUXlG7ur32tpk6vQZS8xsaajSWPUkHYbAxp69wLXpD4elSBppZ/DxsJE6ChtzEIn92rYborACeSOMZgQimzCONv4JZtl2v43tdpUzbOioBj817C3+HKYwJOV9x/g2I038YW+nj44YeftDOsO/MUDXAGoqH5yDYL83fU5GQJxoBmAZ0Ashio/M7zEwRGlRWtFvuDaaG/h/5y9vkYvNQOtVX7+4DDF5iaBmfxoxUccOgOeZ4Hi1U1xKlf9roticfvRcCxe5iBiPh+xgiayiDinIuHADngrDOSz6tnmft5a7TC/UltLE3HrgBOca8GHLxhfB/fY8tUhLql0ey+vVWJkOVV88Apnt9LnIxzYFDgTImBbRK7i9zSVwg4G5xVvOfx+afoAA+qJO2cA3zHaEzttZa9ix2G6a9h16WPNcBwNmDxXdCOvKTL0J2pbP5eNFyracpWtcSR+zkAxxtlPBQbyY1ykIM4C9gAaucBjmwZ/6BX0LCCa/OguuY1FimPswykFwOcNYh4yG6VpdcNOLJxUsCZVoxlFSYC18LQxPPnFwTNcq/d5FbxGmoKSwAonqMCOLFzIOWOHmQfOh44MMo4+PywgINGUtUvLhqjPumfSU0T5yPgdBxwgsSpu2+1/wr2YTzp3AFnYQTOhdoA6AzOAIgRyePVE8SmAYe4wqiBo46f3/DAcRLHAye8H2lowMH7NYZ8qm4OOOyFGh2u8Sw8E0mXDddfapV+p6EgHU+92mBxnAg4YQ+Q2CMMgCaB4yROIY0ebgic3ILLCxzzFRJnSW2E+4jWL9lA63QTjb2eDjhLo/bKGXBKHOXxxx//EAThmmUXf4uAkxpoW7WqgNPxwEmoarOxHuqBE0mcuvvoi4zniCkHHJ6DWA8eMZ6lzbLONdhl0vU3+R/Jof7XnRqJM27gdCuA0yU0YcBxIwwb73WFxJnMSJzsWRlwuF8HjljirIw6lJACTiFxmKMYdYScEXA2AE7F+L7swQg4f5mwcZLA0YTnYOPEw4qcqrbugNMZl8SJvGqUNOwhWKd1e2YdiNbtPBt6ujxXxKV6SB4Ryow/jwGA0xmzxOlWAKfyGqa6SeJkgaMGjk1UtY6kfgCObFUPnGsNOCMooKtW1diIDHDIjH0dFZdDAGeyKXBMVRNwViPnwGTsHBjCxqkkpArgBALTagvYrsaS0Ot5nf+j7peNgEPmxIhz1YYBzuSQwJmMJU6DZ+oUNs6dd349lip42Qw4Iwjel5hDK+DwUEMAp1CvcsCRcyC2ca414MQSxwNnDAOdPHBCHCfa/NDs3bxolvbhf45Tbex3nAq4oblv1FYRSNJW8O7oqKdCCTgjyo5uZOM82A+cxtcAOBlVbRzA2W9ete0CTvFQIwLOK3USx+I4VcDB5mgInM6IgRNUTg5Nhj2Ogb9tunSY6zZgqwrwVcBBRdwG4Ex758AgvQ6qgAMzGgQ4dDmKgcN+1QCnMzLguADoejxJy7mj64DTyb0GR24CnITEma+SOHDxaP5KGydAdlUBB+eA2SjKcyO3arbJsvk5dYE3ZQ7UAmdIVS3eqyrgzJB+lAFO5Z6bqlblHGgLHJUiBOB4zxnX2XLg5OI4/M0Dp0Vj7ZyqdiA2DC2O47xqBXBiInPAWR2TO3oyZ+NwL+aORopAxBw0tkuTpXjNTC7eYb/jREgApxMDh3jQCJ+7q4TavgBoDJzNBgmRvuMNCyk6IuB0c8DRGd1g7uixA4eNMYmDyuaJ1QEnuKMxvpAgcTkBv/soui1exzePipICjmwcZr2smzRCqiWA04mAs/b444//BtdOXdNW6m9V94xd8sQTT5AdsBwDh3tVVsEaMzYJXioLoLbs11LbU+W80WtXCjjLKeB4G4dR7P65Uj/nlk/zt/IAcucAhwuAhudGwjwg4Ngc1aoSZb+39tzQgIAzVxEAXSaJtQ1wfJZL5BwYK3Bid/Q6G5RR1chS/vs77rjjORZi3S+9ftr+rp/D7xwIoOHziuMUN4R0YQMccNjIfQLOUjShOvjpBZxN1L/omnUrvDdxz8ViNGEVcJ555pnf4F55Fn3HaWpLcouSAfuZ9yb2rdgnEluRolLVksBhjyAM9pN9bfnsxbLn5/5YFNFZDhgpLT5jg58fEHDIPdNzfb1u+T1X0u56wsYJDSal9i7DDFoA569i4BBn3ErgTIlYSLRbkbq2KyKWMGlsiJLlUJrqkzzhRkpjD+5DOK2Bw9y2ZM76nCw5B/5iwHuwct5lze0MIwBlrwCG73NwOCn4WwwcOK8kjn1ufcDyaq49q8/1tFapexd3zqpqylX7fub7mzx7KOOQbbbin9+ScVXU55NrZ8iY1/ub0EDqnsLvSBYPHNKGXCb8YgOHRwk4sarm4jhjtXH8l0yLiAMxMNVZG8d7pk+fPv2LEJRfZ86c2V+1ove+ne+A+KxNqupx2LAV5mg6Q58ukPspZ1Wg8Mva7K6KwN7C99k98L0s/3Nq+ftAjRCzAAQbHKicE10rZEvEcQJ4eB/2GP9XLbuevR9nhiUesjT6cAPCIkXesjIywCm4f+o6Tc7F/m7Xt2JCFlKEmaK6p8DkXD1Ox2b88Bz+2RPX7nvdX5+9NzsP+lIlKHuwjOodO4NaAKczYuB06oBT/IGboK5bHHkRyTOOCkh3nVDZiX0Vi1wW+i4p4BwkIEK/H1XcBiC+733ve5zvpjYDo9v2wgNnHLNesKNOnDjxW5I8q1RcuvT4EnDGNI7RhgujHq3RQcecPtwbZdyunPzDrtXw5KhWGEZ1seY/jGVsUd1bCRynqi0PUXaR9BRWTcoKrmP1BAiiE0NRhuCVqtO/QnXgrxPnKBav5V63z/FgtEASp18GNFEP6L4SY5W5Ejj8GqqUuNKMvDu5NRWtabsXvFHvete7noY4Kc6KmjQYcJZk711rxr3+3xXvhf3eZPEdsidRlVapRPWgSbmjfb+C+B78cnuf2o/w7Hwe1VspLmsQb3x9zsiYCmohRN272Feh75q2B/E++Nfjv+H88aChQ2mLhMzGqto4gBMTaCx5rrASWlMj4p5UqT5jdQvVzBwBfC89teJ6mwSA0Ov/sWyeUJyke/D9yLK9vXhPvHAqSJdfk81VKiYz4FA6gPu1SY+uih5fxev87yQtrt0n4pQiHwDFc8b1Xa+wvnvJ9B5LPrteswaH69TWRGn5xb4DMBH3Bo6IY7qPXH+11PPHr9v9HTx48L+ZbQVo2mZbe+CkUm5UNLeUSEhuCxxPl5XAKV5HRVFd/rIzYG1V9Vmr68EWvGU03KvQZ/vuB/VFzS3MoB1mrVJvLvWsLyaBHm59zRLP3mSlrmmvBy5Lm6K4g00EnKXEZ9teM3cGy4DC9TNI7jmgUoehZXf9jcxqc1/cw0JUnt2YqC3JE/vIGA/0ig2p0AbXnRsw5aaPcbcCjtyEe8jmdT3Mcn3KHqtZpV5rdNJpkLka3xNTpQ/ANSt6qOX6qZXu49577/0coIliRMW1zHBO9BFL9XOLV3z9+HOfh2mIaFMlEUUXoIp9bLqSn8dDZq2oMqpJ8TrqjmjgsZrnzj1/cqH+DQIalooJ17DFAA5BU0nyoP4SL8LcGFFHpErgpJAWluyWq4vU6wkAAAD3SURBVCt6HYeeVqnXU3/T6017R8cH2ZUun72fJr2bxaWmE9ewjOcp6em7qr4j1+er7to60BzRhue0/XM9w0r30vSaqRVdf7IOPDENrFasFA2k9jHXZrYJLeDVAzi4sfHGmpNFjo7PYBen2o2NCzhZ8Gzj2ur72e5n3+7r70QamIyBLOCY6ojaRzOQU7i7M1ImpVG1Po+UOzrHbbZqQ+rWTyORbPVeN3n2raaBTkPJlwPO0tve9rb/gpcwstfGQl9hzJz74qoLDLMJVd/X9IGa3Msg37UTrtPkHrbymm33pRP9X3fPo3qe0NvOvLI4UqLY3qjPvVj/P3rdnyv9vQKbAAAAAElFTkSuQmCC;" vertex="1" parent="sh9PJ3uVSIfnWu05vSia-8">
          <mxGeometry x="75.34" y="110" width="109.33" height="129.5" as="geometry" />
        </mxCell>
        <mxCell id="sh9PJ3uVSIfnWu05vSia-20" value="" style="endArrow=none;html=1;rounded=0;" edge="1" parent="sh9PJ3uVSIfnWu05vSia-8">
          <mxGeometry width="50" height="50" relative="1" as="geometry">
            <mxPoint y="90" as="sourcePoint" />
            <mxPoint x="260" y="90" as="targetPoint" />
          </mxGeometry>
        </mxCell>
        <mxCell id="sh9PJ3uVSIfnWu05vSia-12" value="" style="verticalLabelPosition=bottom;verticalAlign=top;html=1;shape=process;whiteSpace=wrap;rounded=1;size=0.14;arcSize=6;fillColor=#FF0000;strokeColor=#b85450;gradientColor=#990000;" vertex="1" parent="sh9PJ3uVSIfnWu05vSia-8">
          <mxGeometry x="10" y="35.5" width="80" height="40" as="geometry" />
        </mxCell>
        <mxCell id="sh9PJ3uVSIfnWu05vSia-13" value="" style="endArrow=classic;html=1;rounded=0;entryX=0;entryY=0.5;entryDx=0;entryDy=0;" edge="1" parent="sh9PJ3uVSIfnWu05vSia-8" source="sh9PJ3uVSIfnWu05vSia-12" target="sh9PJ3uVSIfnWu05vSia-30">
          <mxGeometry width="50" height="50" relative="1" as="geometry">
            <mxPoint x="75" y="-78" as="sourcePoint" />
            <mxPoint x="105" y="-60" as="targetPoint" />
          </mxGeometry>
        </mxCell>
        <mxCell id="sh9PJ3uVSIfnWu05vSia-15" value="SQL Server" style="text;html=1;strokeColor=none;fillColor=none;align=center;verticalAlign=middle;whiteSpace=wrap;rounded=0;" vertex="1" parent="sh9PJ3uVSIfnWu05vSia-8">
          <mxGeometry x="180" y="47.5" width="70" height="16" as="geometry" />
        </mxCell>
        <mxCell id="sh9PJ3uVSIfnWu05vSia-21" value="Logs" style="text;html=1;strokeColor=none;fillColor=none;align=center;verticalAlign=middle;whiteSpace=wrap;rounded=0;" vertex="1" parent="sh9PJ3uVSIfnWu05vSia-8">
          <mxGeometry x="20" y="35.5" width="60" height="40" as="geometry" />
        </mxCell>
        <mxCell id="sh9PJ3uVSIfnWu05vSia-30" value="" style="shape=datastore;whiteSpace=wrap;html=1;" vertex="1" parent="sh9PJ3uVSIfnWu05vSia-8">
          <mxGeometry x="125" y="25.5" width="45" height="60" as="geometry" />
        </mxCell>
        <mxCell id="sh9PJ3uVSIfnWu05vSia-9" value="" style="shape=image;verticalLabelPosition=bottom;labelBackgroundColor=default;verticalAlign=top;aspect=fixed;imageAspect=0;image=https://user-images.githubusercontent.com/4249331/52232852-e2c4f780-28bd-11e9-835d-1e3cf3e43888.png;" vertex="1" parent="sh9PJ3uVSIfnWu05vSia-8">
          <mxGeometry x="130.49999999999994" y="47.59" width="34" height="37.91" as="geometry" />
        </mxCell>
        <mxCell id="sh9PJ3uVSIfnWu05vSia-25" value="" style="shape=datastore;whiteSpace=wrap;html=1;" vertex="1" parent="sh9PJ3uVSIfnWu05vSia-43">
          <mxGeometry x="610" y="620.5" width="45" height="60" as="geometry" />
        </mxCell>
        <mxCell id="sh9PJ3uVSIfnWu05vSia-27" value="" style="shape=datastore;whiteSpace=wrap;html=1;" vertex="1" parent="sh9PJ3uVSIfnWu05vSia-43">
          <mxGeometry x="610" y="255.25" width="45" height="60" as="geometry" />
        </mxCell>
        <mxCell id="sh9PJ3uVSIfnWu05vSia-28" value="" style="shape=datastore;whiteSpace=wrap;html=1;" vertex="1" parent="sh9PJ3uVSIfnWu05vSia-43">
          <mxGeometry x="610" y="404.75" width="45" height="60" as="geometry" />
        </mxCell>
        <mxCell id="sh9PJ3uVSIfnWu05vSia-29" value="" style="shape=datastore;whiteSpace=wrap;html=1;" vertex="1" parent="sh9PJ3uVSIfnWu05vSia-43">
          <mxGeometry x="610" y="510.5" width="45" height="60" as="geometry" />
        </mxCell>
        <mxCell id="sh9PJ3uVSIfnWu05vSia-31" value="" style="shape=datastore;whiteSpace=wrap;html=1;" vertex="1" parent="sh9PJ3uVSIfnWu05vSia-43">
          <mxGeometry x="609.5" y="100.5" width="45" height="60" as="geometry" />
        </mxCell>
        <mxCell id="sh9PJ3uVSIfnWu05vSia-17" value="" style="shape=image;verticalLabelPosition=bottom;labelBackgroundColor=default;verticalAlign=top;aspect=fixed;imageAspect=0;image=https://user-images.githubusercontent.com/4249331/52232852-e2c4f780-28bd-11e9-835d-1e3cf3e43888.png;" vertex="1" parent="sh9PJ3uVSIfnWu05vSia-43">
          <mxGeometry x="615.5" y="122.5" width="34" height="37.91" as="geometry" />
        </mxCell>
        <mxCell id="lD8TvkG2ea9-I35YIPtI-7" value="" style="shape=image;verticalLabelPosition=bottom;labelBackgroundColor=default;verticalAlign=top;aspect=fixed;imageAspect=0;image=https://upload.wikimedia.org/wikipedia/commons/thumb/2/29/Postgresql_elephant.svg/993px-Postgresql_elephant.svg.png;" parent="sh9PJ3uVSIfnWu05vSia-43" vertex="1">
          <mxGeometry x="618.4399999999999" y="280.5" width="28.12" height="29" as="geometry" />
        </mxCell>
        <mxCell id="lD8TvkG2ea9-I35YIPtI-8" value="" style="shape=image;verticalLabelPosition=bottom;labelBackgroundColor=default;verticalAlign=top;aspect=fixed;imageAspect=0;image=https://user-images.githubusercontent.com/4249331/52232852-e2c4f780-28bd-11e9-835d-1e3cf3e43888.png;" parent="sh9PJ3uVSIfnWu05vSia-43" vertex="1">
          <mxGeometry x="615" y="426.84000000000003" width="34" height="37.91" as="geometry" />
        </mxCell>
        <mxCell id="sh9PJ3uVSIfnWu05vSia-18" value="" style="shape=image;verticalLabelPosition=bottom;labelBackgroundColor=default;verticalAlign=top;aspect=fixed;imageAspect=0;image=https://upload.wikimedia.org/wikipedia/commons/thumb/9/97/Sqlite-square-icon.svg/2048px-Sqlite-square-icon.svg.png;" vertex="1" parent="sh9PJ3uVSIfnWu05vSia-43">
          <mxGeometry x="613.5" y="532.5" width="38" height="38" as="geometry" />
        </mxCell>
        <mxCell id="sh9PJ3uVSIfnWu05vSia-19" value="" style="shape=image;verticalLabelPosition=bottom;labelBackgroundColor=default;verticalAlign=top;aspect=fixed;imageAspect=0;image=https://1000logos.net/wp-content/uploads/2020/08/MySQL-Logo.png;" vertex="1" parent="sh9PJ3uVSIfnWu05vSia-43">
          <mxGeometry x="611.5" y="644.23" width="42" height="26.27" as="geometry" />
        </mxCell>
        <mxCell id="sh9PJ3uVSIfnWu05vSia-32" value="" style="endArrow=classic;startArrow=classic;html=1;rounded=0;entryX=1;entryY=0.5;entryDx=0;entryDy=0;" edge="1" parent="sh9PJ3uVSIfnWu05vSia-43" source="jXLp81m_WxX2Bu4EoHyN-15" target="lD8TvkG2ea9-I35YIPtI-35">
          <mxGeometry width="50" height="50" relative="1" as="geometry">
            <mxPoint x="878" y="240.5" as="sourcePoint" />
            <mxPoint x="750" y="140.5" as="targetPoint" />
          </mxGeometry>
        </mxCell>
        <mxCell id="sh9PJ3uVSIfnWu05vSia-33" value="" style="endArrow=classic;startArrow=classic;html=1;rounded=0;entryX=1;entryY=0.5;entryDx=0;entryDy=0;" edge="1" parent="sh9PJ3uVSIfnWu05vSia-43" source="jXLp81m_WxX2Bu4EoHyN-15" target="lD8TvkG2ea9-I35YIPtI-24">
          <mxGeometry width="50" height="50" relative="1" as="geometry">
            <mxPoint x="888" y="250.5" as="sourcePoint" />
            <mxPoint x="760" y="150.5" as="targetPoint" />
          </mxGeometry>
        </mxCell>
        <mxCell id="sh9PJ3uVSIfnWu05vSia-34" value="" style="endArrow=classic;startArrow=classic;html=1;rounded=0;entryX=1;entryY=0.5;entryDx=0;entryDy=0;" edge="1" parent="sh9PJ3uVSIfnWu05vSia-43" source="jXLp81m_WxX2Bu4EoHyN-15" target="jXLp81m_WxX2Bu4EoHyN-59">
          <mxGeometry width="50" height="50" relative="1" as="geometry">
            <mxPoint x="898" y="260.5" as="sourcePoint" />
            <mxPoint x="770" y="160.5" as="targetPoint" />
          </mxGeometry>
        </mxCell>
        <mxCell id="sh9PJ3uVSIfnWu05vSia-35" value="" style="endArrow=classic;startArrow=classic;html=1;rounded=0;entryX=1;entryY=0.5;entryDx=0;entryDy=0;" edge="1" parent="sh9PJ3uVSIfnWu05vSia-43" source="jXLp81m_WxX2Bu4EoHyN-15" target="lD8TvkG2ea9-I35YIPtI-41">
          <mxGeometry width="50" height="50" relative="1" as="geometry">
            <mxPoint x="908" y="270.5" as="sourcePoint" />
            <mxPoint x="780" y="170.5" as="targetPoint" />
          </mxGeometry>
        </mxCell>
        <mxCell id="sh9PJ3uVSIfnWu05vSia-36" value="" style="shape=message;html=1;html=1;outlineConnect=0;labelPosition=center;verticalLabelPosition=bottom;align=center;verticalAlign=top;fillColor=#ffffff;strokeColor=#000000;" vertex="1" parent="sh9PJ3uVSIfnWu05vSia-43">
          <mxGeometry x="780" y="455.5" width="40" height="25" as="geometry" />
        </mxCell>
        <mxCell id="sh9PJ3uVSIfnWu05vSia-37" value="" style="shape=message;html=1;html=1;outlineConnect=0;labelPosition=center;verticalLabelPosition=bottom;align=center;verticalAlign=top;fillColor=#ffffff;strokeColor=#000000;" vertex="1" parent="sh9PJ3uVSIfnWu05vSia-43">
          <mxGeometry x="780" y="528" width="40" height="25" as="geometry" />
        </mxCell>
        <mxCell id="sh9PJ3uVSIfnWu05vSia-38" value="" style="shape=message;html=1;html=1;outlineConnect=0;labelPosition=center;verticalLabelPosition=bottom;align=center;verticalAlign=top;fillColor=#ffffff;strokeColor=#000000;" vertex="1" parent="sh9PJ3uVSIfnWu05vSia-43">
          <mxGeometry x="780" y="284.5" width="40" height="25" as="geometry" />
        </mxCell>
        <mxCell id="sh9PJ3uVSIfnWu05vSia-39" value="" style="shape=message;html=1;html=1;outlineConnect=0;labelPosition=center;verticalLabelPosition=bottom;align=center;verticalAlign=top;fillColor=#ffffff;strokeColor=#000000;" vertex="1" parent="sh9PJ3uVSIfnWu05vSia-43">
          <mxGeometry x="780" y="210.5" width="40" height="25" as="geometry" />
        </mxCell>
        <mxCell id="jXLp81m_WxX2Bu4EoHyN-46" value="" style="shape=message;html=1;html=1;outlineConnect=0;labelPosition=center;verticalLabelPosition=bottom;align=center;verticalAlign=top;fillColor=#ffffff;strokeColor=#000000;" parent="sh9PJ3uVSIfnWu05vSia-43" vertex="1">
          <mxGeometry x="780" y="374" width="40" height="25" as="geometry" />
        </mxCell>
        <mxCell id="jXLp81m_WxX2Bu4EoHyN-7" value="NextJS UI" style="swimlane;startSize=23;fontFamily=Verdana;" parent="1" vertex="1">
          <mxGeometry x="120" y="414" width="239.26" height="192" as="geometry" />
        </mxCell>
        <mxCell id="sh9PJ3uVSIfnWu05vSia-41" value="" style="shape=image;verticalLabelPosition=bottom;labelBackgroundColor=default;verticalAlign=top;aspect=fixed;imageAspect=0;image=data:image/png,iVBORw0KGgoAAAANSUhEUgAAAicAAAFbCAYAAAAOWC76AAAAAXNSR0IArs4c6QAAAARnQU1BAACxjwv8YQUAAAAJcEhZcwAACxMAAAsTAQCanBgAAAAhdEVYdENyZWF0aW9uIFRpbWUAMjAyMzowNjoyOSAxMDoyNjoxMbVW3lQAAJG7SURBVHhe7Z0JXFXV9sdjngdlUEDFeQAcs8whoTTLoQGotMGyEizFoXr938sSBMuezc5aWq9Myx5oppaZIpillSagWOaAqIAyyCTz4P/3O97Du15BQbgIl/X9fNbn3LPPOfeee84e1l577bVvEQRBEARBEARBEARBEARBEARBEARBEARBEARBEARBEARBEARBEARBEARBEARBEARBEARB0DNGmq0gCIKgZy5dunRFnWtkZHRJ81EQBC1EOREEQdAjLUUh0f2f2ogSJtQVUU4EQRD0CBvtlqiQVIcoKUJtEeVEEARBqDV1VUh0EQVFqA2inAiCIAjXpb5KCRHFRKgtopwIgiAINdIQSgkRxUSoC6KcCIIgtEAaSumoDlFEhPoiyokgCEILQl9KiSgkQkMiyokgCEILQB9KiSgkgr4Q5UQQBMHAEcVEaG6IciIIgtACaEgFRRQTQd+IciIIgiBUcT0lpj6KybW+WxQeQRtRTgRBEIQq9KVAaL7XWCOE31V5+aPyWRQUoQpRTgRBEAS9U1lZaYONLcQhNTX1Fnd391x8zoNCUszjopgI2qgarCAIgiA0OLSYUIAZdm2PHTvWytbW1gGfrZFmopwkCDqIciIIgiDoBSglbGNMsTWHmBw9erSC6fb29txWIo1aiyJMFwQVUU4EQRAEfUGlxB5bZygmdidOnDDu1q3bOeyfh0KSCylTzhIEHUQ5EQRBEPQCFBMO33hmZGQMio2N7dm/f39H7NPHJAdSCCmHCMJViHIiCIIgNCgcraHgo3VFRUXbDRs2dO3Ro4eLm5ubFdLKjYyMirCl1USGc4RqEeVEEARBaDCglJhiYwHh7BzL1atXV7q6uhbceeedbG+omFRAKiHiayLUiCgngiAIQoMB5cQa4gLpGBcXZ37hwoXskSNHHjQ2Nj6Iw2eRXnL5TEGoGVFOBEEQhIbEpaKiondycvI9K1as6Dl69GgrOzu7FCMjo9M4dgHb0sunCULNiHIiCIIg1JtL//MzcS4sLPR+6623hg4YMGBY3759WyGNTrAXoZjQaqJGhRWEGhHlRBAEQagXUEoYTE2JZ5Kbm2vz/vvvW+Gz47hx424pKyszxzH6mlAUXxPlIkEQBEEQBH1AawlD00OcIO2joqLuGDp06NNJSUmzy8vLn0baIAhjnQiCIAiCIOgfWk2gfPSC+MfFxf2Dism2bdvuwn53SBsqJhrLiiDUGhnWEQRBEOoD/UzaZ2dnD5w5c+b93t7eA0eMGGFnZGSUDsmCXMRx8TMR6oQoJ4IgCEKdoTUEYgaxyMjIsH311VftMzMz24eEhNiZmJjQ54T+JeJnIgiCIAiC/oHiYczhGogbh2/CwsIecHR0fD0hIeE/5eXl/8JxP6QzCJsgCIIgCIL+geJhBRlUWlo6ddeuXR927dp1KhUUpA2AdIE4QUERPxNBEARBEBoHKB+0mvjTUuLj45MYEBCwJD09fRwUEkeIJYTDPfRFEYQbQnxOBEEQhOtCZQNiDOHaOWbJyclWc+fOZXj61iEhIfbOzs5mSOdKwyVGRkZl4mci1AdRTgRBEITaQMXEFuKCz27z58+3/uGHH/ImT578V9++fc8grQAii/kJgiAIgtA4aIZyhtLPZMWKFYvt7e1fDQgImFRWVkZfEwZa86BlRXO6IAiCIAiCfoHy0aakpGR8dHT05x4eHvt9fHw+jIuLu5/pUEpUXxPxMxEEQRAEQX9Q2aA1BMIosB5QRp738/P73tLSMoXWk7KysjGac0QpEQRBEARB/0Dp4KwbRygm7XNycm4LDAycYWRkFBkcHLw/KyvrTaSP0JwqCA2KaLuCIAhCtUD5cMKmX35+/oD33nvP+Z133qns0qVLxebNmwvbtWt32MTE5C9jY+O/L58tCIIgCIKgZ2gxoQNsVFTUVw4ODr+7urouxOenkK4s6nfp0iVbzamCIAiCIAj6QeNDosQzoRISHR39sru7e4yRkdHJsLCwFUVFRSNwjMM9XFtHrO+CXpBpX4IgCEIVUDjMIa0gHqdPn24fHh5unZOTY+zr61s8adKkPAsLi1KcxgX9KiSmiaAvRDkRBEEQtLGHeFVWVvq9+eabI3/99deOZmZmuaGhofvbt29/AccKRCkRBEEQBKHR4FAO/UygjPzX2Nh4t7W19aKwsLBJSB/KY5cuXXLUnCoIgiAIgqAf6DsCUeKZQPpFRkaGMdAaDv0VEBDw5qlTp+hnYgvlxILnXL5KEARBEARBT1DpgDhB2jPqK6O/IjkeCsrR+Pj4CKQPglIiwdaERkN8TgRBEAQO1XRNTk6+MyIiwicxMdHJ2to697nnnkv19vbmSsPKKsPiayIIgiAIgt6hNaSysnJAbm7uK0FBQTvMzc33QQlZExAQ8Or58+cn0moC4UrEgiAIgiAI+kMzTEMfE1MoJkNCQ0MXWFhYHMWhRK1F/TwgHO6xuHyVIAiCIAiCnoDCYaVRPDx37dr1EKO/GhkZnWQk2OXLl8+D0tIPQidZ8TURBEEQBEH/QClxgww9fPjwY76+vnOgmEQiOTEwMHAPh3hwrNflMwVBEARBEBoBKiZUQqCYxGL3Vyonfn5+i5OSkqbi2AhIm8tnCoIgCIIg6AnNEI3iZ5KdnX0318rhUA4OHdAs6jeWFhMIrSpWl68SBEEQBEHQE1A4bGgRgXRZsWLF47a2tmuQnMYZOlBUQpFOxYSB1kwhEmpCEARBEAT9AsWjE2REdHT0VI0D7A4kp3FoJykp6UUqLbSuXD5bEARBEARBz0D5GAUl5G0fH59EzXBOIsPUR0ZGLiwvL38axz0unykIgiAIgqAnaAnhEA3EJD09fVxQUNAqJGdC4i0tLVeHhoa+TKUF4gPhisSCIAiCIAj6gYoJFA76mbhAPLm6sKmp6Vc4lAfZwyiwKSkpAzTH7XG+qXKhIAiCIAiCPqDFBEqH4mcSFRX1FP1MjI2Nd+NQnru7+zb6nuBYe1pVeC6VmctXCoIgCIIg6AEoG2ZlZWUPcGVhrjCMpGTIWUjaihUrPi8qKgqGctJGlBJBEARBEPQKlQ1aQqB4WDACrJ+fH6cMcyiHjrCRQUFBb2kt6id+JoIgCIIg6A+NUmIPYSC1XsHBwdOhkGzFoTIO6Tg6Or5+8OBBPxzrAnGideXylYIgCIIgCHoACocFxIfDOZyJowm0dgBS5uDgsHn58uVTcNyFSgmEviYypCMIgiAIgv6A4kGryfioqKivLC0tU5DEacMc0ikJDg6OzMzMfAYKiSPPFQRBEARB0Bu0gGjEkX4mPj4+m5FcDKEDbLy3t3cMHWOhuDCmiQ2vEQRBEARB0AtQSEyhcDhBOuXk5Nzm6+s7RzNluBzyq7W19aJdu3bRAZarDTNEvblyoSAIgiAIgj6AsmELpWNASUnJ+KCgoFDOyEHyX5AyzeycyZmZme1oVcF5VtiKn4kgCIIgCPoDCkcbKiaMXWJhYcF4JmkQ+pkU+/r6fpWUlPQ4zuFqw8rQD68RBEEQBEFocDTKBqcOu0VFRU1j1FckF0GomGRjPy06OvpzHPfHeTJlWBAEQRAE/UFlA8JhmvanTp0a4uPj8waS90KonMRzDZ3Q0NAFtKjgnD4414TXCYIgCIIg6AWNYjKIkV4DAgLeNDIy2oTkY5A8fvbz85uB41xp2JPnQmQ4RxAEQRAE/UGLSUZGxtTQ0ND/Qhk5iSTGM6HVJNvb2/uTXbt2PURrCUQW9BMEQRAEQX9Q0aBAOemyfPny/3N3d49BcpkqFhYWWXSMLSsrG6Oey+sEQRAEQRAaHCga5hAO53hwfRwXF5c3kczQ9GqwtQOBgYGbcnNzX8E5g7AvCIIgCIKgP6BwMNDaIEaA9fX1XYAkRoFNhmQz6JqPj8+HcXFxz+McBlvrxGsEQRAEQRD0BhSO7vQz4Ro52KXz6zkI/UzSucDfihUrGM/EE0IlRkLUC4IgCIKgH1TfESgcPmFhYaEWFhZxSKaPCcPTV0DOQmFZnJ2dfTfOk9WGBUEQBEHQH1BIGNlV8TOJiooa6+rquhDJiZASSCZn6mgt6jeISokoJoIgCIIg6A0oHG5QNvyio6On0qcEysgOJDM8fTZkr6Wl5erIyMhXysrKHsC54mciCIIgCIJ+gcIxICkpabavr28sdjkjh0oJrSbJVEzCwsIm4ZzuVGIg4mciCIIgCIJ+UIdncnJybgsKCnpLs6Af/UsqeRhyjDN2GLoe50mwNUEQBEEQ9AeUDDq12lZWVjqtWLHiPmtr60WaKLBUTmg1KbC3t0+Ijo6eh3PEz0QQBEEQBP0ChYPTgUdwpWE6wDKGCZIZnp6rDR/jflhY2IqioqJgnNeL1wiCIAiCIOgFWkBoDeHsGx8fn9+QpPqZcOrwWS7qFxAQ8Or58+cDeB7EBemCIAiCIAgNjzo8c+rUqRFQQJYgiYqJ6mNCSYTC8sbRo0eplNhAOM3YBOmCYFAYa7aCIAjCTUSjaNhBnD/99FOb7777zgrJquKhKCcWFhZl06ZNu9S9e/cSIyOjYgitKVReBEEQBEEQGhYoJ90Zq4QrDXOKMJJ+hdDHhOHpGab+GBf1Ky0tncpzsS8IgiAIgqA/oHCMiI6OfpuzcLDLIGtUTBienkM70d7e3p/ExcX9g+dB3JAmCIIgCILQsKg+JhBjKB73+/r60mJC51dtP5N4Kyurt7Zt23YXlBJ1UT8LpAuCIAiCIDQsUErMoGjQsdU+ODh4vJGR0RokUzmhUkIFpdLc3Hwfjv0T5/SiUoJrTKnM4JggCIIgCELDAQXDBMqGT0lJyfigoKBQU1PTr5AcD6GPCR1dCyDZfn5+3yclJb2IczvhGgm2JgiCIAiCfoCSYVZWVjYmMjJyoZWV1Z9IotMr/UwYBZYB1/6yt7ffyeNQTMZDPEQxEVoKDZLRNQVGWwjNkrqoY6i3GBkZVXdcaOJcp3K81rHaou98Ud09NuW8eM37rakc6bwn9bPulteqoiDlUv9o1ZfmMTExj4SEhIxLTEx8CPtmmnRy1NTUNG727Nm/z5kz55iJickppJ0yNjam8lJFPZSVG73uZqN9380lr2rfMz9r37dS/qTcXU29MqhWIeMYqGVSUpKVg4ODWVpampG3t3c59qvm33fu3Lnk2LFjlV27di3Di6AHuuLwhc8yR7+ZgHfMcW4uMGZ6OUWJk8P3d80t3rEJ3j0/36J5/1X7KkzHpuq6s2fPVrZr1+4WbG+pZluJrXEd0tVt1f3gP1So2+p+T0Wzf6O/d70t/2u14LjyveT48eNstPiM+Fl9VvwfvHdWavxcVbnhP7FMMj4GF4Iz4fW8luWTx1lGMzIyTM3NzYs6deqkDiGo38fnIhWlntC8G66bY4b3YfvUU0/d98svv9yP/QeRrparW6CE/HTnnXf+uHbt2vUeHh7pOM5yw7gmfEcKmu9iHlbedU15TDsvgaoyxm01eatWW5W6pqvoHtc9r1u3bsy7zJNXbU+ePGnB9oT7PJfXqeer+zVRze9UXqsuwrnK87ke/B78flWdol7H++L9KicBlr3c3Fx+vwLLH64pxUeKKClaMHPfEHgBLGCs7CygjLSfPn16n6ysrF54uJx/X84XpJwI1BeGbQa26RMmTEifPHnyGfQGknD4JAoiF7ISmjB4bxzr7hAbG9t/7ty5g5HkefmIcKOgPNSonBA876pKk2VI8/Ecy1CPHj3+fuedd87Y2dnR/H8Ox/N5EFscvmQJccvPz3d75ZVX2v/9999tcKgb5H9a12XYSWBFWYHee0JAQMAfuP4AJEc5KjQ4mnfjVVZW1g3PvN+qVau6YZ9r4/SAsD5mnih3d3ePXbx48WZ/f/9v8D443MNGS2m8gFJvY+u6cePGgYsWLRqO3Rsuj/jOOkeYxW8rDbFm97rwfG5v5Lf0hXpP+kLnv1YpnhpY9m5BHvgtMDDwd9zL7zi/ECLKSX3Bw6Ry4lhZWdnm4MGDfi4uLm8i+QCEL5wVnrYwjZLOsVUUvBiuG8HxVlxvj++5YSVJaBz4jvCu+kRGRoZZWFjEIYmVaE2iVKQi15WantW1nmEyKrCtXCr//PnzE/FOhkJc+H60xBJpnlxqPyoqaixXtMV1DOil/T38DbWsFqNMbouOjmZwr/a4XpkNwu/CMaEBwfO1Z6C1FStWLEY5OookxjDhUA3fh+JnwkX9QkNDF+Bcf4iT5p1WvQt1H8e647yXOZuHyVoiZbBpi1ruSvD+/lteXv403qcj9gUtrjBn1RGasWiSKsA2GwWO5mFqgyxE1BipKarC36G0Lioq6pSamnrb0qVLvS5cuOCE65V7YGHjVmiaXEOj53vTFaF21PSsrvcMjbOyslRT8RVlWPOeGNr8rIODw0H0vH974oknErBf1fvmeYC/wWtZVs1RJm3Dw8Od0tLSqOi0gthqjgkNAOs3CjDes2ePw5IlSzqWlJR0xSF3CJ8130cKjv+OdxaJHvVP2D8GKYZcAc5R3yEbueqQMti0ofLItrIEnQK2m0I1XFGx1RGWtAoUOMWHBFo8H/j14O+ZQyw//vhjsw0bNljjelaATL+idyA0edSGTq0ohUYC5aTcycmppLCwkI0Tx6qvQNN4KZYRfOZaLKa+vr7Kvka0yyrLHMX5559/9v7oo4/GVVRUcNiODScbTaGeaOo11nG0SJm9/vrrxomJidxX6j2N8L1loLHa/8Ybb3zr7Oy8F0lJSKOfifgiGB5KGUSnQPEDE66GhaM+oMwYKQWrlqgFkSZjp6VLl7bfvn17H3zuDuGy37VyPhKaDHV590IDgOJGhaMyKyuLZmGVqzoGOEf1Tyjr06fPyYULFx5Cw7cTh45A0iG6jV2b8vLyW995552RmzZtGoF9+kLYQOQd1x8+x76lpaUBU6ZMeUnjANtFc0zlkr29fREUl+IePXoU4N3lQWg1uerdCgYB214TsZzUTH2Vk/rgjN5Db/TURl64cOEO7HdEgbW8fEhoBqiNljReNwFaTjQfq6AyovlYBdKoxJzo0KFDTGho6Oc2NjbskZ+G6DZ6tJK4V1RU9Jk7d27nhISE9thneRSLZj3B87OiA+ynn346bP369WOxfxuSOZxDaPkqhOSOGDEiPyAggE6RfGfKjMbq3qnW+5Bht+YJ2126O5iI5aRm6q2c1KPi4gyC3hs2bBgZGRk5AJ87QhiaWSrC5g0rU1as7PWx0uUsEl1hek3C63SFDXFDiTptT59S3e9W979U0X0Gus+I5/B71VlwZZmZmZXW1tZMVywo1TViGjjsesbR0fG3e+65Z2e/fv32ch/puuezobMsKSmx/fvvv10iIiJoxbTC71HMIdIQ1hHWZRR8NP3zzz9bLV68uHdeXh5n5nhAqAzyHeRCznh7e8eHhYUdb926dRauuRFrCa9Rh+0oLIMU3bxZW1Gvr63oXq+b/6tL1y4D/A7+h5ryMeFx7d9Sv0P9PjW9rqL9P64n1V2vLeq96AqP8Xrtd1MhlpOauWFFAAVIMUtR4uLiuvj6+j6Igse5+uwVkOt9N18SM2IRXtAvX3zxxbd+fn4bUXHSce9ala1wk6isrOwDZdL/iSee8Ecj1keTrPueKywtLc936dKFTpmcfaCA/MJGlu/VWkn4Hzaa7VXgmobuVTTmsKH2sMtV4DlUVykxXLkuyvPBs7DHxgzX0erxS/fu3ePQE//bzs7uPPYzdINz6YLr+Z7MEhMTA8ePH/9QNUG/iFrmDkHxiX3//fe/Cw4OTsY+pxbn4DekIq0lmuetCD63vfvuuwNjYmL4zO/icQ2sAw/Y2Ngc/Pzzzw/5+/vTAZbB1pKvFV5B/W5sO61cuTJwyZIlY0xNTQdePnqZ8vLyi5qP18yH1VCfMqL7W+q+7ndWncdygP/Bcm6N/2AbHx+vWOu0RIV5s8TCwqKwa9euSl0CdH/vRu79Rv/vtZ5rdcf4O2b8j5p3QwtZUUhISDTKWDT2d16vDLc0tF9+nUCGqotyolZ6umkUasM/BQYGfrNw4cJtUFQYs4FaJnt8LLxCE+E6yon6PvPwLnfPmTPnJysrq594wNbW9orCevHixSsqBFQ4Vb1yfG+F9n5DgzzVKEOZKB916v3yf2s+Ks9L+xnxeaj3jcqtEN99EeWE1hUqMywnpbUpK7jODBXjPZs2bbp34sSJo4qKijh9kcoPRfu5UOFJQm/+NBq+Q8OGDUswMTE5gMoz5fJh4XqgrFCZ7FBRUdFh3rx5vSD98PxpIfZSTrhMOd7bd0FBQTtWrFixBftVjRbkmvkH30XlhIp+a86wKisra8V0XFejUtOY4N6uuH/cV1WQNF2gCLcuKCjok5SU1BMKWq/c3FzmS2eI9vRaWhp+cnFx2fv7779Hq/9T/U5+P7c3k5r+H1HvD+dY8N7Vczt06MAOXDbSKPyPQn3Bw2VmY6wTy4MHD3rb29vPRjJjKfChU9TGqibhOaxQ1d4DyueKx5Exh6Bgd4LU2KMWbg5UTqqJc6L7PjMDAgJWp6enj9PkEcW0rSMMyle1j2uq0E5vwVLTc1PSNY+qzuBaZaE5xtkICwsLRWXIFXAZm4gWEe2yyf1MHD9Ja2ZGRgbjn/Sqz2+3NDIzM9vxOXNdHK6Pg6REJkO0y0oeFMD1hw8ffgzPlsHZ6vV+Ca+vz3eo19+IaL7imlR3HfJWGz4rKCfz8Kw24DS2I9pT3ylUwiO7du3KvOgC4UrOdAO4qqzgXMEA0Je2qZ1BtAujdoOmjTN6cV7oXYxEBh2CfUaz5DRjyWzNC74rbauH8p5RqSgzR7SEM06q9pUzNWint2BRHCGrkWodJOsAy16SiYnJ3gkTJnw+ZMiQHfi+JKTpmqEZQ8URZa99TEyM++zZs53z8vLoI8GpsIpiqZwlVAufT+vWrS0SExPdoQT2xbOjwz9n59ASwHdACwkDUqaEh4ef69GjB/1OlFlY9Xy/VeVHs1tn1OtvRDRfcU1quK4SeZK+I0VQOBRrIKQ6K4JqTTTHdfystF/VfJ9gADSYcmIMNB91FRMqJRymKezbty97ZMx02goKz3dGpuyG3sbQiIiIARcuXFAdxpTvksqw+WBhYSGVQxNFU3lz2CCzZ8+ep994441cd3d3dRVcvjftMsnyTEXT9osvvrDat2+fLcohFRZaNHVDcQuA9RREfW4mqMtaHTt2jD4UHH6hwsd0NryMX/LzK6+88u3999//i6mpaSrSWCe2VPjfmQfpf0LlhO0F92uCjuGqIif1jYFSX+WkOsuGdmZhpmOvgCGa/3zxxRcPBQYGcqYATXbZEGrLPIeB2exLSkq4VoTrokWLWmPfDt+tzBTAZ1FOmgl4h/KumjAaBUWp1H19fQvnzJlTYGlpSQdDdhzYcGorKBSXoqKiO19++eWJCQkJT1dUVAxDmVSnwQpa4LmwzuqRk5MzPDw8fAjqMq/S0lLdsOT0DzqGZ7977ty5q83MzPYgjU6wLVk5IcpMFzw/Pp/rPQtTnNNgHWuhadIQL5hjfro9KbWC45YKCAMKXbCzs0ueNm3aL97e3j8bGxsfQRod76gh8z7Ys2DvrNWKFSu4wFxn7HeAtEZa1aqOQpPmkoWFxRUVC96xtrIqNBE07yXz6aefPjRx4sQd1tbW9D3hTCBdh0o7SPfjx48PnTdv3p2FhYXeuFZxvhSuwqGsrKzPzp07R3344YeBqLfoNE7HTm04fTQvLCzsNJ4jhQHx8lt6OcH/V4aDsWVntFbg+aoKtGCANIb2SeWDQzkFrVu3Pnfrrbcemj59+iY0Yj8jc7HHwGPMYLwXzkpolZGR4bF48eLbsOX0OCooutNPhZtPtZVpSUmJjPs2H9JQDvejwxDZqVOnH/De/kaa7nRmdgxa4712/u6777qvW7fOPi8vj/5g4n9yNbapqanuqLsG5+bmqksAOEBYHpShbUjB5MmTS2m1wmcqgpyxc60hjJYAO7hUTiwqKio4XZ4KiqKsaODz0+70KHkPW7GeGDD1erk1VExqw6TbQNGBKdPOzu6PKVOmfHvffff9hkzIqYkstCocJuKiY702bNgweOPGjbcjjcHZZOXipg/fNy0n8p6aCSh/nLYf37dv320RERFxLi4ux5FMS6c2fJ9sCEyKi4stXn75ZYcdO3awjLLRZXyKFu1/wnoJoliP8Sz5fJz37dvHZ8OhaXaq+HyofCjB1gIDA0+99NJLJ/BZiRmDa3TryZYK85iVqampeWVlZY3tUkFBAY+JUtICqNdLrmXBUoZrrKysWKEpwzPYloWFhZV7eXlxjJvCwkvNmN9HR1iGzu6DCrN3TExMO3ymE151/i1C0+ISLSeaz0ITR1N+We7K77777qIXXniBMRjYWaA1k2VS+12y/NlyVt2iRYuGJyQkPIK0gUhzvXy4xcLprKzbPFauXNl227ZtdigDaiAxlYvGxsZ/+fj4bJszZ84X7KAh7awoJnWCCqDaXikKCp6ftAcGTH01UJrwOQVOe1ViNcNwS+FvaJvoWClW9unTpzAkJCTF3t6ezrH0PWFQKX4Hz6Uy4pCamtoqPDzcNT8/nwGNaD1hLACZKdCEEctJ8wJlURmGc3BwyHnttdcSfH196XuSAKFV8yr/E5S/nvv27bt32bJlIysqKjhFlstQtFjwPNrgOQzasGHDo/PmzXu0sLCQgdZoNdGmDOclo777DfUeo4EexjPPuHxIuAGUIR080/q2X0ITpj4vl1q/2vMi1fUC1OMV6HFpD9+wQsx65JFHTk6YMCEWnw8hjdPpWBlqKzTWBw4ccH///fe75+XlMbIiZwnQsiI0UcRy0mxJMzU15fou36KH/z3KJFcvZodBG/oCuOAdd/vss896r1q1ygPnsdPAhqKlWjadzp492w/PbWxKSsoo7HtDVD8TWp84++RiUFBQzvjx4zmMxmnEDMamhmAXro1an6jtTBV4jlelCYZDY2ieNBFTGOGP660ozl+oyFJat279+wsvvBDl5eW1B+kc71bGYTWwomt18eLF7pGRkaP/+OOPu9FD8cZ1NKFK77yJIpaT5gnKXzrkd19f30j08PdYWVlxnRf6SbBxUBsI1hf0HbOCgmKzePFim/j4eFpT2GHgkO0VFlJDhfWPRozz8/Mt58+fb3f8+HE3HKJQMaESx3qOyl2Gu7v7hWnTpmU7ODhUOcBCpGHVAnV7XSziqhuAYMA0hnLCgmqKys4GhZnjs0oFhsLJxcSS+vXrFzd9+vQD1tbWadin/4k2nMbYJTEx8Y4lS5bcl5OTw8ixyjRGVg7cCk0LsZw0W1jZKx2Ixx57LO+JJ57grB21EdBWUFjuKJZHjhxxioiI8EED7YPy2AnChrklQEsRV2q2+vLLL+3Xrl1rU1paqkYsVeslKnYHUa9tWLRo0ae9e/eOxb74mVRPVTtkYmLC9oLPskUoukLN6Fs5YUHlb5iXl5cz06m9K6azB0FLSf7TTz9d9o9//IMKixpBlpUiCzG1aVZ4rlFRUVxynM53VZWAKChNDiOxnDRP2GhqpNLOzq549uzZ6X5+fhyCYOwTBkzUHpYl7Gz02Lhx44j333//KSildyLN8/Ihwwb/m+ENfGNiYp4ODQ0dXVxczEX96BenDYPbJT355JM/+/v7/4h9DpNVrdItXAXregbdZP3Oz9eqR9iG6LvtEm4y9XnBSuaphYLAjMS1EOjBrmu+owJSiQYtGwX4uK+v71HsM9YCnWRpAuX98XrOIrB69913rWJjY93wmwzMRlMyM7LQhBDLiUGQ1a5du6Nczt3d3T0G+39BdJdzZ9lrj3LY7+233/bdt28ffcKcWR/Uok5o7rgmJycPDA8PH5+enj6msrKyJ9Jo5SXM/5TSQYMGZb7wwgt09k9G/cWFFLWHrYVqwDNSlZPrtk3IZ6KgGDAN+XKrq5DUNBNjY2MqGLSekKpzkcaCnNG3b9/906dP/9LV1XUH9rWDQSnnIiOaFxUVMcBRr9OnTzPyYgekqRWC0EQQy4lBkG5iYvJ7QEBA5OTJk7+xsbE5jLQLlw9VwU4D45w4onF2hSJjn5CQQMsoRQ2SZVBQ6aJAAbf9z3/+wyjWjMFEcYKwUVWGxiAl9vb2RajPLnE9MdRxdIrlkJn4SVSPMfKb0gmFSIdTUKivcoLydsNzzbUVlPMo9H/4+/tvRU9jJyrDv5Gm3VPjufQ1GbBly5YHP/nkk+fLy8uH4xz23KQxbBrwPbDiFstJMwflqhhyAXImODj47L333puFZFoyq3u3xnjnZkePHrVeunRpm5SUFHYaOJWWJnqDKZv4L6oV1+yzzz4ze+eddzjMpfjTQXiM/5VpF6ysrE7NmjXr6D333MPnRuVEysSNo+YhsZK0MOr9wmtZAVWgd1UVM6Gaa+h/UgDJe/bZZy8MHDgwF+eofidqwaYzbRuc02316tWd9uzZw+EdxXJSy3sQGgGxnDR/2JhCWP4q3NzcSsPCwip8fHxYfjkswS2PEb5rill5eXmvr7/++p7NmzdPxL4fyiTXxjKYBgX/h4EhhyUmJgbSOb+wsNAH+8pQtRY5eG6Jt99++7fPPPPMLnt7+9+RJvFMBOEGqG/lUdUQGQPNR22oWHDaXAV6V8qKk5eTrwTHae6klLdv375w0aJFJR4eHvR2pylZdZLl91viaxzQO3OJiIhwzM3NNcN3svfCNT4MpiJszlx+zZeVRTZySqLQLNG8v4LevXsnzp07dy8a233YZ+h13fgnNMV75OXl3fbGG2+MPnToEGN9tIUYUplsm5mZeWtISMhThw8fvgv73SG6a37luri4KM/K09NzB8oBfeh0fXWEq5HhLuEqGqXyQCGtMDc3Z0VXYmJiQkXjKrQasiJvb+8TkydP3m9tbU0P9zNMg7DB4/1SLGJjYx0//PBDes274/sZ+4Tj38LNhbN1REk0IFAuOVMnccSIEZsmTJjwDfYZel131gmHOxxRBj3QcegeHh7eNTk5mc6xnG5L/5NmnSdw/0YVFRVOS5Ys6RYTE9MPSXSApfJFpUzpgEFYr+W+8MILWb6+vsfxnE5AzkMk2FotwPPlM6RVTjecRHXw3Eo8W1FqDJiGqDSURa80n3VhwWUGKjU1NVWtJrSkqIrIFWjSU4yNjXe/+OKLq/v3778aaTSN0uNdhUoKV0XttGrVquGoLEYjX9+GNFYWQuNRZTXTpqSkpNp0odmSizL4p6Oj457Q0NAfvLy8OHOHFk2WVe1yrPhjQCw2btxoPn/+fFoVbFFOWVZp4Wx2+YL3DGEdafTtt98aob6hlZZDOYq1lukQNqZUQLKhlBSHhIQo8WHwzJRAa5o6Tagb1XZghZZFY/RoFO0WykltNGIqKCzo6Q4ODsc++eSTv5ydnRlngYqNdiGnV3dX9NIGcTpfYWGhYkZujhWgoWFhYVH1nuR9NH80jSvLcJm7u3vF2rVrS7DV9j3R7r3yfZuYm5t3XbNmzeANGzY8hY6DH9I6Iy+oM/WaBRrFhNYfr7i4uOFQzPqlpqYyAqzu/8jAM/rNx8dn3cKFC79EfcW1iXRnNgmCUEcaQzlRGqv8/Pza9iDY46CCktetW7eiiIiIXFR2HONmZUiNmpUhe2icvdOR0/nef//9LvhctXIxBZ+Fm4BYTgwPKigaJaW4T58+Z4KCgv6ytramRZP+J7o+FZy9415cXHwH15s5cuTIQCgonXB9c5siyrqxc1ZW1vB58+ZNxP+4C/VKV6TpWolzraysjoRcXtRvD85h2P+Llw8J9UBb6dVFOYZnXds2RWiGNIZyojRWdnZ2uo1WtRlLrQghzIDFkyZNyhk3btxJfGbsEw7vFPM0CCs7mljt33vvPRsoKTQf04zMtJqGmQQ9o205EQyOfJTLo1OnTt3+5JNPbjU1NY1DmvaQK2HZZFTn9omJiQOWLl3qdeHCBcYBoe9Jc+o4GEOparNkyZI+W7dufQj3fTvS6OOmKlnM55fYcbrvvvvS7r//fg530c+ElhQJtlZ/rtc2XUt5EQyAhlBOOK56rTFC5TfKy8t1e061qaSy0NjtDw0N/dLb2/tr/M4+iFoZ8nqKSUFBgVV4eHiH1NRU+p0wxD1DazeXStCgEMuJ4YKyRwvmIVdX1y0vvvji+jZt2uzFPlcT14VDH4zgbPvxxx+bLVu2jLPpWP6VmCBNuWzy3jRi/O233zquWrXKAXla+S8Q/i/eOxUTNo4V3bp1K0b9VObm5kbfHMaHYcA1aTj1T2N0rIWbSH1f8PV6ydVVQnQkqxWsDCEn+/Tpw+ixBywtLY+h0uDsAaXXwlMgdLbrFhsbexsqwgnYvwP77bCVzHsTEMuJ4YKyqDbK5T169ChbtGhRubu7O/3B1OFW7XfPsslGvi2UE5bPofjcG8LZdU3S/wT3RcWJqyy7oqPj+c9//tMWW66Zw7pEuy7jsE2Kvb39n6iXTvv4+DCWCZUSyfuNAxVdYzzv6toXwUCodwOuFshKoCRUT60VEh3oREsFJTM4OPjkxIkTuZIxK0O1IqQwozIg24B33nlnZExMDIMjtYE06R6aoSKWE8OG5R3C8lc6bty4zKCgoFNQSBOxfxbC2ES6tM3IyPANDw9/NDk5+T7sd8f1TXXaP5WmrrjfUTNmzHj6xIkT96JDVF0wOU4RjnvxxRcjn3nmma3GxsZ/YV839ougZ6hMaj4KBoi+X67ak1AiSjo5OXFf+VwbWBFio/TUIGWvvvpqPnopjLFAoSMeFRX+B45xd6yoqPBGT8YDlYsDMm6TNyEbImI5aTGUmJmZHZs0adLusWPHbkVZ1Z3yr8KOgve+fft833rrrQHow7RDmWS056ZYLi1Rh7TbuHHjPZDHcI+Di4qK6Geifa/M35nDhw/f/+yzz0bjGTAw3XGIuhaYIAgNQGNonteyqFwXKigaJaXY09Mzbdq0aXHu7u50xOMUYyoorDhoPWH0WOsjR47YL1u2jKZYOsjSObZZxlhorojlpGWAMnkRcgRlcgsa6dVt27aNwX6S5rA2tEY4FBcXt/3qq69affzxxyyTFCWqc1Mom7wH9T727NnjsGTJEgZ1pFJCR15aeXhM7VhVODg45M6YMeNC+/btk/Cfz0C4DlGtQiUINw6esVhKWhDN6WVTEfnjscce+3bcuHGfWltbx2Kf0WMJKw/+F84IaLt8+fL+6PmMxX4/7HswHSI0AmI5aRmgoVCGdrAtGDNmTC6dQu3t7Wnh5PvXzgMsm0r5hIJi8+qrr7rEx8d3YrmEMByArqN8o4J74L1x2Nni5MmTFkFBQXaJiYmsS5jGLY8TzsChxfbUzJkz8zmkhc/K/8UzkDxfT7RWJSY11tfGxsY8T303ggHTGC+4QX4DFQCnECvB2VARHuzUqdN5ZFSaUrUrBv5W+/T09FtxztisrKw7cJ0nKqAm6YBniIjlpOVABQWiREN99tlnc8aPH89YRHQWVWMSXUFpaalTbm7ubcuWLbs3IyNjOJIYN0R3fZpGBXUDf98HdcaYBQsWTDp16tRwpHW8fPQKUvE/D/j5+W3jon5mZmankCYrDjcM2m3ETVVWhaaDvpWT6hoqar11RlMJUkHJdXd3z1+8eHG2nZ0dg7VpB2fj7zlDep44cWIY18JAhciVjJWhHU0vSdAjYjlpeaBclaGxzpw2bdoRHx8fWjQTIPQ/0R3SZdns/dlnn921ceNGxg3piGsZPPFmwuHfHrifu7766qsnKioqeF/ulw9dwXlnZ+e4f/3rXxs8PT13Yf+Upj4S9ENjdJyFJkxjZQCT4uL6l2OtXkr50KFDs2bNmsXeSzIkC6IGZ+N4Nse4nT/44APXLVu20PmO2rg4yDYCYjlpeaBcsoNwuHfv3l+/++677zs6Om7GPoMm6iondFTvgA7DrS+99FLfDRs20K+DMYluiv+J5vdMY2JinNDZ6Z2Xl9eL94c0OtgT1jeUSgcHh+ypU6ceGzVqVAL+7zEIpw+Ln0kDg+ev1tVCC6fZaacaBaXQ3NxciVTp6+u71tTUNAZpVFQIKxxaZ0zz8/PtUek4pqam0sGtNYS9NNHI9YhYTloktGqyg8DG+8DMmTPPYr+69WVYNln+TMrLy83DwsLM09LSGNyMsUXoeHpDVtW6gt9SgqzhoyIRERGmiYmJVKRUfwZVSWJephNsaf/+/cunT5+Ov2WkOMXymKYuEuqP1MnCVTRGplAqIygQun4fN1ywUSmwp3bKxcXl1w8++OBba2vreOzTjKx+p1IJogJyYXC2jz766P6KiopBSKMZmZYVQU+I5aTlwUYaUg6hg2wxOg15/v7+nOavHaBNhfnDqKyszPXIkSP9586dOy49Pf1upPVA2VQtFnoFv0NlyAcK0r34/QmsI5DMKc/aeZd1CQM+nvLw8EhcuHDhIQcHhyxcp6w0TFHOEhoCXQubINRfOUFhbfRCyooQmzxsz/Xr1+/sggULOJWPQZCYyXk/6j0xOFsfVCz3bNq0aQgUFDq6WSJNGlA9IZaTloumwb6ETkNuWFjYcW9vb3VxQFpVrohvhDLYytzcvPfatWtH0t+jsrKyN5IZAqAxoAW11+rVq0e/++67D+JeqJzo+pmwLkmxtbXd9/rrr3/ds2fPRBMTE/qZUOESGhaxnAhXUd9Mod0Q1aVRqncDhkqClYcyWyAgIKAQPTXO3GEEWW7VCoRTFbvm5uYOWrJkSY/ExERWQLTgiHOsnhDLSYuHSsgZLy+vfSEhIV/a2NhwyJXxT3T9M+yQVzwLCwv7zZs3bzDKJlcWp0VDr74nmu+2TkhIaE8/E/w+HWD527qKEa0jp+69997fp0yZ8o2ZmdlupHHoWJSThkcsJ8JV1Ec5qa2CwYxXUV5e3uCFmj01UObq6noGFeEB9NR2Ill7pgDHjzmWbR8bG2u3bNkyOltROaHDFZ3wpCFtYMRy0rJhpwGSZGJisuv5559f+8QTT+zCPp1jdZUTlk2WRZvMzEzTGTNmlKWlpbFcqmWzwXvTmvJulJqaahIREWEGhYhxNXgPvBf195h/WXeUQ8EqDg8Pp+MrA62lQxh4ThrShudG3nWD5w+hadHQL5gFt9rGydKyytWjyryLgt4QFpRSVDrHBgwYsHv69OmfWllZ/WRsbMwZPLwXpTKCsDfW6ptvvum6ceNGH3ymcMhH/E8aGLGcCID+J5w9V/jGG28UDB8+nB0Tim79oJTN0tJS+wMHDnT/6KOP+uTl5Q1EueR6Ng06xFNZWclZQR1zc3Nv/fjjj4f88MMPnkjmb6h1BOH9MU5LFuqRU1BMzvXo0aMA/0XxmxHFRG/U9blSmWTdLwqKAVPvl4sMUpOCoZ1+xXhzA8OKI9Pe3v5ocHDwwdGjRx9FJZR++dAVOGdkZHiHhoYGaoKz0ZTLGAfSmDYgYjkRWCdopNLZ2bkoLCwsC+UzFYdYLtn46/qf2F+8eLE7lIZxP/744z1I8kYah2QbEseKioreO3bsGLNq1ap7CwoK+iPN5fKhKliXKMHWJk6cuGPs2LH0M+GChooTrHKGoA9EyRCuot6Z4jqNOwu0XnsbmkqQswS4enF2REREiZeXFys/9tS0Zwo44159EhMT73zttdfuRkVV1XMSBaXhEMuJoEPG8OHDE2fNmvW9g4PDfuxzyQnOttOGs3R6paamDoMic1dycnIv7HP6f0OWzVYo+935/SkpKVzaog/TlCP/gxafJNzvL7Nnz/4GivYvSEuBiMVEv9T2+dICrg7BqW2X1DcGSn2UkzplClNTU70FLNIoKFSELnGcePr06SWWlpZ0juV6GFRSeIxDOFzIq8OWLVuc0Uvj1EH6oCgZXRSUhkEsJ4IOR01MTDY9/fTT7999992foFxyFV/OrNOGDQ5n0DhDgWg7f/58u7y8PKYpZbI+ZVNVcNLS0szpZ3L8+HFHJDO2Cv1NtIN9Md+Wuru7p82YMeOPDh067EGdchSSqalbBP1Rp3YI70NbOREMlMZ4wY1ZsKmB/+Xv7//NU089tQiZeBP26SDLnhorOFZ4puihWS1dutT+9OnTtKY4QVgxSlTCBkAsJ4I2KIPslFzs3LlzdmhoaHbXrl2pmNCiyXpBrRuYZyjGON983bp1rb766qtuKJftIQyeeEO+YbxOc33HzZs3u27bts0N+ZPfpf4e4T3wftiJKZ48eXLpAw88wM4O71vb8iroD3nGwlU0mvaZn5/fGEoKx4bTGJwNFeHGLl267MU+zcisaKoqQIjDqVOnPN98802v3Nxcb+xz5eKbvcaHQSCWE0EblD+WSTbyZX379q1YtGhRqb29PaPH5kLYaVD9TxRlAYqEbWFhoeecOXO8Y2NjuThgT0hrHqsr+C4XBl/csGHDw/PmzXu0uLi4H5J1v4u/z3s54+vr+/eMGTOyTE1NuWaX6jcj+Vn/iBVEuIr6ZgqUXSO1B3JN7OzsanVefdBUJAzOdt7DwyNpwYIFye7u7nlIYwVE7VytaBwvXrzY9csvv/TduXPnnajA2EsT5aQBEMuJUB2aspk7ePDg4+PHjz9obW19CPt0NtX1P2E57JGRkeEbHh4+Kisrqy+udUH5vBH/E5cjR47csXjx4nEpKSljKisrqZzo+plw6DcZ9cX+sLCw3a1atUrA75zX3K/QOIjlRLiKhtRYr1VxsOfUKKBSYUanMlJO8yzNtPjMClA10bLSYQXVEwrKSDrI0VEO+/Y3WAEKWojlRKgJlM3TyB8xr7322srbb7890tTU9ACSGSKeeYbCssehmPbY3hoTE0PFwjMnJ4fWDqVc1qZ8quU4Pz/fcsmSJWb79u1ri2TOzKGvie7wbTHu6wjqiR/8/PzWYH839mltFRqPOrVDeLesx0WhMXAa2px23e9DwafioFdzqfrdJiYmWZMmTTqKSmcvdg9DzkGorLCCYkXVGooJ/U+s8/LyuK84yNamAhSqRywnwjXgNOIzHTp0OPyvf/3rUOvWrRkskZYLbZh/WI+wLFq99957DtHR0VYok+xQ0KrC9BrBeWYQa3x0+PLLL+3Xrl1rU1paqjq+a+dN1hFs4Er9/f1zp02blonPDLbGUPu69yTolypFA89fbxMnhOZFQysnNVHVW0HFoQTQ0TcaBSW9Y8eOB6dPn77R1dV1D/YZqZIVD/8374mVlsO6devcd+7cyeXSuTCgq6ZyE24AsZwINYEyqQRng+SPGjWqMDw8PM/e3p7lkUoLOw3suKjKCcWS/iehoaH9EhIShqBcdodwxl2NsPxiMyAmJub+OXPm3FlUVOSFNHY8tKEVlb+Z7uHhcS4sLOyCs7NzNu8NaWXY8j4EQbiJNIZycjN70umomA6hZxT7wgsvHLS1tWXMAu0xbt6bQ0FBAeMfDEAFyNVRvSCcbijcAGI5Ea4FGn7Vapo3adKkM/Q/MTc3P4I0BmmjI6oK8xGjunY6cuTIsHnz5j2oWRyQkZ2vNfzaJisr63YoPo9nZGQ8hPPoUGt3+VAVVIjOMO4KFJi93t7eXJyQi4eKA6wgNBEay3JyU0BFUwhhpXNm1qxZp9Fbo1e+tu8Jobm4T2Ji4gNLly71z8/PH4Dzb9QBryVRbSWuazmRZyjUwAXklf0zZ87c1q1bt83Yp4Ms/U+04bo3nshDd0RFRfmuWrVqIPadIcxTVeVTLasUKMetXnvttY779u1jkDUGc+Nin7pTkfNMTU0PPfroo5smTJjwubGxMWOapGmOCTefRvNRFJoujaGc3LSeCCoctSd0Cb2kspCQkEIPDw+uWkxRpzFyaIerobqtX7/e7ccff2TcEwZokkb1BhDLiVAbUC7p23HU29v7+4iIiJ2WlpZHsM+hFm1YP1FBoeWj1bx582xiY2M55Kou3qnWX9wqviafffaZ2dq1a82Ki4uZpigxPEEL1gdFPXv2PDd16tTjqBf+xL3QoqobGE5oemg7waqfb1r7IuiXeisn7K1oPl6LKk0YFUGjj+dqFJTzfn5+B5577rlv0Gv6DvusDFkhKRUbxDwvL89q7ty5lvHx8XTAo5hDGsVHxlAQnxOhNqBM0v+Ewzi5/v7+F//v//6vCHlHO/CZmo9YPinmqampTuHh4R2wpR+JB8QRQgf2dpBBUFwC6GfCYVqcr2st4Xfyu0usrKzKUc6L+/bty+EdpaNyM+olQRBqpt7KSW1B4b+pXtj4fS469ttLL70UOWjQoO+xT+WEFRNRe1jmiYmJTsuWLeualpbWA/ttUelJ/JM6IJYTobagDKqWzdKQkJDMcePGcTXxUxCWVXXGjKqk0DLSFgrIbStXrryLi/ghjc6vzG9tNX4mARkZGSOxz0U9rSDa0OE2k6sNT5w4MfGee+5RZuVo3YMgCE2IRlNOmgC5qIROOzg4HETv6rS3t7c6ZZAVE4WVnOKAt27duoF79+4dgQqQ0WOvOTtAuBKxnAg3QK6zs/ORadOm/eDj47MV5TQRaWr8ExUO43RB+bzj3XfffXDTpk1DsM94KLRsOixZsqQbFJe++Ew/E3XdLG3yjY2Nj91+++2/TJ06dZ+dnV080nR9XITmgfbwjmCgNLRyoppjtSuVJmEu1fSOeH8VnMZIsy7Nu9zXpPM4V0f1LigoGIfjjzC6JPbdUSGKNeD6KM9I13IivVLheiCPZKGM/X7XXXetCw8P/8rS0vJ3JNMPRIV5SlFCIO0KCwt7z5w50xPKCJUQ848++sh4wYIFtKxwlXH6pKhxTbTJgAJ08NVXX/2iT58+a/Gbv0EYZ0UQhCZIY1lOqASU2dvbM47ATYMNpaaxLPDz8zs6evTo38zNzQ8g7TTS6IzHCpAxEbg6qjMqyta5ubl0jjVBxSfB2a6NooSI5USoKyh/qv9Jnr+/f8bEiRNzjI2N6bCu3dlRFRQ6w9qmpKT0X7JkycMxMTFvRERETC4uLmZHgmWXdZp2vcZr+T3lL7zwQtYdd9xxEb+VgX36m0nAr2YG3p34BrUQGks5aWpktG7d+ggqtW3du3ffAaWDZmSuwVNVASLN6rvvvrOKjo6ms10bSCvIDa2O2kJQGoGSkhIu9FaloOCZiUInXBfmGQiViMqpU6fmDh8+nMOujOjMoRfd2EQso55RUVF3PfHEE+NTU1NHYL8zhIqLdn6jnwk7HRnojKSGhIQUoINE5YTKUIV2PhUEoWnRaMpJXl4eK54mASolVnh/enl57Xj33Xd3WllZMbQ9Y6AQVm4USzS07mFhYd0TEhIGYN8TIsHZqoeVvCIWFhaMN2GNni9jxTDibufKysoukO6ara4wvbpjnRpRdH9bn1Ld719LPCEuEK79xEbZ0Cn09vY+DUUizt3dfR/2GSAtB6KrSNCiaQfFhOvmsFyy46CrCOcjP57E98SFhoYegmLChQa1A70JTZcm014INwfdwlxrUFFSseFwh2l8fHxnX1/fB6GA3I+02yBqA08THMd1zzs4OKTGxcXt7dix4y/YZ9CjqunFjQ3uWb0/I1RufefOnTvu448/DsS+j5oOYW+N934uODj4zDvvvPOrnZ3dbjS6vyKtRYIGss+GDRv80Vv1h+LGIFeEz4qoCko5GoML48aNS8FzZqPC8X8TvO8qqxPSGcK8WisUj2k+Mu+oZnddUy4b6euZd2vTkOs6Td4ItVUYtO9Xezihuv/G+1LCvDNh1KhRhwICArg+FIcgFUdRbHUba4MAeYxKB5UNh/Dw8J5vv/324KKiIkZuZr1C1PxWGxKsra1jX3nllR3oZBzDPvMjh4zUmUBCEwDv3A2bO5KTkwf369evT25uLvcpXKyRMK/T0rUddcv2M2fO7MQ+lxvgbEuuQi+KjPA/0IjQB8McGcvq4MGD3uiVzEYyK1BtJ1NWwuytHIBysjkpKWk2rvGDVK21czPBfRjh/nvhvl5Eby0GSTQjc3hHDdDGzJ+J3tfRFStWLMa5o3iNKjjWosD/7xMZGRmG5xHHXY2oSokqfG5UMPgc2ZBS+FmpSHSEadqifUy9tjFF+/f1IdX9JoWLzlF00xi19Cx6/f8tLy9/Gs+fw4sGnffw39R6xQbSJTAwcAaSoyFqnVJdnqtOeN6vUOpeTUlJGaD5Pgt+P9KFJgTeixvEH/Xw22gntiGJM6k4nVz7XXLNo60eHh4zcW4vzTW0Jsr7NFAa4sU228yh6X3mtWvX7ih6abuQ8XdhX53GyP/FWAmtSkpKnBYvXmyTkJDAXh2lutkAwmX4XBSTO4Q9YAo/cxYFt9rCNG3RPqZe25ii/fv6kOp+k8Lp6hTd9NYQpjuXlZXxmRp8nmMvGFIK4fBL4Zw5c0p9fHxU5VXtNFwLdo6oHF9ELzsbil22m5sbe9mFdLLl9ytnCU0dqV9bOA2SAaC91toSgnOvV7k0NjkmJibx6GFFjR079htra2tOY6QzHmEPlWJ+5MgR+6VLl7ZBL6wD/gPX42EE2RZnPdGCip2gP6p6jBBaUVoUUCL4/0t79eqVHRIScgo96qPYpxVWN8S9LhyySaevCRSTdCg23KcDrORXQWhGtHjtlD0qyDnIUVRmB2+77TZOM6QJnpUZhQqIEp1y7dq1fTZv3nwX9n2wzxgLLVk5EfSLqphwxsktZmZm2jNWWgrF+N+Jzz333Pfjx4+PRBmlgyyn/V8LWj1PPPXUU/sDAwPjjY2NxQlWEJohopxc7lGxIaAjZ0VYWFghtmwIVBMyjynRKQsLC33nzZvnf+jQIV9cx+iUYnoU9AXzFocPOT32Fs2wjoImz7YU+BxM27ZtW25iYsLncV0rLZ4Ph4ZoMaEoyp3Q7Lhq+A0dwkrAOlmtlwUDRhpXoFXZFw8dOvRsUFDQX5rhHU5jZE+MMyg4lNMpNTW1X3h4uEd6enprFJaWHJxNrEb1R7XOaYtKdZaTK2LItAAsKyoq2m3atKn/qlWr7ikvL2do+ustJ8HhVpf169cznH0H7DtDFAVPMCyohGo+CgbIDTcwbJSxMcXWLC4urqufn9/Y2kwl9vT0/AmZai/kpk0lrgl6f2PTMTMzs8Pzzz/f+9tvv+2LCrEf0rgIoNp40Gt8y7Jly36cMmXKBnxWe2dMN+iGA8/nWlOJVfheMz08PPKQNzjbRLgx1CnVF6EsJ4SFhe1D/mLIdU6HbREgv7VJTk4OfOaZZ+6PiYkZjiR2Emg5udb0bT43SoG7u/u+7777bkefPn1+wHPjgoItzerULMB7rtVUYsg2Nze3H1JSUr7HZ04hZt3LYXlRUgyQBlFO4uPjO9Y2zklTVk7wX5QYE9ia4z+1Hzt27L3nzp17CIXnzstnKNC5LtbLy2vXF1988XPfvn35/zKRxhkBTe4/NSS1UE5YieRCUd0yffr0H9u0abPxcvL/6NChwxXP6PTp09Wa6V1dXa/Km+np6Vc1LLrfVxM1/U5zYMiQIfyPtJpQATb4ihjlT6k/srKy3NEBCECeewBpjHVCrsoXOjCPUCqNjY33PvTQQ98vWrQoCspyEtMoeIZX5SPh5iHKidCgoLKoikfwxx9/9K1tnBM29LiuSTYUrBQ1/8sE99l++fLlU5Dxd+CQ+n8o/Myl3fcEBASsKy8v/xfO9+NzQJpBg/94vTgnlTiWg+fy2fnz5wPwXKjoUYGlcAhMHQbTFfUYRT2/OuH3aZ9Lqe77ahLda29EeB/VpddVarof3f+r/l6LGILF/7REPmMMC58VK1bcZ21tvQjJDHyonc+uJ2reTLS0tFwdFhY2CQ3eEHwnI/TSOio0IfBO2kDUOCebkVRtnBPIZignIZr3yAjUti2lXLRE5MVqwR6VRgunlAYFBRX7+/uno4JjcLYLEI77s+fGcezu6NENXbVqlVdpaSln7rABuV6vzuApKSlhZULrEoe6VEWV0R1VYc9VV7SP89qahJYD7XMp1X1fTaJ77Y0I76O69LpKTfej+3/V32OeNHhQhhgPpndMTMy98+bNe7S4uJjDqh7KwepRGzBtUSwvEBdc7/Pxxx+P+/HHH++pqKjwRhq/X2hi4N2wnlBnpNXKGioYNg2mnBgDzcfqaFaZDQ0BlZQSTkMMCQk50KVLlx/w+QgOUZtnpcfQ63SQbbtkyZJWv/zyCx3uOJNA6eG2UCWFjUK1qxLzeWo+CsL1sE1OTu4aERExLCUlZTR6yL2Rxs6ALqxTCpHfOO2f5n32rHXzGa0k3S9cuDB47ty5A8+ePduFaWoZbaHltEmDd8L3SK6ljHP4XTrWBk5jvGBqxEqms7W1VTXj5gAjUsb5+fl9M3369K9RCf4MBYXDOYTPTfFPSUxMNKWCgs80MTLKqe7KqC2JSyU6qxKLYiLUBo2ywHJl/NZbb9nt3r2bs3JcIVQwdGfbME/Rtyl55cqVf9rb26uz6tigaZc9XmdfXFzc5tixY+3nz5/vmpeXx3LKyM/sTIhy0jQRy4kg2uc1oDk9F5ISHBx88MknnzyBSo0LsbFipLBiY4Xa+vvvv+/60UcfDcV+L+zTkavFTl2EEicVvlAnUGZocbSE2G7cuNHl66+/Nqu8vACgoqxA1DzFckcFpMTd3X1/aGjo6qeeeurZBQsWLIWCwgVFaUHRVoZ5nfIdUJpt1qxZ4/rVV191g4Lihd/y4O8pZwnNErw/ab8MmJvxcpvF2Lmmx6+Mg+JzycyZMwu8vLwYOpu+FIofBYR4FBYWDpg3b979CQkJnNXTGVLtirsGjqK0aXxOBKHWoJHhsM1AlJ/Hw8LCJuTm5lLRb6sc/B+sN6h8cGmJZCgmx+68885jKJsnAgMDUyZMmJCCdA7x0DrLnreuktKK/ieLFy9+8ODBg/din74s14uZItw81PenbptFuyE0HA2mnKCno2Yeg2mcqKBQQGWPHj1yw8PDk6ytrX/DIZqRGW+C/5UVXM+UlJQ7IyIiBly4cIFr73D1U0Mf0672PYvlRLgBWmdlZfWGgj86MTGR04ZvRRqHdLShwnEG5fH34ODgHydPnrzfxMSEMwErnJ2dc1999dU0b2/v49jn0CsVGLXzoEIrSRd8/x1z5869B7/XGd/lcPmQ0ASQoRzhCsQsVgtQiRWjIjw+YsSI7U888cTnNjY2MUimgkKFjOZnxTl248aNrosWLeJKsrScqA6yLaqxFsuJUFu0FHiTJUuWOG/ZssUT+57YpyWlKly/BlowDw8ZMuTrF154YYWxsfF2pFEZYRk8365du8PoPHBJfQ7vJEFoZdGGQ60spx6xsbFtZs+e7ZyXl2eN32vJTuxNjSK8Y9UhVmjhiHJSOzil87Sjo+MfM2bM+MHNzS0B+5xezIaYlRqFFZxlVFSU5bFjx9riMwMIsbfWbIN/XYdqK3Ndy4lU+kJ1UCHAhjFcLKHU2y5btswCii0VeqarZUqF5awCnYKil156KbNfv34nUP4Y+LAAwmPJ6DzEBAQEfDJ58uRvLC0tObNOd7E/9TuVOm/t2rU2O3bsoLJih3ugg6yhltPmgAzZCFchykkt0FSAHMvO9/b2zvz444/z3d3dWfnRdKxaCljxtTly5Ej/4ODgUWVlZcNQ6dH/xOCDs2kjlhOhNqBsMIjW7SgvD4WFhY3LzMwcgGTdYRY2WgxFnwvJfPnllwv8/f3Zs1b9vpRGDeWzFHIRkjNr1qyLY8aModVE9TvRzo+qgtK6qKjIC797T3x8/ARcdxvuRXcYSbh5iLIiiHJSW6igQJQgWcOGDctCD40VJtfryITQUZYFyhmVXN/Y2Nh7P/3002FQULph3wbCCtHQqFYJEZ8ToZa4ZGVl9V20aFHgsWPHxqGMeCGNlgxtqIScNTY2PhQQEPBLSEhIAvZZ3khV/mPZxIZS6eDgUAKl44KHhwctm2rZ1PVnoLWk5+HDh++in0teXh6X3GAgRUEQmgj1Uk60G11UIC1F0blkYmKShR5cnK+v78+oGFlhcn0dVoDKwoGQWyMiInr//PPP7fCZlhMO+bSIcW2xnAjXgmWAkp+fbx8ZGem2Zs0ab+SZnjjkDtGd5cZhm+O9evX6ITQ0NNLJyWkf0riYpJLHNEqJAj9r9i94e3ufmDNnzl4oKgx7fwai639CfxYqIz03bNjQ+8svv+yAe2iF+xL/E0FoIojlpO7QenKUK51+8MEHi9zc3L7DPse4OezD58ngbOaZmZmW4eHh1mlpaQz6xEqXY9oGX+mJ5USoCU2jTzHeu3evxUsvvWRaVFTEckFnVd2on1Q0yqytrZOh6MehvEWznEEyqIRQLp92FSfRedgUHBz8xvjx47+wsbHhQqO0oGifz3uoWuTz5ZdfNvvuu+8YZ4UdCfVeBEG4idwM5aRZK0SaSpHRY8/169cvKSgoiDMGGF9B9T9RKt/S0lK7/fv3e2zevLmnGvQJ6YwgayhUq4SI5USoCZQBV0i/+Pj4MW+99dYwKCY+SKbTuKq0ENXPhMMxuY8//nj23XffzVkctH6oviY1gvN4Tj62F1577bWUgQMH5uI31Wt0FRSKTWFhoeeiRYsGoEMxHOeyrKqr4QqCcJMQy8mNweixxZCL06ZNqwwICKDVhI56rARVJUVxups3b97IU6dO+WKf/icGv+iYWE6Ea9AGyuvApUuXPvzTTz/dg30O5+iuEsxyxaGbP319fePmz59/xsHBQYkphPQrlkaoDs1xKjjl7du3L5w+fXqhh4cH/cO4cGd1/ie0mHT9/fff74Ey8xDvD2mM8iwIwk2kPsrJjTZCzd4TmxWgphK85OLiQgUlzcfHh86xqRBWpFRQHCsrK3umpqb6zZo1aygXM2MaKkKDDs4mlhOhJlBmWn/22We9P//88ztQNuiESv+sq/xMICdRnvbOnTt3q7OzM4dMz19PKdFGq3xefOihh04xYBsUnP3Yp/8JFRRtOIzTrrCwsN+qVavu5v1hn47tiu+JIZfVJsz12iXdIUDBAKn3C0YlUJvCa5BTw1gBguTBgwfHQEFZbWNj873x5dWLaYKm011rHG+/d+/eTv/5z3+ccb66XoghVnr8P0a0nEiFLmjD/ECJi4u7ZcmSJRVQYOnbwbJwlZ8JyshFa2vr4yEhIdt8fX234bo/kJahOV5XzqA8fhcUFPT+3XffvZL+J0ij87o2/H3eC2fVtVq8eLFNbGwsh1/Ve5O83PRg588g2xThf9RbOUGBbuk95XQ0yAlTpkzZdu+99+7D42D4bI6Zs1Lj8zVBZWy2fPlyJ1TOtJyoK60y4JTBIZYTQZvKykon5PluycnJg1988cU+iYmJnMFGa4mizPIcwDyjDIni3FL6mTz22GN5UEq48CbjCd1QaHNcy6iyOe7u7mf+/e9/p3bq1ImOsRyC1c2jVWUV9+cSHh7eITU1tTfupSOEs3hEQdEv9W6HBMOjPplCGiHAyhNyAZIyZ86cU97e3lzXg055fD5qBWybkZHhMW/evMHYDkZl1xlikOt6iM+JoIMHFJTB8+fPfyw2NnYE8n0vpDEiqzb01+KK3+dRfs7Nnj07387Ojgq+4seFsnVDvWReB2F05+Ju3boVzZ07t8zDw0MN4kaFR/d7OcTTAfc5fOXKlePLysrof0JHdmk8myA3mi+E5oE+Cl2LapxQQGiKVnp9ffv2rZg2bVq+lZUVK1o64bGC5TF7VsobN24csWzZslGorDmurRtwyiCg5YTPRLMrCG1/+umn/mvWrBmJMjAc+9Wt2k3ryGl3d/d94eHh+zw9PbluFa0mDZKXNN9RQP+TMWPGJEKB/gv79A+jf4s2nNbMhTtvW7Bgwb2bN28eUlFRQUuPKCc3D7U90X4HMqzTAmi0QocKgj0Wgwb/Mf/hhx9Oe/LJJ39jVEskcdVUmpE5jNMFld7gVatWDfzmm2/oCKiYiyn4bAiwAbgklhNBzdcQ44SEBIuQkBD7oqKitjhEa6Hqd6VNpo2Nzd6goKAtgYGBX2F/H8qSrm9IvcD3ZaFMHnjttdc+Hzx48CfY341k3d+gnwnLqgeU7M5hYWFtjx496sD/of4n5SyhoamrosHzK/E+pBNkwNRLOUEBl8yhgc8CnHFyctoxderUTzt37vyVqanpARzK5mEIfUwsUlJSbBcvXmydn5/PipA9NSV6LLYGgfictGyQl5nXqYA4nDx50iUiIsIJDbzqYMpjagOvKLMQNjSF9957b9aLL76YiM/HNYqJblTX+sJZOkmenp4HVq5c+auDg8NR7HN6sW5+5f2xPFocOXLEBAoKY55wIU86t3MVY4Mpq02Y2igr8h4MnMZ6wRW2trYGb4ZDpcpgbCn9+vWLW7BgQbK5uXk60ji+TfisWUFb/frrr85ffvklne3cNZUeK3ODQCwnLR4q250gd3322WdPbt++fUR5eXk3pOs6gNOSyqHPDHd397TQ0NBse3t7KhAcaqEjK033DQa+j7GJOHyU261bt8y33nqr1NramlZNXf8TVYHi/2i/bds2Lygz92H/Vgj9T2T14puP0m7hfUpdY8DoXTlRK5mLFy8avKaL/0rnO1aAeSNHjsz+xz/+UWRpackKUPFJgbCXZlVSUuI+Z84cbzreYb87pDXEIBDLSYvHuKKiotOGDRv8Pvzww6dR7u9CGv1M6GyqDf2yTkIx2bNo0SKGp6efCZ3L9eazpPXdpUFBQeefeOKJpGv4n7Aj0aGgoGDwvHnz/PF/BmOfHQqDnGXXDNDu3PLdGHx70tJptBfcEiwnRFP5XeJsg2eeeSa3c+fONFFzCiOVFioodI7tl5GR8VB4ePjjWVlZdyCtHdKaWy+g2gZELCctF00eNqKfxpIlS1zy8vJoMVF9TXTrmvM2Nja/089k8ODBX2P/D4i64rBeQRnNp0/YzJkzt3Xt2vW/2P8dybr+J/wvzpAeqampd+L/+Bw5csQJ53I9HvE/aTxqVFTxDkRBMWAa7OVWAs3HK0AGopbbIiwnKhoFJc3T0/OniIiIT6ysrP6DtJ+RxgqQPS9aSjrGxMR0Xbx4sWtubi6DUqlOhM260hPLSctDk29NIeYQy0WLFlXGxsbSUsIyr/qaaMM8crFjx45ngoODE9zd3f/G/jmUEc5uawwu4rf+9vLy2r5mzZot6EhQMWLZ5H1p51/eu+Irxv+zcOFCBmrjECyFKxiLgtLAVFRUcJhNtTRfC1FMDJwGecEo6DUGScIxJZO1FMuJFgxj/5e/v3/s//3f/+2FgnIM+xxTZ4XGCo+xHmxXr17tEh0dzc+0qNBxsLmOaSsVtVhOWiS0JnDoxnflypWPrV279i7st8e+0jHRgnUBG58ib2/vIijmxW5ubvQ74XBOqVpXNAL8nQL8Xna/fv0yZ82aVWJvb68Ov2orKMzLFPqfOH3xxRddNm7cOBCf6VNDR1kZ4mkgTExMahVoz9jYmHlKN18JBog+tE/tnkeLBRUfFzDLgpxF7/DsbbfdxhDcutEpzVJTU+3XrVvXJTk52Qv7Hqj0dBdCa04Y0XICREFpWZijx9s1JiZm5Lx58x4rKCjwQ1oXiG79wqHNc1AETkyfPv308OHDOYxDpeS6C/o1JPwtjbDDVD5t2rT0kSNHnsU+195hEEXtmUJqXm5TXFzcLyws7J6EhAQu5MlAirrxWgQ9gvcj1pJGhnU5hJ0Py8rKSnsIgyr2ysnJuQ3b7hA3TbqV5rwGq/v1/rJxsy1Sy9Wq/CrROyxduHBhkbW1NXuJnNHDyo+9NJrBO23atGnIp59+OhL7/SFcVr7ZNu5iOWlZaPKq6YULF5wiIiK6Qdmm4ygVEwYZvCIvoDxQGUkYP3781ocffngXesF/IY2OsTcN/H6Jq6vrmdDQ0L1eXl4xSDqMtOr8Txicbejhw4efnDVr1r34v3Rk5zCP+J8ITQrmRygLNhAnSHtIG81nKhHMs2x3asyzOEZLobnmXM4mdT948GCPjz76aEh4ePg9U6ZMeeSVV17BZsoE7N+7ffv2W+Pi4rrzPFzuUJvf0Cv44ao/gBv3Rm9oNpL3QpSQ0xA2zPzMtWb2uru7R2ZkZLyM84fiuhY1HQ//2bOsrOwBVIALUPFFIonxT1hR05RJZSUNzy8hOjr6bZzLEN9N0v8E99YnMjIyDApIHHbVd6yawfmZadkBAQGr09PTxzXF/yA0HJr3y3rAMSgoaDLy9iYkq/lCO2+ossfb2/u1lJSUAchLrDA5lHlT6wL+Pu8f9+Ixf/78QSiHryI5GqL7H9T8zSnJO1CWWZd54lr2FsX/pB7gObpARiUlJb1oa2u7BkorA+QxgKX63CmcXr7Vw8NjJs714fvie4OINUUD86BGzFn/+vn5LYYcgXzPz2FhYZOYjmfXC0I/x2rBMSoxPlA47l++fPkUXov2O8bS0jIFh7mWXBaEbgtsw9KYjuPbUO8v4fmnTp0agetpVanxN2pDQ7xYZhzh2mSbmJgkPvvss5uGDBmyGS+TjTt7Z3z+9DNxzsvLawst1CkzM5P+J3S4UwK0QZoq1VXGXJWYFYpg4KDisUAlyFlm/TZs2DCU/hj4zEUtmWeZN9T8wfqBSniJg4PDxYiIiBw3NzcOd1I4fZcN/s2Ev5+Pe8n417/+dWr8+PEZ+ExrjqqUqPmZ/4f/jYpIqxUrVnANHlo6vbHPIG0yxNMAlJeXq3GhhBtDyadQQuz27NnjEhMT05kTL5BXux46dGgg8nYHHG+N7RVDMPysEebxVhs3bhwwc+bMh2bNmvUCrn8gNTV1QHFxMS0jLiUlJa0hnIHnBOFwpxuOD8I1Y1CGJr/00kv+R44cYVwgpfPB7+R3Y79ONOXGz2DQVMJnPT09ExYvXhwH5SQJ+6pzrOrgZbl7926HpUuXOuNFtoGwV2B5Iy/1ZoJMe8X94r+LsmKA4L1Sie6ekJBwd2ho6FNFRUV3Yp+Vly7M+6lQWv9asGDBMX9/f/a26ABLCwQX9bup+YO/z/vAR8YoKpk9e3Yh7pH3zMjO3Fa37IYzKv/eISEhD8THx3M4tieEnQxBaGqwbTFH3qYVww5ihc9XOXKjnWH0Y3Y2vD766KOhEydOHAiF5g7U531xmAoNr2VZVToaEPqPqU7khMs8dMzNzb2VMYHuvvvuO6jgIK0PhFauOivvDamcSCNUA6z8IOwRFPTr1++iVnRKvmj15bJH1nrZsmXd8FJ9sM/ZD5xy3KyUE7GctAyQVy2ysrJ6zJs3787ExMTRSGJPqTrl5DzyftzYsWP3PPzww5yyewrCvN+kwD3iL10qa9euXQ6UjhPu7u6HkUwHWSopunm6DaQ//zf/P58D9tlLbFZltYlxsy1ohgDzn2IBubz7PyorK9nWUGrCsaKioj8Ui8CIiIiAwsLCQUjjjDRek4MOdaqHh8cxPz+/Y4GBgfshB7n18fE5yHQcT8N59KlkWXGH8n4HOy1QcMbge7nQbZ3LR32VE2mIagkrPwo+VqKSvjh69GhWepwZQBMyFRfGheiSkZExMiws7HlUeMOwzwUCm5V1S9dyIhgWrGA0lYzp4sWLrVCZsUdGUWJ/QHQ5Y2dnt+/111//uHXr1jtQBo5C2OtqcuC+SkxMTA6iAl4fFBT0vpWV1bdIPgLRbThZVtmTdP7+++9bRUZG2uIze6PKs6lrJSwIDQTbl6vaZORrdo45vMqJGEXIn4o1EGn4WJVfW509e9YHZfru1NRUdjb6QThsk+vg4LD9qaee+vfmzZsf/eKLLx5auXLlhP/+978PQh6BPIr90RMnTgzD9+3E+bQ2MnhhHyrvc+fOvQfpfbDPMqLUH9zWBhnWaWTworKdnJwOhIeHfwWtcxX26fzFHhordlcLC4tux48fHzB79uxe0Dg540EZr6vLS72ZaFtOmPk1HwUDAHmQHvgcduy8ffv27u+88w4/s5FmPcL8qeZRtZKsRMVWsGDBggv9+vXjOlOcTs/hzKbaS+Z9cTHA0+gg/Prkk0+ewD1zXxf+T/5nE/QwHXCuB3qIXngWjH/Citlg1soSmh+1qHeVdh95VS2vuMTIdNu2bVb79u2jLwmHbNkeVXp4eOStXr363NKlS0/079//BPZPo/1iwMQLkPSePXumjB079uyyZcvSly9fXmhpaanOvqOybrN3716Lb775huWK36fUE1q/e01EOWl82Gs87uXltS8kJGSPs7Mzzccch+cLs6CjUXFxcevvvvvO5ttvv6XfCV8yX2ytXujNRiwnhgvyIhWRngkJCff8+9//DmDcD1RQNP3qQkvgRSiqOTNnzix+9tlnc3Aee22ccUFfkyaptPK+jI2NSyB5+JyNey/w9fXlf6HQvK3t/M98TnHMyMjojs7GiOTk5HtxHR1kWcELtafquZqYmJRphiCEBgZ5szq/DzUf3/Ljjz8aa+pvKhP5UDTSn3vuueSHHnooDe+FQza0iih+JiwrEG7pq1WK41mTJ08+MnHixD+trKyO4xy2aZWlpaVG6MgoirxGlN+qDaKcND58mdQ6kx9++OHD/v7+1EL50tUKm+/ENCUlxXbx4sWOqampdCaiea1ZLNcuPicGjT0qr17oJY1EDysA+fE2iJvmmArffzbywcnBgwf/9swzz/xlZmbGIcwmq5TUwKUePXrkogORwaBx2OfsOk77152dSOtRf/QQR7311lt3l5WVMZginQNrXQkL1VKtdQ3PVe2Bq3WhPOcGAM/VODo6Wg0+yO15c3Pzv/z8/M4gT9N6WBWPqIZyfA5K/R/Tpk2LtLOz245zGC6D5Sb977//LkI7pr5PUU6aKnyxmpd7qXXr1hWvvvpqBUN5Y58vjxUfj/EFuqMB6BsREXFvRUXFIGSe9pAmHy5bLCeGBxtaCj4aowG2W7VqlWtxcTGdQjnsqDuEUYFK6hga9K0ffvjhMk9Pzy1I+xPS5Jxgr0MFeoPHH3zwwR9mzZr1GXqRPyCNawDRiqINTeDOyPed169f77l69Wo3lG/O3FGemea5CcJNB3nxmmtXIQ+rcUnYFmVDyUhGG5Vgamp6DvvsQCtUl6eR509BdvXt2/c/n3zyycLly5cvhnwC2TJ9+vTf3N3d6V9Ji1itZ+iJcnKT4AuCFLVr1+7U3Llz96My34xkaptcvp3vpTMyy12o8J7atGnTCCgoXOGVsSWadGWnbTmRirn5g3fIeDtKpMjt27d3QGXTWhNcSe29qu9YUbghlba2tplTp0491qdPn/3I43SApa9JczPV87+kQEH5fcaMGevHjBnzE/4HfcN0pxbz/yvPIjc313rp0qV2cXFxHI7lcBeHd5p8h6IpgGdbraWkOnCumveE2qOdbyuRP7UtgGyLWG7VNDp8O2dnZ3c9ceIE15Jqh+Mc0r0WvJZlvBRl5XxwcPDvU6ZMWQ/5NiAggJGgOVRap2UqGvIFq5WUNEi1pxiV35/33HPPjxMmTFhvbW39K9IYhY/P0A6ZwgMVns+SJUs6HD161AYvVmkMkN5kn7FYTgwL5LVWEO8jR45w2OK+jIwMet7T6VP7PbPCUfxMINnjx4+/AOWElRF7Sxyrpq9JrSulpgDvF8J4LJlOTk6poaGhWV5eXhzWYSPK/6L9f/gsWDZtExMT282bN29wZmYmh7y4/s71KnWhjuCZsiHUblyFa4DndS3Fryoft2nTRv2sKCeFhYXd1q1b1y4lJcUN38EOCfN5tfW7prwoSo6xsXEBJAuSDElDGn3OqosXdE0aRfvEDdLPos431wJgpZ1iZ2cXP3/+/J9vv/3249hXZwfw3bDXxeXajblce1ZWli0yCc3IjLrXJJUA8TkxOFpB4ey7aNGiwH379j2E/YEQKifaKGZgSJKfn9/B2bNnn3R1dWU+VnpKFJ7U3FDvHVLZo0ePwvDw8Hzk73Qc4n/jUKxuA8lYDr02btw4fOnSpQwTzvgO9BcTrk2jtEMtBeTBupY35fzAwEB1yJJ+PVyA1iUqKqrLpEmTGHurX2pqaj98tSfS6VOl91mkjZIpUEiV3zE3N5dMqIWm4uOqrIXonV2cPn06Q3tzbE+70mMGsFu/fr0rlJR22GfDQC2WGajJIZYTw0Cr4rHcunWrG/0p8G65oB9D1FNB1obm3BNQSGKQh7/s2LHjL7iWa2oZTO8WSkn22LFjE8eNG8fhHS4/wSEeXf8TVuhd8d+Hf/DBB0N2797dFfu0PInvybXhMEOt6jM8eyrCYjmpmasUEzwzPlvt4UVjpFGqzsXzr/T39y/08PCgEUG1DrK9boV2Z/Czzz47acaMGWErV658JC4ujjFQOEGDEcwZXkBdX+qGwtTXhN6VBU1mEq6BmkkeeOCBnKCgoEzss2LnVCyayXmsfV5e3uCwsLAJGRkZw5EBekCaZLhsXctJQ2ZWoXHAO2NlRv8mu+3btzu98MIL5vSnQBrrC4r2O+X7LjM1NT2L8w76+vpG47pDSKMT3RV5oZlzHHl768KFC98eMmTIGvxfKii6KyrzudBHxwLl1QqVuV18fDyXkmdFzkq8SXYomjmGlMf0AvMd2hQ1cCDD1yv5EOlKOda0PwU+Pj4ZkydP3m9ubk7fxyQI2x8qNW1Q/ntERUUNRRmfhvy/vHfv3tGPPPLIV+Hh4QuRPjsxMfFRfB8tK8qsUvW760O9lRO1YQU1ZhJjY2NFy7WysqJVQOawVw/9T85OmjRp9/Dhw/+L56oGZ+NzVSLuHT58+K7XX3/dt6ysjJFjm6RzrFhOmj/IV1wm3SszM3P4W2+9NQxbLqfACI/a75b5kh0P9rSKH3zwwYvTpk2jfwanxmdDirXqhmYP/stFyHn0LJPmzJlzunXr1pxaTMsJ/6P6P/l8VAXOChW20/Lly3tDUeH0YprDxf+k4ZH6phZoRi8U6wnK9lVKMvI2fUR+mzVr1tdog9Zifx+SOTmDz1dVbLicSvuioqIeaItu3bJli++CBQvuf/bZZwMnTJjw+MMPP/zshg0bpqanpz+E3+gNoRvCDVsN662cCA0G/XJOenp67v3ggw/W2dnZHcD+aaRTsWPG4Lolnb7++ut2yBRUVtiTpe9Jk1quXXxODAJn+kvQb+Knn366B/mLjSunDWtDxYTLpie5u7sfCQ0NTXVxcVGivyLf1skrvzmg+U/sWJWPGjWqFD3GPHS2aDmhw68aCkAbznDyWr9+/bAvv/zyAXQo+mOfQ2JC3VDrNmmr9Asd2I85OjruQVn+AbITivhBpDMMAJUUbSsh3wkDtjFgqDuU795QVnyhmDw0ceLEZ8ePH//wxo0b78zNze2FPN8W59JHpc6z1ur7wvGbtXa+UQO8CNWAjMHKLRfb5H79+v314osvptnb26uzA/ieqO3a5ufnWyPjOHK6IvZZATLqX5MpuGI5ab4gL6m9HPtvvvmmF/0moKRwATBa6pS1MbRgeWY4618WLVq01cvLaz+uTUX+NWjllP8PUoBeYtro0aNZeXOaJK0o2nFc+AzZofBCBT3qn//854M///wzF0bkauPif1J/dBVB4TpoRi9qnJSCPKwo35BSdDbOhYWF/bF169Z1aGs+8fX1/QHlnDF+6AjODgjzOr+PZV0t78zvHkVFRT1jYmJuQ/m469lnn33oyJEjfsjvXBhTjaFSa/TeqOHGKiwt67xacosEGUN52dxyKuaIESNYCGk65lYZGkNj4XDq1Kn2y5cvvy0nJ2cAkjwgug6KNw2xnDRPNA0m6wPTY8eO3TJ37lxL+k1wH0LFWLtB5TvmsM3fkydP3h0QELDBxMTkV+yzh2Xw4FmdcXJy2jVnzpyPunbtugb//Tck665ezGdJc7htaWmpU0REhNXp06e5z6B1igMhtsKNoxurQ7jMVYovymUF2g0qHopywn3lAMDnq+prpNH94ljfvn1/Qj3weVRUVNjmzZufW7FixZMo62/5+Pj8iDb9HOp6dp6rC67IgKEjvvvuu0khISGPosPaF/t1dgzXh3LCH1dvQMk8hYWF4mdSSzSZpdLFxeU8XuwBaLHbsb8fwvgnzFRuBQUFt61ater+nTt3jqqoqOiJF04LSq1fuj4Ry0nzBPmHfibdofDeOXv27EGM14FkKiesI9R3yrzJPEgpQo8q55lnnjmDPJsCUafXGjz4r6yUT/fr1y9uwYIFyebm5pxezP/O56NW9nxmfHYmxcXFZnv27HH59NNP22Of5ZUdCvE/aRiualxbOsifV9TByG8mxsbGdAGo1dAKLmeU5yJsGZ+EfmRp/fv3PzJlypQ9kZGRUT/99NMH33///b/A+1BWVqONikIZYIwuuiGwracSziGftjExMW0ZVRr7/G2lLsF91KqN0IdychX4g6Lh1g0+r9N+fn4c/9tgZWUVg32uU0ArCqNOdkNmGAat1huNCH1RFGdFvvTavnh9IZaTZotbWVlZnw8++ODeHTt20M+kF9I4NVYbKiUce05FhZS0cOHC7A4dOqhmXvbMqnpkhgz+J/3DuIBn7ogRI9JfeeWVTOR79jYZHpy9U+36juXRsry8vBMUmTvRC70HHQo6C4r/iRaavKP0wqW9qBfVtQEm13OIrQm8C1ry1QX+6BROv5RdaJvWhYWFrf7kk08+i4uL+w/qgh+RdkRjTVGnIxuhnTJCnrfEOZy1RqWFltimo5wQ/KFbUCjFglILkAE4/sepmAnBwcFb7rvvvt+wT8sJlRNmMJuSkhLHv//+22XZsmXKEtd48TQX1/rF6wuxnDRPkL+c6RfxzjvvPJCbm+uLJMY00R0npnXgtIODQwKU5kO9e/dOxD4d6ZShSOWMFoL6n+3t7UtCQkIKBg8enIRkzq6jBUk3/gktUF3Qkxw+Y8aMsUeOHBmIa93ZiFTTkLRo8Dx0n51Qe66Vl8yQ52ygLCjWPCbcSJlV8z2E1pUU1AX7XVxctk6YMGEXFJTfx40b96elpaUaBqOitLTULD093TopKYllgJM4qKDUSu9oFOUEGc44JyeHy2Gz8RRqB3uijCBbAA213MvLS9uZiZnQGC/eas2aNY4bN27kNEVWdnSS5cu/aYjlpHmhNpDJyckm9IsoKiqiCZZKSXWVCBWRhEcffXTT/fff/yn2qTSnXT7UYkmj/wnK6GdQVD7H8/gZaRzm0YaNAZ+re2pqatfw8PDWGRkZtHby+YqCIjQkSttw+aP+QX5XlBUoKSfQWfkBeXtp165dP0UaY6VQQTG9ePGiMfI72yZOLWYIjFpZbhrtT9ByItQevnBsKJV9+vQpmT59eoGVlRWtKerURZo+HdEb64OKcXBCQsI92O+OF39Tx7LFctJ8qKyspK8Sl/zvMH/+fOfY2FhVuVUaTZ6jQc2Lip/Ja6+9luTm5nYc+8yPrIBaLCinnGF3Es/l108//TQevUhaOPlMtJV0PkslOBvEZvv27Q5Lly51zsrK4poldBRk4CopN0IVyA/mKJ/2kDYQDy3hjC9HbK8b56qiokLbGEAH4qqVhQmvhzBgGsNROKakpAxIT08fR+FnzW/VNvIrrSXH0Yne1717d9YN7LSoDriqBZb5n5Fpa5XX9a2cVH0/LSdC3cA7VE1o6Q8//PAfEydO3IHPDI5zCsLxbcae6PX333+PRGU3EJmJ4bK5vsdN642J5aRZ0RYV2G0rV64cv3bt2ruQZ5h/dKfWUQmmqb3I3t6+KDQ0NId+JsiH+RDO2GnRQ7X4/3w2VFDO+fv7Jz/44INc7FAxaWtELQ8sj6wPzdGT9Fi2bFm3Q4cO3YX9nhDdhRSFFg7KItdk6rtx48Z7n3/++ScpU6ZMeQ7bR5OTkzktnT5LSj2vU9cr+S0jI6NKMWEehRRACktLS6mgKI7ruI4dEXsqyW+99VaPJ554Ytgjjzzi/+ijj46fMWPGsLi4uLY4hx0YKhXXtHZoygHrhWxnZ+citAPcr84HrdY6hz6VE+WB4WYVT2GxnNSLU61bt94dFhb2aZcuXTbjmTIwDjMYM057ZLi+X3/9dd+PP/64DdMgyrPXybSNglhOmhUdjxw5cscbb7zxaEFBwYPY94boLovASiYTismJWbNmHR02bBh7RPTkVxRn5YwWjtazqJg9e3a+n58f/U4Y+4TOw3x+RC0Xpji3IxoP35CQkHFoaG5HGmdG6bujKDQBWCejE2kDcYF4cos0DnfoLqTnhmND4+Pjn/noo4+mQl5G/f4PbJ/fv38/reScCMFzlfM111GBoG+J2dGjR6sUAxwrMjExyUQbchrlmMqzGqmd1hcnMzOzDklJSb1jY2Nv2717910xMTHDt27d2nfTpk39cQ6DqDniPCoo14LH7VNSUlwTExPpAM52SFFocG2Bi4sLPyuO89ivVb1R3wKB51BlouGW36fuV4GHTJ8TjmfzhsXvpO5wrD/Z3d39MKcuakzHNJnxefOlW+Tm5povXbrU/tixY3SOpdMs0696F/pGLCdNH+QPpRLMzMzk+i8eqFAYZM0FUlWhaJGFvBc/cuTIzdOmTfvW1NQ0HmlseIWryfH09EyE0hHt4eGxHZ0yrjFEc7cKyyNjnLhh2weV+PD58+d7Q1Fhp6JBF00TmhaaMsf62uzMmTP9V65c+czcuXPf5RYK6iAcU5eHUMomUGYsde7c2RKfqWjwWlo6zNetW1eRn5/Pcqq2txR+Zme1TWpqauevvvpKXSCWXES9nHPrrbcehyJyFvuMyUPlhMpCjp2d3RkcO2tlZZWN66lMW6GT6UnrHhQWBmGkRZUKSo35E8fcKyoq+m/evPmhuLi4wVBO6AdJK2w5OtQVPj4+XDOOLgm0tlZnUbkK/iG9gpvmQzRxdHTU+28ZKpqMyhdaNmbMmOKHHnqIz1I1m6nKgPXx48fd3nvvPTY03fDcGUuh0RcHFMtJ0wb5ggvQMV84vP766zboKbHCU8ooRLeMMm9dhDJ8PDQ0dB+2nNLOiKisZISr4dh1fEBAwKbJkyd/Y2lpycUB2VPVVthZPvjMOXvB/uuvv7bbuHEjV3e143uBUHlpcWUI/7lWDRY6ujyP0mymG+O/UfHk+3VhR+DFF1/s+sorr/SOiIgY/K9//evWSZMmeUOh4BAK/Y+U2ELYcqp6GpTdX93c3BidlR0CWsutkF86vP/++93RIeVCex2QxqF85iFvKAVjP/roo+A//viDllBGZmWZLrO2ts7q2LEjrZ606vG7OT2Yky5o3btw1113ZdvY2PAzny3DzfeB0vwoFO3nNmzYcDeUISob9D9RfFDwmf9LUbiYhnq//apVqwZrrLCjcZjDlfwv5UOGDMnv1q1bHs6jxZUKUa3enSgMzQS8VKWCgwac/eabb56CJpqAXU7lZIbjC3coLS3t9vnnn4+CNj4GWqw3MgPHLRsVsZw0XTQViQfyEv1MxnzzzTdD8JmVDhtLbVQ/kxIHB4d89KAu9O3bl8HWGJ6evS4lHoVwJXg27BWyh3gqLCzsr/vuuy/N2NiYihyfJ0UtG6x3qQxytWeXOXPmeCckJAzBPlcbZ4+Xx1oy2jMTq8CzaTYKiQ4cLXBCvui1ZcuWgdu2bRtw8eJFWiPa4v17/Prrr24ff/wxG3Na1BhbiO8/y8TEJH7YsGHb77jjjlhcy6F8xhChItInPDw8EJ3Up1COn921a9fjsbGxAVBKJowaNep+HBudl5fHqKy0yOFSo2Jvb+/zOEaLezr2OazDcBVURJSYPVAeiqAsVaL+Vi3yXOSvc2JiYt+nnnpqxIMPPvjYihUrnsP+o1BaxmRnZ9+N7Vjsj0f6ZOT1x1944YWRUL664zoOOVExKbW3t784depU/g79Xvjdytpb2OoP/HFWdGbQZC0OHjzojZuYjWRGidMuiLwZLv+/Fw9nPV7EKxxHw3UytHOD4Pl54Pn5RUVFPeXq6roQL3oHkjl1kQ6yNCEn41nHxMXF/QPnDsC52uOY9QLf1ycyMjIMGZg9Qu33TFH3sxk1kB7fDfnbQv3BuzDFOxwRHx8fwTyCpL8gzDs08arvkcLKi2beP0NDQ/9bVFQUjOtY6Qi1gHkez6sTyuDz6ERsRhKfsRrqW/s5s9I+xjIcGBi4KikpaSquGwphxd5iwP91gtzJ/48e/iI8j++RzHZDfU6sV9iWbHZzcwvBud0hnMXChrrJd7Bxn1aQQSxHYDH+31Yks+zx/R+wtLRcjTpzEht8zX/j0DwtFJyxY4O6/g4XF5c3cS47o+rzUJ9JJssp2t8EfA+VD+YznqMO2xS5u7tHsr3Ad9G/RVk6AXJFvczfhbIxFfcXye9DEju9ihID4fcUoN7P8vDwOIrv28b2nHUI95FOiyGtOrwfpQ3AfzyJY/uhuCwuLy9/Gt9PS36dqO+L5UMQGhG89HPIWHv9/f2joKnuREY6gjTODmDvl7N3PDi8s3TpUqf8/HyO+SmZUDcz6gHl+5FRRRlpujDegAN6Vl3R47kN++y90bp2RU8d+ek85MDo0aM3PPPMMxvxTulnwuEJoRbg2bFeLETlfXru3Ln70XDswf4xCK1O2rD+5Tokt6PxeOjTTz+9q6ysrB2uv57zodAMYZwvKFdqGPeqMof0MicnJ7XDToWFKMoH8kIhFJdiWjWQj3iM6YT1LK9pzcX28vLyfIqLi2l5YSgJJf9BMtA+nEIHIw3tBYdsqGRQaalu1fBzuIcdr7322odPPvnke1B0vkMagwryd9i2WJeUlLRKSUnplpqaeg/qj0DIndxHOgOBsq3h/fD80/jdLXPmzHn/scce+9LY2Hg30uo8XbextE71gQv1hxmLmbb4pZdeyrzvvvvyUbmpz5cZg8HZzNauXWuzY8cOjmFSYWk0R2RkVFFYmxjIA+wpsVI0R4VhtnHjRlY2zA8s/1fVATiX0wEP49wfPT09aVI+CmHlJtQSPK9cmuXRsES9+OKL/7G2tmZwNtUaoA3fCy0ldh9++KHJJ598QsdD9m6r7eEaKnhe2goyn4nBgP/GIdLjpqamOwYPHrzey8trD9KYF6hoMJ8kox4/7ODgwHJGB3TW72oYCWSBSylTpkzZBuX1XR8fn7eQRmsc17FhXlLzh7plGodOfnN0dFzxxRdf/CM4OHgl0vYhrVD9TuVMLZBGK8mZDh06HF65cuW+Dz744Dco1+yUHIVkQKjs8DeUNgbC98Wt+rtUPo4zYqyfn9/urVu3/o7f/dXOzu4wvjsNQst+ndC7coKbEsWkAWHGgjBTV+LFF0+fPp1mO5rzqkIGIzObQ5t2/+c//+kZHx/PdTzYO9NdJ6WhYYa/hF62qtkLTQC8dzZyHNvuFxMTM3LNmjX9kH8YI0G7YiF8f3x35ejpFKCnltu3b1/6mDDQmrpehlB7OMbO4ZwTQUFBf91+++0MTMUGQCknGiF8B6zozfLz8+2XLFninJaWxvLKd8Re8BVWLUMHz0zX/6kKHEPWNObzUBvG5gI7lIyFc3rUqFEHULZ2+vr6fovGfw22u95+++2D/v7+J3BcneZ7RZupuTYR5+yMioraHBoauhHXfYV6f4O9vX00LZuQv6EYHIBsx/duQJ77cdeuXXtwTQyupdJDXxNaTaoFx7QX+zv7/PPP/4oO7hfLly//BAr2x/jOLfwtKh9WVlZ0ik/ilvu4j1gc34jfXAPlejE6P7w/unik4js507TWM3S00a6c6gQKj6o9mcTFxXXBzTyYl5dHD2Gaiwm/m97AZ3BuKm4+5ZdfftmPBvUXpHF59RoflFA7Kisruf7JwLlz5w6YN28eVzvlTB16b5PTeMbHkDmPfvnllwlmZmYJ2Oc4JzOiWjHWCfxenw0bNvg/8cQT/iUlJX00yWoeYsPG780JDAz8Bpn6GxcXF5oGld+60d8U6gfemQ2e/W1QUgfOnDlzYGxsLGNqcHVc3dgayvg0pBg9np8XLly4HRXej7j2lLy7GwPlUSkb2HJ1Vv8ZM2aMPnz4MNctomWAlittayaf8SE86wRU8r+98cYbSc7Ozgy2mERlUTnDQEEepbNo71OnTvX38fHpUVBQQP8m1m1qXcZnQ2vAdjSE28+cObMT+/Rr4HNh49csOkSa/EBTSKvU1FT+Z8Y3uYj/xP9CuW6biPM5K8cFCqxLenq6/cmTJztgy1gkdq6urudat26d0rlz58z27dtT0aFzNuWGyi/vF2KNe/UoLy9vn5SU5H7hwgV7/h6+kxa+HP5mjx49Ltja2qZ36NCB+fUsjlExv3l1Bm5McYiFWF7LIRY3eRLbPVBOxCG2gWHDA2FI415QQvzpWIVkjm1TS1WcmKDd/kmnJDpbad7ZDTup4ndqcojllr+pOGjRIfb8+fMBzBsUXGchUnvBM6MjXLXHtIXnQbgUeo3vE+fZo2J5GgrjJuyqTmusBPnetIUWkgN+fn4bUQnNKysrewDX0ttfqCd4ji5Q5jmrYTHqSc6yo0lfdVzUFqYpjshhYWEreA2vRZpBg/9Ih9gRyHcv2tjYrEBSNOQqh1i0JVvRkL+Ec/tAODGADWSLsixpo5Z7bqv7rE+0f09J0AM3/MW4KcVygq0pemWd77rrLv+cnJz7kXaF5QSSCjkjlpOGB89esVxha3bs2DEfNED3o2fmjzQviKo4nENvJHLLli2bPT09f9Kk08zIbZ1gpXANy4lakZSjArkwbty4FNxXnccZG4HmPMzI963efxme8/E5c+bsRc+aY9jsBCgWKsB3ogg+O4aHh98fERHhj8/jNOlE3ar8gV7QnvXr1+/y9fXld3Hsm9IU32GzAs+dSrpHfn5+m2eeeab7Dz/8cEdBQQGjb2rXlYR1IoXv9pcvvvjiWyiLm/AOqDgq5YvvF1uDAvUKFbD+ycnJA3v37t3r4sWLnbBPK7A6w4P/mZaTHW5ubj+ePXuWMxRpaaAfFJdRaM5lWmhoUNhqZTmBUAP+VctycieuEctJA4FnqWjKeK4+y5cv/z8k8R2wQeGzZ6FNNzU1/SooKGgyCjWnqXGxMUYjrDNUTq4xlVgVNZ2/rVa2dRVeW5NUd35dhM+luQrvXx1+yYPS+ZumTPmo+QDpzBOc4s/w2N23bdt2F6chQoGhx7zuu1LfV4W1tfXu0NDQl3kNhJEmaZVpTuP6TRY+R80zdWQZhMIxAw0qp8syP2uXo6pyw/eBOvO1lMsLsPFdctqsQdab/H9lZWVjkpKSZjs4OKxH0l4Ip7Jq51FaTr7XspzQL6dFW04MnfpWPsgb1cbJ1+6VMfNwPQlrGxsbyUgNDJ6r2psqggJyPiAg4AQ+08OaFiuOyXKdg3br1q0buHnzZi40RgdZrjap23NuKPi9lCqfpBsQXluTVHd+XUQd62+Oov4HBbxDetBfAd8rhLM/uqMnOvLf//53QGZmJhs4TjPUhbMI6ESdPXr06OwZM2YweiSd7+jVz3FjNgpCPeFz5DPFx1wPD4/06dOn57i5ubFsUuFUFRRSVXYKCwsdTpw40Zn+ZBorJa0IuosyGgos18zf6tIb3K+uflKfE7fq5+raH8EAYCa4UZRMgUKnZg51W12mqgLnV1WuQoOSg97xIfR+v0SP62s8598hnMHDhsq7oKBg3BtvvBF06NChYdinyVRpyLgVmhUsZ6yY2ajdUlpaqlbS2tigQfNm3Iy9e/dOxHv2Q5ryznXIt7KySkF+OYx8E49eK53o6MQuFX4Dw2dKAZXjxo0rQUci09LSks+bEWRpDdOuPyn0qbj166+/fvizzz57CPt0eOfsHYMGz0h1Fq62bcJx5ntFoeOzVBIFg6Q+yokCMojawNXU0ClmSn5AA8lprkqlKjQsKLTs8f7dp0+fXzhVzdnZ+SieNYM+URlkpdYmJSWlA465c8E3XgIRBaX5wQqZFg9tXxC1TPFdKr3Q//znP0YffvhhaygpfPc1LXmejDzzI/LEJ7179/7RxMQkEfsGPTPkZoPnW2pmZnZs6tSpP48ZM+Y/2GekXs5y0G1o7fDuOufm5g7A++kWExNDyxd9VwyyvCLvMX+qweeonFyPerddQtOmPi+4qiJEgTFFr72m7+K8dU6ZstMM69Q4j12oF2ygClDZZfv7+1+A5Jmbm9NsTJT3BDHbunWr0YYNG7hstdpDEeWkecF3yTKkHaiKTtH0EXGCdIyPj+8SGhraIS8vj75FPJ/v+Kr3jLyS/uSTT3K6+T7sHoHQ8VLNM4J+4PPlyuJ7Fi9eHOXl5XUQ70ENqKUNyyYXaOS0U4clS5Y4pKWlMagiF5CjkmJIFmjttkPN19ppVXm38n8L/ykdXsFw0c4AdUVxiMXWEkqHJXoD6noQLGSqEGYkBmFRIkxiq/byhAYEz1X1PaGUoWeW2717d0b2ox8B/QrY2+bqkc7vvvtu57i4OJqJGeuCjnY3oqCwp6f9ntXPFB5rCFErosYS1Wn2elLdtfoWPg8+W/4+HWKpiKpRWzmTgeWvfUZGRt958+YNzs7OZpwIhpVW3wnhlhYXRnPM8PX1zXz11Vc5I4cBmi5A6GvC3xL0BJ+v5lmfdnNz+3P69OlJqD85/Mp3WhVeHEJUpdJ627Ztbh999BHLaweUV66RYkj+J5UVANsS/C/65qgO/WrepfCZlONZcas+J8mrBsyNNEoKyERUTOiBbnHs2LGOAQEBI1Eh3olCp71AWBmOM3Rt2qBBg05qgoH9iX2ajyVj6Qn0Lug8d/uGDRsGzZgxox96Xgy6xZgV7EkfNTU1/XPo0KGJ27dv/7su7wPf22vjxo13h4WF3Yd3zfes3XuvD9Jbvz7qs76AMkVlM7Nbt24nvv7661/RCz+AfVbq/VeuXNkPveyeeD/ueKdc4Zari2qjXE/F9cMPP/y1b9+++7H/u7GBB/pqiuC50+p899y5c0esXr16hCaZw3BXlCucw4CKJx0dHU/g3SZCqaSlJRnvzCDWO8L/46ybHlCsu48YMaKHRrHuBtHOu2VgG/L8H3v27NmE80vwTJTOAraq8i0YEPVRTlStXrWgmCUmJjqUl5dfESbd0tKywNzcvKhTp07sGZASFCpqvoKewPug2ZcLurUKDw/v/M4774wsLCwcin3GVuCzL8Z7KUTjtOG55577EcrKNqQpCsK1Cjq+k8MJ1idPnrQoLS1VLWWNCvJXs1Bq8UxNanuvPFfzsVbwe62trWkJu6Vz585UKhSHSqD4liQlJVnhfZtX973qPfF6XMueKit5Wjalgm9k8OzpIWuNZ292+PBhu5rygfq+KyoqitA40xGU02rZKBtEBw//RxmWxP+xYN2i5t3i4mKuCaagtiOaZ8A8r1iXJN8K10RTyKikUJjRlOBsWp+ZfsOKkFA3+LwrL0cQtWVchYCAgFehEDLOBQs0KzRlaICxZ1ApPqY5t9bviOfVRjSnK1R3vC6i+ZoWQ3XPoDrRnK5QzXG1TCrvVls0lwhNBK13o/3OWsx70/mf/N9qGyLtiCAYGizIUDzc4uLinvfx8eFKlgyPrcZXYO9rExSXSTwH59K0arCzAQRBEARBaCJA8XDiOimRkZELGXUSSVx7hw54ZbSmWFlZvbVixYr7cN4gCKMuNpQfiSAIgiAIwtXQGgKlowtkaFhY2CSbywtrqcsMUEk55uDg8Ht8fHwElRicf0Oh7QVBEARBEGoFlA1lXQ+IE/1PAgMD1XU96EjG4Z0CCwuLnICAgHVJSUmP43wO78jQjiAIgiAI+oPKhkYc6QBLR1gkq3EVqKBUODg4bF6+fPkUKjE4T3E+Q7ogCIIgCIL+gOJhr/qf2NvbJxhdXmafIe65MNkOrvjJFaZxHoM8MaqvIUWhFARBEAShqQFlwxyKR/eioqIROv4nnFocDwVlDYd90tPTx+G8XpCqOAOCIAiCIAgNDodqqHBAnCCeGv+TTTjEoR1OM06GxK9YsWIxjo+HuGBfEARBEARBv0BJof+JuY7/iRL7BFLi7u6+LTo6eiqUEy7bLoGPBEEQBEHQP1A4zMrKysao/idIotWE/idUUKJpVeHsHigotLQoEWSRLgiCIAiCoB+obEDp6E4FJTQ09GVLS8vVSKb/Ca0ov2oFZ6OC4kIFhdcJgiAIgiDoBQ7VQOFQ/E8yMzPbMYy9qanpVzhE3xMGZ0t0d3eP2bVr14clJSX0P3HjdYIgCIIgCHqDCopGjOPi4u739fWl9UQd2uEaPNmBgYGbkpKS6H/SCfuCIAiCoHfEj6AFY2RkdEkjlX369CmZPn36RSsrq3M4lAvh6sW233//fatPP/3UCp/NoMTIyqCCIAiCIDQOlZWVA4qKioLDwsJWQFnZgSQuEKj4nzg6Or7+xx9/9IVS4ojzrKik8BpBEARBEAS9AaXDnn4lnKGj5X+SDkXlJCQSaa+eP38+gEoMxOnyVYIgCIIgCHpCM1xjCjGn/4mfn99iJKdB8qigYPsrrSrl5eVPQznpwmsEQRAEQRD0DpQTzuIZGhkZ+W8HB4ffkUQFhU6yBR4eHvt37dr1Oo734XkUXiMIgiAIgqBXoHz0ooVE43+yFUmJEE4xjvf19V2Qk5NzGxQTSwidZMWpWhAEQRAE/QLlhP4nnhAf+p9AQVmD5GQLC4ujXCwQSssDOMbgbG4QWRxQEARBEAT9cunSJRMoHRZUPA4ePOhH/xON3wmHd+Ld3d0jo6Oj38ZxBmcT/xNBEARBEBoH+pRA+RgUGRkZpvE/YeTYdIqvr29sbm7uKzg+gOfxfEEQBEFoCMRfQKgRIyOjS9jkjR07Nm3WrFkHjI2Nj2CfAdrMfvvtN9f33nvPOT8/3xL7nOkjwdkEQRAEQdA/UDgYeK1Xdnb23VypmP4nmiGeY66urgs57IPj6srFEpxNEARBEAT9AoXDTKN8OFER4WwdJHP2TqaxsfFu+qNo1t4ZAfFULhIEQRAEQdA3HLKB8uHDOCeMd4IkTi3mDJ644ODgSNX/RDlZEARBEOqB+JwItULjf1J6xx13pD/33HNJVlZWKUirKCkpabN169beBw4ccMG+PZUYyuWrBEEQBEEQ9AiUDsX/pKioaERwcPB0+p8g+S/IWQ7vnDp1agTOkZWLBUEQBEFoHKBwcO0dWygoTkePHh3k6+s7B8kHIFwgcE1YWNgkHGNwNg+IvXKRIAiCIAiCPqFFhJYRKiGRkZGvWFtb70Yy/U9+9fDw+FKz9o4/jysXCIIgCIIgNAZQPjyLioqCQ0ND/8uw9kji8M5fPj4+vyUlJc2DAuOnnCgIgiAIgtAYQPmg/8mA8+fPBwQHB//T1NT0KyQnQlHJ4oKBZWVlYzRWFvE9EQRBEARB/0DpMIVywgUC26SkpAzw9vZ+Dcl7INkeHh6f7Nq16yEcs8F55hAJziYIgiAIgn7RWEU4K4dKSvvo6Oip7u7uMThUAIlmsDZaVXBsEI/zXOVCQRAEQRAEfUPrSXl5+dP0P8EufU8OGBkZ7dAKzjaUSoxysiAIgiAIgr6B4kH/kztLS0unQiFZDMVkK5LjLS0tU6Kjoz/HMX+cY3b5bEEQBEEQBD1Dq4hGQfGg/wnjn9BygkNFfn5+6w4fPvwYjnFhQHGQFQRBEK6L+AEIDUEFJA8KyXk3N7czM2bMSMa2HGnGsbGx5v/9738t8NkViklriDVE8p0gCIIgCI1D5eUZPONXrFjxOYd1oLB87+rqujAqKuoppHPl4u5QTsw1pwuCIAiCIOgXKB82kDszMjJeDgoK+gxJmyHRmuBsb5eVlT2A4xLaXhAEQRCExuHS5YX/6H/iSf+Trl27TjUyMtpkYWGRw9k8SB/P4xDxPREEQRAEQf9Q6YAw9gkdYB137do10d3dPRKHihwcHDZHRUVNwzE3HLOEmPH8y1cKgiAIgiDoESodEHMO49D/hJYTzuBhJNlTp07R96QXpA3P0VwiCIIgCAoya0LQC1BELmFzycTEpOCRRx4589RTTx2GIlJ04sSJzm+++eZIKCa343hHpFkqFwiCIAiCIOgbWk+ghDhBuufk5Nzm5+c3A0rLGisrqz+joqK+YlRZWk80pwuCIAiCIOgfKChmUEA4g8eeiwFyUUAkn4Oi8n1cXNzzSPfAOXSiFSueIAiCIAj6h9YTjRiXlZWNWbFixWIkp9H/JDg4+J9QTvrgGGf3cAVjWb1YEARBEITGo6ioaER5efm/goKCYk1NTb9ycXF5k8HZoJT4QTnpTgVFc6ogCIIgCIL+gfLhAvHhbB36n1haWq5mcLaEhIT/QHEJxjFPzamCIAiCIAj6B8qHBYTh7V3ofwLF5EMk/xUUFPQDVzRGehfNEJDEPhEEQWjBiBOi0GgYGRmVQi5CLtxxxx35ISEhJvhsvnXrVovVq1fb4hT6nXBhQHOI5E1BEARBEBqPysrKoVlZWW8GBwfvp3Osj4/PG+fPnw9A+gCIJ0T8TwRBEARBaDygfNABdjwVFD8/v8X0P+FCgdxHuj+kveZUQRAEQRAE/UPLCIQOsp00/idvWFtb72aoe43/SS/NqYIgCEILQ8b1hZuCkZFRISQLcnrAgAHp06ZNu1RRUWG/ZMmSnn/++WdbnMJFAY3FOVYQBEEQhEansrJygBr/BMrK9wzOxnD3GusKVzeW4GyCIAgtCLGcCE2BbGNj46OzZ8/ePXz48ITNmzcX7Ny50xXpHSDOUE5kcUBBEARBEBoPKh+VlxcI9Dx48KCfh4fHTG9v70+0grOJ/4kgCIIgCI0H/Uog9C8xhSLis3z58v+zt7ffGRgYuCc3N/cVpA3gOZrTBUEQBANHhnWEm46RkdElSCWkHLsVjz/++KXx48eX7927t3zdunVUSswoVF6oxPAaQRAEwXCR3qjQpODQDjZ3ZGdn9wkKCnJISEg4snPnzoT27dsnI50zfAogxcrJgiAIgkEivVChqZEJ2dOqVasvg4ODo9q0aVPw5ptv9s/Kynq0oqJi0KVLl9wunyYIgiAYKqKcCE0KjVUkE9tTo0aNSpk4cWLZN9980zUqKqovFJOOONaK/icU5QJBEARBEAR9o1E+jCsrKztxtg6I9Pb2jomPj49A2lAco++JiSgogiAIholYToQmh5HGQRYfSy0sLHJDQ0PTevbsmbt06dKC3NxcBmVzwDErCB1lBUEQBANDlBOhyQIFJRebBHd3980hISGfJiYmnlu/fr050rygoLSH2CknCoIgCIIgNAZQPhj3xB7CBQJ7rVix4j5vb+/XOLxTXl7+NI73g4j/iSAIgiAIjYdG+aD/SZuSkpLxQUFBqxicLSsr602k+/GY5hxRUARBEAwEGdYRmjRa/icM0HZLWFhYEbdff/11ZXFxMZ1iLbBL3xPJy4IgCIIgNB6Vl1co7lVWVjbm8OHDj/mDP/74oy/SPCBcl8dGrCeCIAiGgfQ2hWaB0eX4JykmJiYHvLy8Dtx7771Fy5cvvy0/P/9xpA+HcAVjyc+CIAgGgFTmQrMAykkF5CKEAdrSn3vuOWM3N7du77333pjKysoeSGuD0xT/k8tXCIIgCM0VUU6EZgMUEC4OWIGPiv/JzJkzy9PS0ioSExOtoZTQ/4T5WZxjBUEQmjminAjNkVITE5Pj9vb2P0+bNi1yw4YN+5F2BmKqEbGgCIIgNGOkAheaHbSQQBgh1pry3XffmTB9zJgxnLnDoZ98bPM1VhZBEAShmSGWE6HZoRneKYJcwO45KiVnz57tnpCQMBb7A6G4tMPWTKwngiAIzRNRToRmiUZBoZMs/U+sHn74Ybd9+/Z5ZmVluWGf04ppTRH/E0EQhGaIKCdCc+cSJLt169bHhw0b9suBAwf+5L5y5PKwpSgogiAIgiA0HlQ8IJYQx8rKyjYnTpxog629Zp8WFHOIKOGCIAiCIDQeVD4gnEpMPxPHLVu2dIZi0h3iCXFiuuZUQRAEQRAE/QPlQxm60QgtJp6a0PZUUFyQRuuJDO0IgiA0E6TCFgwGjXKiTC/WSCln9WB7EaJMK8Y+fVQEQRCEJowoJ4JBAeWE/iVKtFjO6MFnVRREOREEQWj6iHIiGBQ1Dd+IUiIIgiAIgiAIgiAIgiAIgiAIgiAIgiAIgiAIgiAIgiAIgiAIgiAIgiAIgiAIgiAIgiAIgiAIgiAIgiAIgiAIgiAIgiAIgiAIgiAIgiAIgiAIgiAIgiAIgiAIgiAIgtCw3HLL/wMNGVbktOsL3QAAAABJRU5ErkJggg==;" vertex="1" parent="jXLp81m_WxX2Bu4EoHyN-7">
          <mxGeometry y="30" width="239" height="150.52" as="geometry" />
        </mxCell>
        <mxCell id="jXLp81m_WxX2Bu4EoHyN-20" value="" style="endArrow=classic;startArrow=classic;html=1;rounded=0;exitX=1;exitY=0.5;exitDx=0;exitDy=0;entryX=0;entryY=0.5;entryDx=0;entryDy=0;" parent="1" source="jXLp81m_WxX2Bu4EoHyN-7" target="sh9PJ3uVSIfnWu05vSia-8" edge="1">
          <mxGeometry width="50" height="50" relative="1" as="geometry">
            <mxPoint x="370" y="400" as="sourcePoint" />
            <mxPoint x="330" y="530" as="targetPoint" />
          </mxGeometry>
        </mxCell>
      </root>
    </mxGraphModel>
  </diagram>
</mxfile>
